<?xml version="1.0" encoding="utf-8" standalone="no"?>
<!DOCTYPE svg PUBLIC "-//W3C//DTD SVG 1.1//EN"
  "http://www.w3.org/Graphics/SVG/1.1/DTD/svg11.dtd">
<svg xmlns:xlink="http://www.w3.org/1999/xlink" width="460.8pt" height="345.6pt" viewBox="0 0 460.8 345.6" xmlns="http://www.w3.org/2000/svg" version="1.1">
 <metadata>
  <rdf:RDF xmlns:dc="http://purl.org/dc/elements/1.1/" xmlns:cc="http://creativecommons.org/ns#" xmlns:rdf="http://www.w3.org/1999/02/22-rdf-syntax-ns#">
   <cc:Work>
    <dc:type rdf:resource="http://purl.org/dc/dcmitype/StillImage"/>
    <dc:date>2022-10-25T16:59:23.818228</dc:date>
    <dc:format>image/svg+xml</dc:format>
    <dc:creator>
     <cc:Agent>
      <dc:title>Matplotlib v3.5.1, https://matplotlib.org/</dc:title>
     </cc:Agent>
    </dc:creator>
   </cc:Work>
  </rdf:RDF>
 </metadata>
 <defs>
  <style type="text/css">*{stroke-linejoin: round; stroke-linecap: butt}</style>
 </defs>
 <g id="figure_1">
  <g id="patch_1">
   <path d="M 0 345.6 
L 460.8 345.6 
L 460.8 0 
L 0 0 
z
" style="fill: #ffffff"/>
  </g>
  <g id="axes_1">
   <g id="patch_2">
    <path d="M 51.05 303.64 
L 450 303.64 
L 450 25.44 
L 51.05 25.44 
z
" style="fill: #ffffff"/>
   </g>
   <g id="matplotlib.axis_1">
    <g id="xtick_1">
     <g id="line2d_1">
      <path d="M 68.821046 303.64 
L 68.821046 25.44 
" clip-path="url(#pb74c132dd4)" style="fill: none; stroke: #b0b0b0; stroke-width: 0.8; stroke-linecap: square"/>
     </g>
     <g id="line2d_2">
      <defs>
       <path id="mbb3d93417f" d="M 0 0 
L 0 3.5 
" style="stroke: #000000; stroke-width: 0.8"/>
      </defs>
      <g>
       <use xlink:href="#mbb3d93417f" x="68.821046" y="303.64" style="stroke: #000000; stroke-width: 0.8"/>
      </g>
     </g>
     <g id="text_1">
      <!-- 0 -->
      <g transform="translate(65.639796 318.238437)scale(0.1 -0.1)">
       <defs>
        <path id="DejaVuSans-30" d="M 2034 4250 
Q 1547 4250 1301 3770 
Q 1056 3291 1056 2328 
Q 1056 1369 1301 889 
Q 1547 409 2034 409 
Q 2525 409 2770 889 
Q 3016 1369 3016 2328 
Q 3016 3291 2770 3770 
Q 2525 4250 2034 4250 
z
M 2034 4750 
Q 2819 4750 3233 4129 
Q 3647 3509 3647 2328 
Q 3647 1150 3233 529 
Q 2819 -91 2034 -91 
Q 1250 -91 836 529 
Q 422 1150 422 2328 
Q 422 3509 836 4129 
Q 1250 4750 2034 4750 
z
" transform="scale(0.015625)"/>
       </defs>
       <use xlink:href="#DejaVuSans-30"/>
      </g>
     </g>
    </g>
    <g id="xtick_2">
     <g id="line2d_3">
      <path d="M 141.430019 303.64 
L 141.430019 25.44 
" clip-path="url(#pb74c132dd4)" style="fill: none; stroke: #b0b0b0; stroke-width: 0.8; stroke-linecap: square"/>
     </g>
     <g id="line2d_4">
      <g>
       <use xlink:href="#mbb3d93417f" x="141.430019" y="303.64" style="stroke: #000000; stroke-width: 0.8"/>
      </g>
     </g>
     <g id="text_2">
      <!-- 200 -->
      <g transform="translate(131.886269 318.238437)scale(0.1 -0.1)">
       <defs>
        <path id="DejaVuSans-32" d="M 1228 531 
L 3431 531 
L 3431 0 
L 469 0 
L 469 531 
Q 828 903 1448 1529 
Q 2069 2156 2228 2338 
Q 2531 2678 2651 2914 
Q 2772 3150 2772 3378 
Q 2772 3750 2511 3984 
Q 2250 4219 1831 4219 
Q 1534 4219 1204 4116 
Q 875 4013 500 3803 
L 500 4441 
Q 881 4594 1212 4672 
Q 1544 4750 1819 4750 
Q 2544 4750 2975 4387 
Q 3406 4025 3406 3419 
Q 3406 3131 3298 2873 
Q 3191 2616 2906 2266 
Q 2828 2175 2409 1742 
Q 1991 1309 1228 531 
z
" transform="scale(0.015625)"/>
       </defs>
       <use xlink:href="#DejaVuSans-32"/>
       <use xlink:href="#DejaVuSans-30" x="63.623047"/>
       <use xlink:href="#DejaVuSans-30" x="127.246094"/>
      </g>
     </g>
    </g>
    <g id="xtick_3">
     <g id="line2d_5">
      <path d="M 214.038991 303.64 
L 214.038991 25.44 
" clip-path="url(#pb74c132dd4)" style="fill: none; stroke: #b0b0b0; stroke-width: 0.8; stroke-linecap: square"/>
     </g>
     <g id="line2d_6">
      <g>
       <use xlink:href="#mbb3d93417f" x="214.038991" y="303.64" style="stroke: #000000; stroke-width: 0.8"/>
      </g>
     </g>
     <g id="text_3">
      <!-- 400 -->
      <g transform="translate(204.495241 318.238437)scale(0.1 -0.1)">
       <defs>
        <path id="DejaVuSans-34" d="M 2419 4116 
L 825 1625 
L 2419 1625 
L 2419 4116 
z
M 2253 4666 
L 3047 4666 
L 3047 1625 
L 3713 1625 
L 3713 1100 
L 3047 1100 
L 3047 0 
L 2419 0 
L 2419 1100 
L 313 1100 
L 313 1709 
L 2253 4666 
z
" transform="scale(0.015625)"/>
       </defs>
       <use xlink:href="#DejaVuSans-34"/>
       <use xlink:href="#DejaVuSans-30" x="63.623047"/>
       <use xlink:href="#DejaVuSans-30" x="127.246094"/>
      </g>
     </g>
    </g>
    <g id="xtick_4">
     <g id="line2d_7">
      <path d="M 286.647964 303.64 
L 286.647964 25.44 
" clip-path="url(#pb74c132dd4)" style="fill: none; stroke: #b0b0b0; stroke-width: 0.8; stroke-linecap: square"/>
     </g>
     <g id="line2d_8">
      <g>
       <use xlink:href="#mbb3d93417f" x="286.647964" y="303.64" style="stroke: #000000; stroke-width: 0.8"/>
      </g>
     </g>
     <g id="text_4">
      <!-- 600 -->
      <g transform="translate(277.104214 318.238437)scale(0.1 -0.1)">
       <defs>
        <path id="DejaVuSans-36" d="M 2113 2584 
Q 1688 2584 1439 2293 
Q 1191 2003 1191 1497 
Q 1191 994 1439 701 
Q 1688 409 2113 409 
Q 2538 409 2786 701 
Q 3034 994 3034 1497 
Q 3034 2003 2786 2293 
Q 2538 2584 2113 2584 
z
M 3366 4563 
L 3366 3988 
Q 3128 4100 2886 4159 
Q 2644 4219 2406 4219 
Q 1781 4219 1451 3797 
Q 1122 3375 1075 2522 
Q 1259 2794 1537 2939 
Q 1816 3084 2150 3084 
Q 2853 3084 3261 2657 
Q 3669 2231 3669 1497 
Q 3669 778 3244 343 
Q 2819 -91 2113 -91 
Q 1303 -91 875 529 
Q 447 1150 447 2328 
Q 447 3434 972 4092 
Q 1497 4750 2381 4750 
Q 2619 4750 2861 4703 
Q 3103 4656 3366 4563 
z
" transform="scale(0.015625)"/>
       </defs>
       <use xlink:href="#DejaVuSans-36"/>
       <use xlink:href="#DejaVuSans-30" x="63.623047"/>
       <use xlink:href="#DejaVuSans-30" x="127.246094"/>
      </g>
     </g>
    </g>
    <g id="xtick_5">
     <g id="line2d_9">
      <path d="M 359.256936 303.64 
L 359.256936 25.44 
" clip-path="url(#pb74c132dd4)" style="fill: none; stroke: #b0b0b0; stroke-width: 0.8; stroke-linecap: square"/>
     </g>
     <g id="line2d_10">
      <g>
       <use xlink:href="#mbb3d93417f" x="359.256936" y="303.64" style="stroke: #000000; stroke-width: 0.8"/>
      </g>
     </g>
     <g id="text_5">
      <!-- 800 -->
      <g transform="translate(349.713186 318.238437)scale(0.1 -0.1)">
       <defs>
        <path id="DejaVuSans-38" d="M 2034 2216 
Q 1584 2216 1326 1975 
Q 1069 1734 1069 1313 
Q 1069 891 1326 650 
Q 1584 409 2034 409 
Q 2484 409 2743 651 
Q 3003 894 3003 1313 
Q 3003 1734 2745 1975 
Q 2488 2216 2034 2216 
z
M 1403 2484 
Q 997 2584 770 2862 
Q 544 3141 544 3541 
Q 544 4100 942 4425 
Q 1341 4750 2034 4750 
Q 2731 4750 3128 4425 
Q 3525 4100 3525 3541 
Q 3525 3141 3298 2862 
Q 3072 2584 2669 2484 
Q 3125 2378 3379 2068 
Q 3634 1759 3634 1313 
Q 3634 634 3220 271 
Q 2806 -91 2034 -91 
Q 1263 -91 848 271 
Q 434 634 434 1313 
Q 434 1759 690 2068 
Q 947 2378 1403 2484 
z
M 1172 3481 
Q 1172 3119 1398 2916 
Q 1625 2713 2034 2713 
Q 2441 2713 2670 2916 
Q 2900 3119 2900 3481 
Q 2900 3844 2670 4047 
Q 2441 4250 2034 4250 
Q 1625 4250 1398 4047 
Q 1172 3844 1172 3481 
z
" transform="scale(0.015625)"/>
       </defs>
       <use xlink:href="#DejaVuSans-38"/>
       <use xlink:href="#DejaVuSans-30" x="63.623047"/>
       <use xlink:href="#DejaVuSans-30" x="127.246094"/>
      </g>
     </g>
    </g>
    <g id="xtick_6">
     <g id="line2d_11">
      <path d="M 431.865909 303.64 
L 431.865909 25.44 
" clip-path="url(#pb74c132dd4)" style="fill: none; stroke: #b0b0b0; stroke-width: 0.8; stroke-linecap: square"/>
     </g>
     <g id="line2d_12">
      <g>
       <use xlink:href="#mbb3d93417f" x="431.865909" y="303.64" style="stroke: #000000; stroke-width: 0.8"/>
      </g>
     </g>
     <g id="text_6">
      <!-- 1000 -->
      <g transform="translate(419.140909 318.238437)scale(0.1 -0.1)">
       <defs>
        <path id="DejaVuSans-31" d="M 794 531 
L 1825 531 
L 1825 4091 
L 703 3866 
L 703 4441 
L 1819 4666 
L 2450 4666 
L 2450 531 
L 3481 531 
L 3481 0 
L 794 0 
L 794 531 
z
" transform="scale(0.015625)"/>
       </defs>
       <use xlink:href="#DejaVuSans-31"/>
       <use xlink:href="#DejaVuSans-30" x="63.623047"/>
       <use xlink:href="#DejaVuSans-30" x="127.246094"/>
       <use xlink:href="#DejaVuSans-30" x="190.869141"/>
      </g>
     </g>
    </g>
    <g id="text_7">
     <!-- Input frequency (Hz) -->
     <g transform="translate(199.0375 331.916562)scale(0.1 -0.1)">
      <defs>
       <path id="DejaVuSans-49" d="M 628 4666 
L 1259 4666 
L 1259 0 
L 628 0 
L 628 4666 
z
" transform="scale(0.015625)"/>
       <path id="DejaVuSans-6e" d="M 3513 2113 
L 3513 0 
L 2938 0 
L 2938 2094 
Q 2938 2591 2744 2837 
Q 2550 3084 2163 3084 
Q 1697 3084 1428 2787 
Q 1159 2491 1159 1978 
L 1159 0 
L 581 0 
L 581 3500 
L 1159 3500 
L 1159 2956 
Q 1366 3272 1645 3428 
Q 1925 3584 2291 3584 
Q 2894 3584 3203 3211 
Q 3513 2838 3513 2113 
z
" transform="scale(0.015625)"/>
       <path id="DejaVuSans-70" d="M 1159 525 
L 1159 -1331 
L 581 -1331 
L 581 3500 
L 1159 3500 
L 1159 2969 
Q 1341 3281 1617 3432 
Q 1894 3584 2278 3584 
Q 2916 3584 3314 3078 
Q 3713 2572 3713 1747 
Q 3713 922 3314 415 
Q 2916 -91 2278 -91 
Q 1894 -91 1617 61 
Q 1341 213 1159 525 
z
M 3116 1747 
Q 3116 2381 2855 2742 
Q 2594 3103 2138 3103 
Q 1681 3103 1420 2742 
Q 1159 2381 1159 1747 
Q 1159 1113 1420 752 
Q 1681 391 2138 391 
Q 2594 391 2855 752 
Q 3116 1113 3116 1747 
z
" transform="scale(0.015625)"/>
       <path id="DejaVuSans-75" d="M 544 1381 
L 544 3500 
L 1119 3500 
L 1119 1403 
Q 1119 906 1312 657 
Q 1506 409 1894 409 
Q 2359 409 2629 706 
Q 2900 1003 2900 1516 
L 2900 3500 
L 3475 3500 
L 3475 0 
L 2900 0 
L 2900 538 
Q 2691 219 2414 64 
Q 2138 -91 1772 -91 
Q 1169 -91 856 284 
Q 544 659 544 1381 
z
M 1991 3584 
L 1991 3584 
z
" transform="scale(0.015625)"/>
       <path id="DejaVuSans-74" d="M 1172 4494 
L 1172 3500 
L 2356 3500 
L 2356 3053 
L 1172 3053 
L 1172 1153 
Q 1172 725 1289 603 
Q 1406 481 1766 481 
L 2356 481 
L 2356 0 
L 1766 0 
Q 1100 0 847 248 
Q 594 497 594 1153 
L 594 3053 
L 172 3053 
L 172 3500 
L 594 3500 
L 594 4494 
L 1172 4494 
z
" transform="scale(0.015625)"/>
       <path id="DejaVuSans-20" transform="scale(0.015625)"/>
       <path id="DejaVuSans-66" d="M 2375 4863 
L 2375 4384 
L 1825 4384 
Q 1516 4384 1395 4259 
Q 1275 4134 1275 3809 
L 1275 3500 
L 2222 3500 
L 2222 3053 
L 1275 3053 
L 1275 0 
L 697 0 
L 697 3053 
L 147 3053 
L 147 3500 
L 697 3500 
L 697 3744 
Q 697 4328 969 4595 
Q 1241 4863 1831 4863 
L 2375 4863 
z
" transform="scale(0.015625)"/>
       <path id="DejaVuSans-72" d="M 2631 2963 
Q 2534 3019 2420 3045 
Q 2306 3072 2169 3072 
Q 1681 3072 1420 2755 
Q 1159 2438 1159 1844 
L 1159 0 
L 581 0 
L 581 3500 
L 1159 3500 
L 1159 2956 
Q 1341 3275 1631 3429 
Q 1922 3584 2338 3584 
Q 2397 3584 2469 3576 
Q 2541 3569 2628 3553 
L 2631 2963 
z
" transform="scale(0.015625)"/>
       <path id="DejaVuSans-65" d="M 3597 1894 
L 3597 1613 
L 953 1613 
Q 991 1019 1311 708 
Q 1631 397 2203 397 
Q 2534 397 2845 478 
Q 3156 559 3463 722 
L 3463 178 
Q 3153 47 2828 -22 
Q 2503 -91 2169 -91 
Q 1331 -91 842 396 
Q 353 884 353 1716 
Q 353 2575 817 3079 
Q 1281 3584 2069 3584 
Q 2775 3584 3186 3129 
Q 3597 2675 3597 1894 
z
M 3022 2063 
Q 3016 2534 2758 2815 
Q 2500 3097 2075 3097 
Q 1594 3097 1305 2825 
Q 1016 2553 972 2059 
L 3022 2063 
z
" transform="scale(0.015625)"/>
       <path id="DejaVuSans-71" d="M 947 1747 
Q 947 1113 1208 752 
Q 1469 391 1925 391 
Q 2381 391 2643 752 
Q 2906 1113 2906 1747 
Q 2906 2381 2643 2742 
Q 2381 3103 1925 3103 
Q 1469 3103 1208 2742 
Q 947 2381 947 1747 
z
M 2906 525 
Q 2725 213 2448 61 
Q 2172 -91 1784 -91 
Q 1150 -91 751 415 
Q 353 922 353 1747 
Q 353 2572 751 3078 
Q 1150 3584 1784 3584 
Q 2172 3584 2448 3432 
Q 2725 3281 2906 2969 
L 2906 3500 
L 3481 3500 
L 3481 -1331 
L 2906 -1331 
L 2906 525 
z
" transform="scale(0.015625)"/>
       <path id="DejaVuSans-63" d="M 3122 3366 
L 3122 2828 
Q 2878 2963 2633 3030 
Q 2388 3097 2138 3097 
Q 1578 3097 1268 2742 
Q 959 2388 959 1747 
Q 959 1106 1268 751 
Q 1578 397 2138 397 
Q 2388 397 2633 464 
Q 2878 531 3122 666 
L 3122 134 
Q 2881 22 2623 -34 
Q 2366 -91 2075 -91 
Q 1284 -91 818 406 
Q 353 903 353 1747 
Q 353 2603 823 3093 
Q 1294 3584 2113 3584 
Q 2378 3584 2631 3529 
Q 2884 3475 3122 3366 
z
" transform="scale(0.015625)"/>
       <path id="DejaVuSans-79" d="M 2059 -325 
Q 1816 -950 1584 -1140 
Q 1353 -1331 966 -1331 
L 506 -1331 
L 506 -850 
L 844 -850 
Q 1081 -850 1212 -737 
Q 1344 -625 1503 -206 
L 1606 56 
L 191 3500 
L 800 3500 
L 1894 763 
L 2988 3500 
L 3597 3500 
L 2059 -325 
z
" transform="scale(0.015625)"/>
       <path id="DejaVuSans-28" d="M 1984 4856 
Q 1566 4138 1362 3434 
Q 1159 2731 1159 2009 
Q 1159 1288 1364 580 
Q 1569 -128 1984 -844 
L 1484 -844 
Q 1016 -109 783 600 
Q 550 1309 550 2009 
Q 550 2706 781 3412 
Q 1013 4119 1484 4856 
L 1984 4856 
z
" transform="scale(0.015625)"/>
       <path id="DejaVuSans-48" d="M 628 4666 
L 1259 4666 
L 1259 2753 
L 3553 2753 
L 3553 4666 
L 4184 4666 
L 4184 0 
L 3553 0 
L 3553 2222 
L 1259 2222 
L 1259 0 
L 628 0 
L 628 4666 
z
" transform="scale(0.015625)"/>
       <path id="DejaVuSans-7a" d="M 353 3500 
L 3084 3500 
L 3084 2975 
L 922 459 
L 3084 459 
L 3084 0 
L 275 0 
L 275 525 
L 2438 3041 
L 353 3041 
L 353 3500 
z
" transform="scale(0.015625)"/>
       <path id="DejaVuSans-29" d="M 513 4856 
L 1013 4856 
Q 1481 4119 1714 3412 
Q 1947 2706 1947 2009 
Q 1947 1309 1714 600 
Q 1481 -109 1013 -844 
L 513 -844 
Q 928 -128 1133 580 
Q 1338 1288 1338 2009 
Q 1338 2731 1133 3434 
Q 928 4138 513 4856 
z
" transform="scale(0.015625)"/>
      </defs>
      <use xlink:href="#DejaVuSans-49"/>
      <use xlink:href="#DejaVuSans-6e" x="29.492188"/>
      <use xlink:href="#DejaVuSans-70" x="92.871094"/>
      <use xlink:href="#DejaVuSans-75" x="156.347656"/>
      <use xlink:href="#DejaVuSans-74" x="219.726562"/>
      <use xlink:href="#DejaVuSans-20" x="258.935547"/>
      <use xlink:href="#DejaVuSans-66" x="290.722656"/>
      <use xlink:href="#DejaVuSans-72" x="325.927734"/>
      <use xlink:href="#DejaVuSans-65" x="364.791016"/>
      <use xlink:href="#DejaVuSans-71" x="426.314453"/>
      <use xlink:href="#DejaVuSans-75" x="489.791016"/>
      <use xlink:href="#DejaVuSans-65" x="553.169922"/>
      <use xlink:href="#DejaVuSans-6e" x="614.693359"/>
      <use xlink:href="#DejaVuSans-63" x="678.072266"/>
      <use xlink:href="#DejaVuSans-79" x="733.052734"/>
      <use xlink:href="#DejaVuSans-20" x="792.232422"/>
      <use xlink:href="#DejaVuSans-28" x="824.019531"/>
      <use xlink:href="#DejaVuSans-48" x="863.033203"/>
      <use xlink:href="#DejaVuSans-7a" x="938.228516"/>
      <use xlink:href="#DejaVuSans-29" x="990.71875"/>
     </g>
    </g>
   </g>
   <g id="matplotlib.axis_2">
    <g id="ytick_1">
     <g id="line2d_13">
      <path d="M 51.05 290.994545 
L 450 290.994545 
" clip-path="url(#pb74c132dd4)" style="fill: none; stroke: #b0b0b0; stroke-width: 0.8; stroke-linecap: square"/>
     </g>
     <g id="line2d_14">
      <defs>
       <path id="m9a44d4cbb4" d="M 0 0 
L -3.5 0 
" style="stroke: #000000; stroke-width: 0.8"/>
      </defs>
      <g>
       <use xlink:href="#m9a44d4cbb4" x="51.05" y="290.994545" style="stroke: #000000; stroke-width: 0.8"/>
      </g>
     </g>
     <g id="text_8">
      <!-- 0 -->
      <g transform="translate(37.6875 294.793764)scale(0.1 -0.1)">
       <use xlink:href="#DejaVuSans-30"/>
      </g>
     </g>
    </g>
    <g id="ytick_2">
     <g id="line2d_15">
      <path d="M 51.05 252.905827 
L 450 252.905827 
" clip-path="url(#pb74c132dd4)" style="fill: none; stroke: #b0b0b0; stroke-width: 0.8; stroke-linecap: square"/>
     </g>
     <g id="line2d_16">
      <g>
       <use xlink:href="#m9a44d4cbb4" x="51.05" y="252.905827" style="stroke: #000000; stroke-width: 0.8"/>
      </g>
     </g>
     <g id="text_9">
      <!-- 25 -->
      <g transform="translate(31.325 256.705046)scale(0.1 -0.1)">
       <defs>
        <path id="DejaVuSans-35" d="M 691 4666 
L 3169 4666 
L 3169 4134 
L 1269 4134 
L 1269 2991 
Q 1406 3038 1543 3061 
Q 1681 3084 1819 3084 
Q 2600 3084 3056 2656 
Q 3513 2228 3513 1497 
Q 3513 744 3044 326 
Q 2575 -91 1722 -91 
Q 1428 -91 1123 -41 
Q 819 9 494 109 
L 494 744 
Q 775 591 1075 516 
Q 1375 441 1709 441 
Q 2250 441 2565 725 
Q 2881 1009 2881 1497 
Q 2881 1984 2565 2268 
Q 2250 2553 1709 2553 
Q 1456 2553 1204 2497 
Q 953 2441 691 2322 
L 691 4666 
z
" transform="scale(0.015625)"/>
       </defs>
       <use xlink:href="#DejaVuSans-32"/>
       <use xlink:href="#DejaVuSans-35" x="63.623047"/>
      </g>
     </g>
    </g>
    <g id="ytick_3">
     <g id="line2d_17">
      <path d="M 51.05 214.817108 
L 450 214.817108 
" clip-path="url(#pb74c132dd4)" style="fill: none; stroke: #b0b0b0; stroke-width: 0.8; stroke-linecap: square"/>
     </g>
     <g id="line2d_18">
      <g>
       <use xlink:href="#m9a44d4cbb4" x="51.05" y="214.817108" style="stroke: #000000; stroke-width: 0.8"/>
      </g>
     </g>
     <g id="text_10">
      <!-- 50 -->
      <g transform="translate(31.325 218.616327)scale(0.1 -0.1)">
       <use xlink:href="#DejaVuSans-35"/>
       <use xlink:href="#DejaVuSans-30" x="63.623047"/>
      </g>
     </g>
    </g>
    <g id="ytick_4">
     <g id="line2d_19">
      <path d="M 51.05 176.72839 
L 450 176.72839 
" clip-path="url(#pb74c132dd4)" style="fill: none; stroke: #b0b0b0; stroke-width: 0.8; stroke-linecap: square"/>
     </g>
     <g id="line2d_20">
      <g>
       <use xlink:href="#m9a44d4cbb4" x="51.05" y="176.72839" style="stroke: #000000; stroke-width: 0.8"/>
      </g>
     </g>
     <g id="text_11">
      <!-- 75 -->
      <g transform="translate(31.325 180.527609)scale(0.1 -0.1)">
       <defs>
        <path id="DejaVuSans-37" d="M 525 4666 
L 3525 4666 
L 3525 4397 
L 1831 0 
L 1172 0 
L 2766 4134 
L 525 4134 
L 525 4666 
z
" transform="scale(0.015625)"/>
       </defs>
       <use xlink:href="#DejaVuSans-37"/>
       <use xlink:href="#DejaVuSans-35" x="63.623047"/>
      </g>
     </g>
    </g>
    <g id="ytick_5">
     <g id="line2d_21">
      <path d="M 51.05 138.639671 
L 450 138.639671 
" clip-path="url(#pb74c132dd4)" style="fill: none; stroke: #b0b0b0; stroke-width: 0.8; stroke-linecap: square"/>
     </g>
     <g id="line2d_22">
      <g>
       <use xlink:href="#m9a44d4cbb4" x="51.05" y="138.639671" style="stroke: #000000; stroke-width: 0.8"/>
      </g>
     </g>
     <g id="text_12">
      <!-- 100 -->
      <g transform="translate(24.9625 142.43889)scale(0.1 -0.1)">
       <use xlink:href="#DejaVuSans-31"/>
       <use xlink:href="#DejaVuSans-30" x="63.623047"/>
       <use xlink:href="#DejaVuSans-30" x="127.246094"/>
      </g>
     </g>
    </g>
    <g id="ytick_6">
     <g id="line2d_23">
      <path d="M 51.05 100.550953 
L 450 100.550953 
" clip-path="url(#pb74c132dd4)" style="fill: none; stroke: #b0b0b0; stroke-width: 0.8; stroke-linecap: square"/>
     </g>
     <g id="line2d_24">
      <g>
       <use xlink:href="#m9a44d4cbb4" x="51.05" y="100.550953" style="stroke: #000000; stroke-width: 0.8"/>
      </g>
     </g>
     <g id="text_13">
      <!-- 125 -->
      <g transform="translate(24.9625 104.350172)scale(0.1 -0.1)">
       <use xlink:href="#DejaVuSans-31"/>
       <use xlink:href="#DejaVuSans-32" x="63.623047"/>
       <use xlink:href="#DejaVuSans-35" x="127.246094"/>
      </g>
     </g>
    </g>
    <g id="ytick_7">
     <g id="line2d_25">
      <path d="M 51.05 62.462234 
L 450 62.462234 
" clip-path="url(#pb74c132dd4)" style="fill: none; stroke: #b0b0b0; stroke-width: 0.8; stroke-linecap: square"/>
     </g>
     <g id="line2d_26">
      <g>
       <use xlink:href="#m9a44d4cbb4" x="51.05" y="62.462234" style="stroke: #000000; stroke-width: 0.8"/>
      </g>
     </g>
     <g id="text_14">
      <!-- 150 -->
      <g transform="translate(24.9625 66.261453)scale(0.1 -0.1)">
       <use xlink:href="#DejaVuSans-31"/>
       <use xlink:href="#DejaVuSans-35" x="63.623047"/>
       <use xlink:href="#DejaVuSans-30" x="127.246094"/>
      </g>
     </g>
    </g>
    <g id="text_15">
     <!-- Output frequency (Hz) -->
     <g transform="translate(18.882812 220.448594)rotate(-90)scale(0.1 -0.1)">
      <defs>
       <path id="DejaVuSans-4f" d="M 2522 4238 
Q 1834 4238 1429 3725 
Q 1025 3213 1025 2328 
Q 1025 1447 1429 934 
Q 1834 422 2522 422 
Q 3209 422 3611 934 
Q 4013 1447 4013 2328 
Q 4013 3213 3611 3725 
Q 3209 4238 2522 4238 
z
M 2522 4750 
Q 3503 4750 4090 4092 
Q 4678 3434 4678 2328 
Q 4678 1225 4090 567 
Q 3503 -91 2522 -91 
Q 1538 -91 948 565 
Q 359 1222 359 2328 
Q 359 3434 948 4092 
Q 1538 4750 2522 4750 
z
" transform="scale(0.015625)"/>
      </defs>
      <use xlink:href="#DejaVuSans-4f"/>
      <use xlink:href="#DejaVuSans-75" x="78.710938"/>
      <use xlink:href="#DejaVuSans-74" x="142.089844"/>
      <use xlink:href="#DejaVuSans-70" x="181.298828"/>
      <use xlink:href="#DejaVuSans-75" x="244.775391"/>
      <use xlink:href="#DejaVuSans-74" x="308.154297"/>
      <use xlink:href="#DejaVuSans-20" x="347.363281"/>
      <use xlink:href="#DejaVuSans-66" x="379.150391"/>
      <use xlink:href="#DejaVuSans-72" x="414.355469"/>
      <use xlink:href="#DejaVuSans-65" x="453.21875"/>
      <use xlink:href="#DejaVuSans-71" x="514.742188"/>
      <use xlink:href="#DejaVuSans-75" x="578.21875"/>
      <use xlink:href="#DejaVuSans-65" x="641.597656"/>
      <use xlink:href="#DejaVuSans-6e" x="703.121094"/>
      <use xlink:href="#DejaVuSans-63" x="766.5"/>
      <use xlink:href="#DejaVuSans-79" x="821.480469"/>
      <use xlink:href="#DejaVuSans-20" x="880.660156"/>
      <use xlink:href="#DejaVuSans-28" x="912.447266"/>
      <use xlink:href="#DejaVuSans-48" x="951.460938"/>
      <use xlink:href="#DejaVuSans-7a" x="1026.65625"/>
      <use xlink:href="#DejaVuSans-29" x="1079.146484"/>
     </g>
    </g>
   </g>
   <g id="line2d_27">
    <path d="M 69.184091 290.994545 
L 109.482071 290.994545 
L 149.780051 290.994545 
L 190.07803 290.994545 
L 230.37601 286.423899 
L 270.67399 275.759058 
L 310.97197 262.047119 
L 351.269949 252.905827 
L 391.567929 245.288083 
L 431.865909 239.193888 
" clip-path="url(#pb74c132dd4)" style="fill: none; stroke: #5f9ea0; stroke-width: 1.5; stroke-linecap: square"/>
   </g>
   <g id="line2d_28">
    <path d="M 69.184091 290.994545 
L 109.482071 290.994545 
L 149.780051 290.994545 
L 190.07803 286.423899 
L 230.37601 269.664863 
L 270.67399 257.476473 
L 310.97197 246.811632 
L 351.269949 236.146791 
L 391.567929 228.529047 
L 431.865909 222.434852 
" clip-path="url(#pb74c132dd4)" style="fill: none; stroke: #5f9ea0; stroke-width: 1.5; stroke-linecap: square"/>
   </g>
   <g id="line2d_29">
    <path d="M 69.184091 290.994545 
L 109.482071 290.994545 
L 149.780051 290.994545 
L 190.07803 277.282607 
L 230.37601 260.523571 
L 270.67399 246.811632 
L 310.97197 236.146791 
L 351.269949 225.48195 
L 391.567929 216.340657 
L 431.865909 211.770011 
" clip-path="url(#pb74c132dd4)" style="fill: none; stroke: #5f9ea0; stroke-width: 1.5; stroke-linecap: square"/>
   </g>
   <g id="line2d_30">
    <path d="M 69.184091 290.994545 
L 109.482071 290.994545 
L 149.780051 290.994545 
L 190.07803 289.470997 
L 230.37601 272.711961 
L 270.67399 259.000022 
L 310.97197 248.335181 
L 351.269949 236.146791 
L 391.567929 228.529047 
L 431.865909 220.911303 
" clip-path="url(#pb74c132dd4)" style="fill: none; stroke: #5f9ea0; stroke-width: 1.5; stroke-linecap: square"/>
   </g>
   <g id="line2d_31">
    <path d="M 69.184091 290.994545 
L 109.482071 290.994545 
L 149.780051 290.994545 
L 190.07803 283.376802 
L 230.37601 269.664863 
L 270.67399 252.905827 
L 310.97197 240.717437 
L 351.269949 231.576145 
L 391.567929 223.958401 
L 431.865909 214.817108 
" clip-path="url(#pb74c132dd4)" style="fill: none; stroke: #5f9ea0; stroke-width: 1.5; stroke-linecap: square"/>
   </g>
   <g id="line2d_32">
    <path d="M 69.184091 290.994545 
L 109.482071 290.994545 
L 149.780051 290.994545 
L 190.07803 290.994545 
L 230.37601 286.423899 
L 270.67399 274.235509 
L 310.97197 262.047119 
L 351.269949 251.382278 
L 391.567929 243.764535 
L 431.865909 236.146791 
" clip-path="url(#pb74c132dd4)" style="fill: none; stroke: #5f9ea0; stroke-width: 1.5; stroke-linecap: square"/>
   </g>
   <g id="line2d_33">
    <path d="M 69.184091 290.994545 
L 109.482071 290.994545 
L 149.780051 290.994545 
L 190.07803 290.994545 
L 230.37601 290.994545 
L 270.67399 286.423899 
L 310.97197 277.282607 
L 351.269949 269.664863 
L 391.567929 262.047119 
L 431.865909 254.429376 
" clip-path="url(#pb74c132dd4)" style="fill: none; stroke: #5f9ea0; stroke-width: 1.5; stroke-linecap: square"/>
   </g>
   <g id="line2d_34">
    <path d="M 69.184091 290.994545 
L 109.482071 290.994545 
L 149.780051 290.994545 
L 190.07803 283.376802 
L 230.37601 268.141314 
L 270.67399 254.429376 
L 310.97197 240.717437 
L 351.269949 233.099693 
L 391.567929 223.958401 
L 431.865909 214.817108 
" clip-path="url(#pb74c132dd4)" style="fill: none; stroke: #5f9ea0; stroke-width: 1.5; stroke-linecap: square"/>
   </g>
   <g id="line2d_35">
    <path d="M 69.184091 290.994545 
L 109.482071 290.994545 
L 149.780051 290.994545 
L 190.07803 284.90035 
L 230.37601 269.664863 
L 270.67399 254.429376 
L 310.97197 239.193888 
L 351.269949 233.099693 
L 391.567929 225.48195 
L 431.865909 216.340657 
" clip-path="url(#pb74c132dd4)" style="fill: none; stroke: #5f9ea0; stroke-width: 1.5; stroke-linecap: square"/>
   </g>
   <g id="line2d_36">
    <path d="M 69.184091 290.994545 
L 109.482071 290.994545 
L 149.780051 290.994545 
L 190.07803 290.994545 
L 230.37601 278.806156 
L 270.67399 265.094217 
L 310.97197 254.429376 
L 351.269949 243.764535 
L 391.567929 239.193888 
L 431.865909 228.529047 
" clip-path="url(#pb74c132dd4)" style="fill: none; stroke: #5f9ea0; stroke-width: 1.5; stroke-linecap: square"/>
   </g>
   <g id="line2d_37">
    <path d="M 69.184091 290.994545 
L 109.482071 290.994545 
L 149.780051 281.853253 
L 190.07803 266.617766 
L 230.37601 243.764535 
L 270.67399 228.529047 
L 310.97197 217.864206 
L 351.269949 205.675816 
L 391.567929 201.10517 
L 431.865909 193.487426 
" clip-path="url(#pb74c132dd4)" style="fill: none; stroke: #5f9ea0; stroke-width: 1.5; stroke-linecap: square"/>
   </g>
   <g id="line2d_38">
    <path d="M 69.184091 290.994545 
L 109.482071 290.994545 
L 149.780051 290.994545 
L 190.07803 290.994545 
L 230.37601 290.994545 
L 270.67399 290.994545 
L 310.97197 290.994545 
L 351.269949 290.994545 
L 391.567929 290.994545 
L 431.865909 290.994545 
" clip-path="url(#pb74c132dd4)" style="fill: none; stroke: #5f9ea0; stroke-width: 1.5; stroke-linecap: square"/>
   </g>
   <g id="line2d_39">
    <path d="M 69.184091 290.994545 
L 109.482071 290.994545 
L 149.780051 290.994545 
L 190.07803 290.994545 
L 230.37601 290.994545 
L 270.67399 283.376802 
L 310.97197 275.759058 
L 351.269949 268.141314 
L 391.567929 260.523571 
L 431.865909 255.952924 
" clip-path="url(#pb74c132dd4)" style="fill: none; stroke: #5f9ea0; stroke-width: 1.5; stroke-linecap: square"/>
   </g>
   <g id="line2d_40">
    <path d="M 69.184091 290.994545 
L 109.482071 290.994545 
L 149.780051 290.994545 
L 190.07803 290.994545 
L 230.37601 286.423899 
L 270.67399 275.759058 
L 310.97197 262.047119 
L 351.269949 252.905827 
L 391.567929 243.764535 
L 431.865909 236.146791 
" clip-path="url(#pb74c132dd4)" style="fill: none; stroke: #5f9ea0; stroke-width: 1.5; stroke-linecap: square"/>
   </g>
   <g id="line2d_41">
    <path d="M 69.184091 290.994545 
L 109.482071 290.994545 
L 149.780051 290.994545 
L 190.07803 290.994545 
L 230.37601 281.853253 
L 270.67399 269.664863 
L 310.97197 257.476473 
L 351.269949 245.288083 
L 391.567929 240.717437 
L 431.865909 234.623242 
" clip-path="url(#pb74c132dd4)" style="fill: none; stroke: #5f9ea0; stroke-width: 1.5; stroke-linecap: square"/>
   </g>
   <g id="line2d_42">
    <path d="M 69.184091 290.994545 
L 109.482071 290.994545 
L 149.780051 290.994545 
L 190.07803 287.947448 
L 230.37601 269.664863 
L 270.67399 254.429376 
L 310.97197 242.240986 
L 351.269949 233.099693 
L 391.567929 223.958401 
L 431.865909 216.340657 
" clip-path="url(#pb74c132dd4)" style="fill: none; stroke: #5f9ea0; stroke-width: 1.5; stroke-linecap: square"/>
   </g>
   <g id="line2d_43">
    <path d="M 69.184091 290.994545 
L 109.482071 290.994545 
L 149.780051 290.994545 
L 190.07803 277.282607 
L 230.37601 260.523571 
L 270.67399 246.811632 
L 310.97197 234.623242 
L 351.269949 223.958401 
L 391.567929 216.340657 
L 431.865909 211.770011 
" clip-path="url(#pb74c132dd4)" style="fill: none; stroke: #5f9ea0; stroke-width: 1.5; stroke-linecap: square"/>
   </g>
   <g id="line2d_44">
    <path d="M 69.184091 290.994545 
L 109.482071 290.994545 
L 149.780051 290.994545 
L 190.07803 290.994545 
L 230.37601 275.759058 
L 270.67399 262.047119 
L 310.97197 254.429376 
L 351.269949 243.764535 
L 391.567929 237.67034 
L 431.865909 228.529047 
" clip-path="url(#pb74c132dd4)" style="fill: none; stroke: #5f9ea0; stroke-width: 1.5; stroke-linecap: square"/>
   </g>
   <g id="line2d_45">
    <path d="M 69.184091 290.994545 
L 109.482071 290.994545 
L 149.780051 290.994545 
L 190.07803 289.470997 
L 230.37601 272.711961 
L 270.67399 259.000022 
L 310.97197 248.335181 
L 351.269949 236.146791 
L 391.567929 227.005498 
L 431.865909 217.864206 
" clip-path="url(#pb74c132dd4)" style="fill: none; stroke: #5f9ea0; stroke-width: 1.5; stroke-linecap: square"/>
   </g>
   <g id="line2d_46">
    <path d="M 69.184091 290.994545 
L 109.482071 290.994545 
L 149.780051 290.994545 
L 190.07803 281.853253 
L 230.37601 265.094217 
L 270.67399 249.858729 
L 310.97197 236.146791 
L 351.269949 227.005498 
L 391.567929 223.958401 
L 431.865909 214.817108 
" clip-path="url(#pb74c132dd4)" style="fill: none; stroke: #5f9ea0; stroke-width: 1.5; stroke-linecap: square"/>
   </g>
   <g id="line2d_47">
    <path d="M 69.184091 290.994545 
L 109.482071 290.994545 
L 149.780051 290.994545 
L 190.07803 290.994545 
L 230.37601 283.376802 
L 270.67399 271.188412 
L 310.97197 260.523571 
L 351.269949 251.382278 
L 391.567929 245.288083 
L 431.865909 236.146791 
" clip-path="url(#pb74c132dd4)" style="fill: none; stroke: #5f9ea0; stroke-width: 1.5; stroke-linecap: square"/>
   </g>
   <g id="line2d_48">
    <path d="M 69.184091 290.994545 
L 109.482071 290.994545 
L 149.780051 290.994545 
L 190.07803 290.994545 
L 230.37601 284.90035 
L 270.67399 272.711961 
L 310.97197 262.047119 
L 351.269949 252.905827 
L 391.567929 243.764535 
L 431.865909 236.146791 
" clip-path="url(#pb74c132dd4)" style="fill: none; stroke: #5f9ea0; stroke-width: 1.5; stroke-linecap: square"/>
   </g>
   <g id="line2d_49">
    <path d="M 69.184091 290.994545 
L 109.482071 290.994545 
L 149.780051 290.994545 
L 190.07803 290.994545 
L 230.37601 277.282607 
L 270.67399 263.570668 
L 310.97197 254.429376 
L 351.269949 243.764535 
L 391.567929 239.193888 
L 431.865909 230.052596 
" clip-path="url(#pb74c132dd4)" style="fill: none; stroke: #5f9ea0; stroke-width: 1.5; stroke-linecap: square"/>
   </g>
   <g id="line2d_50">
    <path d="M 69.184091 290.994545 
L 109.482071 290.994545 
L 149.780051 290.994545 
L 190.07803 290.994545 
L 230.37601 277.282607 
L 270.67399 262.047119 
L 310.97197 249.858729 
L 351.269949 239.193888 
L 391.567929 233.099693 
L 431.865909 227.005498 
" clip-path="url(#pb74c132dd4)" style="fill: none; stroke: #5f9ea0; stroke-width: 1.5; stroke-linecap: square"/>
   </g>
   <g id="line2d_51">
    <path d="M 69.184091 290.994545 
L 109.482071 290.994545 
L 149.780051 290.994545 
L 190.07803 289.470997 
L 230.37601 272.711961 
L 270.67399 259.000022 
L 310.97197 248.335181 
L 351.269949 239.193888 
L 391.567929 231.576145 
L 431.865909 223.958401 
" clip-path="url(#pb74c132dd4)" style="fill: none; stroke: #5f9ea0; stroke-width: 1.5; stroke-linecap: square"/>
   </g>
   <g id="line2d_52">
    <path d="M 69.184091 290.994545 
L 109.482071 290.994545 
L 149.780051 290.994545 
L 190.07803 290.994545 
L 230.37601 286.423899 
L 270.67399 275.759058 
L 310.97197 263.570668 
L 351.269949 252.905827 
L 391.567929 243.764535 
L 431.865909 236.146791 
" clip-path="url(#pb74c132dd4)" style="fill: none; stroke: #5f9ea0; stroke-width: 1.5; stroke-linecap: square"/>
   </g>
   <g id="line2d_53">
    <path d="M 69.184091 290.994545 
L 109.482071 290.994545 
L 149.780051 290.994545 
L 190.07803 290.994545 
L 230.37601 275.759058 
L 270.67399 262.047119 
L 310.97197 248.335181 
L 351.269949 239.193888 
L 391.567929 231.576145 
L 431.865909 223.958401 
" clip-path="url(#pb74c132dd4)" style="fill: none; stroke: #5f9ea0; stroke-width: 1.5; stroke-linecap: square"/>
   </g>
   <g id="line2d_54">
    <path d="M 69.184091 290.994545 
L 109.482071 290.994545 
L 149.780051 290.994545 
L 190.07803 290.994545 
L 230.37601 281.853253 
L 270.67399 266.617766 
L 310.97197 254.429376 
L 351.269949 243.764535 
L 391.567929 237.67034 
L 431.865909 228.529047 
" clip-path="url(#pb74c132dd4)" style="fill: none; stroke: #5f9ea0; stroke-width: 1.5; stroke-linecap: square"/>
   </g>
   <g id="line2d_55">
    <path d="M 69.184091 290.994545 
L 109.482071 290.994545 
L 149.780051 290.994545 
L 190.07803 283.376802 
L 230.37601 265.094217 
L 270.67399 249.858729 
L 310.97197 236.146791 
L 351.269949 227.005498 
L 391.567929 220.911303 
L 431.865909 211.770011 
" clip-path="url(#pb74c132dd4)" style="fill: none; stroke: #5f9ea0; stroke-width: 1.5; stroke-linecap: square"/>
   </g>
   <g id="line2d_56">
    <path d="M 69.184091 290.994545 
L 109.482071 290.994545 
L 149.780051 286.423899 
L 190.07803 269.664863 
L 230.37601 249.858729 
L 270.67399 234.623242 
L 310.97197 222.434852 
L 351.269949 211.770011 
L 391.567929 208.722913 
L 431.865909 199.581621 
" clip-path="url(#pb74c132dd4)" style="fill: none; stroke: #5f9ea0; stroke-width: 1.5; stroke-linecap: square"/>
   </g>
   <g id="line2d_57">
    <path d="M 69.184091 290.994545 
L 109.482071 290.994545 
L 149.780051 290.994545 
L 190.07803 290.994545 
L 230.37601 287.947448 
L 270.67399 277.282607 
L 310.97197 268.141314 
L 351.269949 260.523571 
L 391.567929 251.382278 
L 431.865909 243.764535 
" clip-path="url(#pb74c132dd4)" style="fill: none; stroke: #5f9ea0; stroke-width: 1.5; stroke-linecap: square"/>
   </g>
   <g id="line2d_58">
    <path d="M 69.184091 290.994545 
L 109.482071 290.994545 
L 149.780051 290.994545 
L 190.07803 281.853253 
L 230.37601 262.047119 
L 270.67399 246.811632 
L 310.97197 236.146791 
L 351.269949 222.434852 
L 391.567929 213.29356 
L 431.865909 205.675816 
" clip-path="url(#pb74c132dd4)" style="fill: none; stroke: #5f9ea0; stroke-width: 1.5; stroke-linecap: square"/>
   </g>
   <g id="line2d_59">
    <path d="M 69.184091 290.994545 
L 109.482071 290.994545 
L 149.780051 290.994545 
L 190.07803 283.376802 
L 230.37601 265.094217 
L 270.67399 251.382278 
L 310.97197 236.146791 
L 351.269949 230.052596 
L 391.567929 222.434852 
L 431.865909 213.29356 
" clip-path="url(#pb74c132dd4)" style="fill: none; stroke: #5f9ea0; stroke-width: 1.5; stroke-linecap: square"/>
   </g>
   <g id="line2d_60">
    <path d="M 69.184091 290.994545 
L 109.482071 290.994545 
L 149.780051 290.994545 
L 190.07803 277.282607 
L 230.37601 259.000022 
L 270.67399 246.811632 
L 310.97197 234.623242 
L 351.269949 222.434852 
L 391.567929 216.340657 
L 431.865909 210.246462 
" clip-path="url(#pb74c132dd4)" style="fill: none; stroke: #5f9ea0; stroke-width: 1.5; stroke-linecap: square"/>
   </g>
   <g id="line2d_61">
    <path d="M 69.184091 290.994545 
L 109.482071 290.994545 
L 149.780051 290.994545 
L 190.07803 290.994545 
L 230.37601 289.470997 
L 270.67399 277.282607 
L 310.97197 268.141314 
L 351.269949 259.000022 
L 391.567929 251.382278 
L 431.865909 243.764535 
" clip-path="url(#pb74c132dd4)" style="fill: none; stroke: #5f9ea0; stroke-width: 1.5; stroke-linecap: square"/>
   </g>
   <g id="line2d_62">
    <path d="M 69.184091 290.994545 
L 109.482071 290.994545 
L 149.780051 290.994545 
L 190.07803 277.282607 
L 230.37601 259.000022 
L 270.67399 242.240986 
L 310.97197 228.529047 
L 351.269949 217.864206 
L 391.567929 208.722913 
L 431.865909 201.10517 
" clip-path="url(#pb74c132dd4)" style="fill: none; stroke: #5f9ea0; stroke-width: 1.5; stroke-linecap: square"/>
   </g>
   <g id="line2d_63">
    <path d="M 69.184091 290.994545 
L 109.482071 290.994545 
L 149.780051 290.994545 
L 190.07803 289.470997 
L 230.37601 272.711961 
L 270.67399 259.000022 
L 310.97197 248.335181 
L 351.269949 239.193888 
L 391.567929 231.576145 
L 431.865909 225.48195 
" clip-path="url(#pb74c132dd4)" style="fill: none; stroke: #5f9ea0; stroke-width: 1.5; stroke-linecap: square"/>
   </g>
   <g id="line2d_64">
    <path d="M 69.184091 290.994545 
L 109.482071 290.994545 
L 149.780051 290.994545 
L 190.07803 281.853253 
L 230.37601 262.047119 
L 270.67399 246.811632 
L 310.97197 236.146791 
L 351.269949 222.434852 
L 391.567929 217.864206 
L 431.865909 211.770011 
" clip-path="url(#pb74c132dd4)" style="fill: none; stroke: #5f9ea0; stroke-width: 1.5; stroke-linecap: square"/>
   </g>
   <g id="line2d_65">
    <path d="M 69.184091 290.994545 
L 109.482071 290.994545 
L 149.780051 290.994545 
L 190.07803 290.994545 
L 230.37601 278.806156 
L 270.67399 265.094217 
L 310.97197 254.429376 
L 351.269949 243.764535 
L 391.567929 237.67034 
L 431.865909 228.529047 
" clip-path="url(#pb74c132dd4)" style="fill: none; stroke: #5f9ea0; stroke-width: 1.5; stroke-linecap: square"/>
   </g>
   <g id="line2d_66">
    <path d="M 69.184091 290.994545 
L 109.482071 290.994545 
L 149.780051 290.994545 
L 190.07803 278.806156 
L 230.37601 260.523571 
L 270.67399 246.811632 
L 310.97197 236.146791 
L 351.269949 225.48195 
L 391.567929 219.387755 
L 431.865909 211.770011 
" clip-path="url(#pb74c132dd4)" style="fill: none; stroke: #5f9ea0; stroke-width: 1.5; stroke-linecap: square"/>
   </g>
   <g id="line2d_67">
    <path d="M 69.184091 290.994545 
L 109.482071 290.994545 
L 149.780051 290.994545 
L 190.07803 283.376802 
L 230.37601 269.664863 
L 270.67399 254.429376 
L 310.97197 240.717437 
L 351.269949 233.099693 
L 391.567929 223.958401 
L 431.865909 216.340657 
" clip-path="url(#pb74c132dd4)" style="fill: none; stroke: #5f9ea0; stroke-width: 1.5; stroke-linecap: square"/>
   </g>
   <g id="line2d_68">
    <path d="M 69.184091 290.994545 
L 109.482071 290.994545 
L 149.780051 290.994545 
L 190.07803 290.994545 
L 230.37601 287.947448 
L 270.67399 277.282607 
L 310.97197 268.141314 
L 351.269949 259.000022 
L 391.567929 251.382278 
L 431.865909 243.764535 
" clip-path="url(#pb74c132dd4)" style="fill: none; stroke: #5f9ea0; stroke-width: 1.5; stroke-linecap: square"/>
   </g>
   <g id="line2d_69">
    <path d="M 69.184091 290.994545 
L 109.482071 290.994545 
L 149.780051 290.994545 
L 190.07803 290.994545 
L 230.37601 286.423899 
L 270.67399 275.759058 
L 310.97197 266.617766 
L 351.269949 254.429376 
L 391.567929 248.335181 
L 431.865909 240.717437 
" clip-path="url(#pb74c132dd4)" style="fill: none; stroke: #5f9ea0; stroke-width: 1.5; stroke-linecap: square"/>
   </g>
   <g id="line2d_70">
    <path d="M 69.184091 290.994545 
L 109.482071 290.994545 
L 149.780051 290.994545 
L 190.07803 286.423899 
L 230.37601 272.711961 
L 270.67399 260.523571 
L 310.97197 249.858729 
L 351.269949 239.193888 
L 391.567929 234.623242 
L 431.865909 227.005498 
" clip-path="url(#pb74c132dd4)" style="fill: none; stroke: #5f9ea0; stroke-width: 1.5; stroke-linecap: square"/>
   </g>
   <g id="line2d_71">
    <path d="M 69.184091 290.994545 
L 109.482071 290.994545 
L 149.780051 290.994545 
L 190.07803 290.994545 
L 230.37601 290.994545 
L 270.67399 281.853253 
L 310.97197 274.235509 
L 351.269949 265.094217 
L 391.567929 259.000022 
L 431.865909 252.905827 
" clip-path="url(#pb74c132dd4)" style="fill: none; stroke: #5f9ea0; stroke-width: 1.5; stroke-linecap: square"/>
   </g>
   <g id="line2d_72">
    <path d="M 69.184091 290.994545 
L 109.482071 290.994545 
L 149.780051 290.994545 
L 190.07803 290.994545 
L 230.37601 284.90035 
L 270.67399 275.759058 
L 310.97197 263.570668 
L 351.269949 252.905827 
L 391.567929 243.764535 
L 431.865909 237.67034 
" clip-path="url(#pb74c132dd4)" style="fill: none; stroke: #5f9ea0; stroke-width: 1.5; stroke-linecap: square"/>
   </g>
   <g id="line2d_73">
    <path d="M 69.184091 290.994545 
L 109.482071 290.994545 
L 149.780051 290.994545 
L 190.07803 284.90035 
L 230.37601 268.141314 
L 270.67399 252.905827 
L 310.97197 236.146791 
L 351.269949 225.48195 
L 391.567929 219.387755 
L 431.865909 213.29356 
" clip-path="url(#pb74c132dd4)" style="fill: none; stroke: #5f9ea0; stroke-width: 1.5; stroke-linecap: square"/>
   </g>
   <g id="line2d_74">
    <path d="M 69.184091 290.994545 
L 109.482071 290.994545 
L 149.780051 290.994545 
L 190.07803 290.994545 
L 230.37601 277.282607 
L 270.67399 262.047119 
L 310.97197 254.429376 
L 351.269949 242.240986 
L 391.567929 237.67034 
L 431.865909 228.529047 
" clip-path="url(#pb74c132dd4)" style="fill: none; stroke: #5f9ea0; stroke-width: 1.5; stroke-linecap: square"/>
   </g>
   <g id="line2d_75">
    <path d="M 69.184091 290.994545 
L 109.482071 290.994545 
L 149.780051 290.994545 
L 190.07803 290.994545 
L 230.37601 280.329704 
L 270.67399 266.617766 
L 310.97197 257.476473 
L 351.269949 243.764535 
L 391.567929 239.193888 
L 431.865909 231.576145 
" clip-path="url(#pb74c132dd4)" style="fill: none; stroke: #5f9ea0; stroke-width: 1.5; stroke-linecap: square"/>
   </g>
   <g id="line2d_76">
    <path d="M 69.184091 290.994545 
L 109.482071 290.994545 
L 149.780051 290.994545 
L 190.07803 290.994545 
L 230.37601 289.470997 
L 270.67399 278.806156 
L 310.97197 268.141314 
L 351.269949 260.523571 
L 391.567929 252.905827 
L 431.865909 245.288083 
" clip-path="url(#pb74c132dd4)" style="fill: none; stroke: #5f9ea0; stroke-width: 1.5; stroke-linecap: square"/>
   </g>
   <g id="line2d_77">
    <path d="M 69.184091 290.994545 
L 109.482071 290.994545 
L 149.780051 286.423899 
L 190.07803 271.188412 
L 230.37601 251.382278 
L 270.67399 236.146791 
L 310.97197 223.958401 
L 351.269949 214.817108 
L 391.567929 207.199365 
L 431.865909 201.10517 
" clip-path="url(#pb74c132dd4)" style="fill: none; stroke: #5f9ea0; stroke-width: 1.5; stroke-linecap: square"/>
   </g>
   <g id="line2d_78">
    <path d="M 69.184091 290.994545 
L 109.482071 290.994545 
L 149.780051 290.994545 
L 190.07803 290.994545 
L 230.37601 277.282607 
L 270.67399 265.094217 
L 310.97197 254.429376 
L 351.269949 243.764535 
L 391.567929 239.193888 
L 431.865909 228.529047 
" clip-path="url(#pb74c132dd4)" style="fill: none; stroke: #5f9ea0; stroke-width: 1.5; stroke-linecap: square"/>
   </g>
   <g id="line2d_79">
    <path d="M 69.184091 290.994545 
L 109.482071 290.994545 
L 149.780051 290.994545 
L 190.07803 290.994545 
L 230.37601 286.423899 
L 270.67399 277.282607 
L 310.97197 268.141314 
L 351.269949 259.000022 
L 391.567929 252.905827 
L 431.865909 246.811632 
" clip-path="url(#pb74c132dd4)" style="fill: none; stroke: #5f9ea0; stroke-width: 1.5; stroke-linecap: square"/>
   </g>
   <g id="line2d_80">
    <path d="M 69.184091 290.994545 
L 109.482071 290.994545 
L 149.780051 290.994545 
L 190.07803 290.994545 
L 230.37601 278.806156 
L 270.67399 265.094217 
L 310.97197 254.429376 
L 351.269949 243.764535 
L 391.567929 239.193888 
L 431.865909 228.529047 
" clip-path="url(#pb74c132dd4)" style="fill: none; stroke: #5f9ea0; stroke-width: 1.5; stroke-linecap: square"/>
   </g>
   <g id="line2d_81">
    <path d="M 69.184091 290.994545 
L 109.482071 290.994545 
L 149.780051 290.994545 
L 190.07803 290.994545 
L 230.37601 272.711961 
L 270.67399 260.523571 
L 310.97197 248.335181 
L 351.269949 237.67034 
L 391.567929 228.529047 
L 431.865909 220.911303 
" clip-path="url(#pb74c132dd4)" style="fill: none; stroke: #5f9ea0; stroke-width: 1.5; stroke-linecap: square"/>
   </g>
   <g id="line2d_82">
    <path d="M 69.184091 290.994545 
L 109.482071 290.994545 
L 149.780051 290.994545 
L 190.07803 287.947448 
L 230.37601 272.711961 
L 270.67399 257.476473 
L 310.97197 249.858729 
L 351.269949 239.193888 
L 391.567929 228.529047 
L 431.865909 222.434852 
" clip-path="url(#pb74c132dd4)" style="fill: none; stroke: #5f9ea0; stroke-width: 1.5; stroke-linecap: square"/>
   </g>
   <g id="line2d_83">
    <path d="M 69.184091 290.994545 
L 109.482071 290.994545 
L 149.780051 290.994545 
L 190.07803 283.376802 
L 230.37601 266.617766 
L 270.67399 252.905827 
L 310.97197 236.146791 
L 351.269949 225.48195 
L 391.567929 220.911303 
L 431.865909 211.770011 
" clip-path="url(#pb74c132dd4)" style="fill: none; stroke: #5f9ea0; stroke-width: 1.5; stroke-linecap: square"/>
   </g>
   <g id="line2d_84">
    <path d="M 69.184091 290.994545 
L 109.482071 290.994545 
L 149.780051 290.994545 
L 190.07803 290.994545 
L 230.37601 275.759058 
L 270.67399 262.047119 
L 310.97197 254.429376 
L 351.269949 243.764535 
L 391.567929 236.146791 
L 431.865909 227.005498 
" clip-path="url(#pb74c132dd4)" style="fill: none; stroke: #5f9ea0; stroke-width: 1.5; stroke-linecap: square"/>
   </g>
   <g id="line2d_85">
    <path d="M 69.184091 290.994545 
L 109.482071 290.994545 
L 149.780051 289.470997 
L 190.07803 275.759058 
L 230.37601 257.476473 
L 270.67399 245.288083 
L 310.97197 233.099693 
L 351.269949 220.911303 
L 391.567929 214.817108 
L 431.865909 208.722913 
" clip-path="url(#pb74c132dd4)" style="fill: none; stroke: #5f9ea0; stroke-width: 1.5; stroke-linecap: square"/>
   </g>
   <g id="line2d_86">
    <path d="M 69.184091 290.994545 
L 109.482071 290.994545 
L 149.780051 290.994545 
L 190.07803 290.994545 
L 230.37601 286.423899 
L 270.67399 275.759058 
L 310.97197 263.570668 
L 351.269949 254.429376 
L 391.567929 248.335181 
L 431.865909 239.193888 
" clip-path="url(#pb74c132dd4)" style="fill: none; stroke: #5f9ea0; stroke-width: 1.5; stroke-linecap: square"/>
   </g>
   <g id="line2d_87">
    <path d="M 69.184091 290.994545 
L 109.482071 290.994545 
L 149.780051 290.994545 
L 190.07803 283.376802 
L 230.37601 265.094217 
L 270.67399 248.335181 
L 310.97197 236.146791 
L 351.269949 225.48195 
L 391.567929 217.864206 
L 431.865909 211.770011 
" clip-path="url(#pb74c132dd4)" style="fill: none; stroke: #5f9ea0; stroke-width: 1.5; stroke-linecap: square"/>
   </g>
   <g id="line2d_88">
    <path d="M 69.184091 290.994545 
L 109.482071 290.994545 
L 149.780051 290.994545 
L 190.07803 277.282607 
L 230.37601 260.523571 
L 270.67399 246.811632 
L 310.97197 234.623242 
L 351.269949 223.958401 
L 391.567929 216.340657 
L 431.865909 210.246462 
" clip-path="url(#pb74c132dd4)" style="fill: none; stroke: #5f9ea0; stroke-width: 1.5; stroke-linecap: square"/>
   </g>
   <g id="line2d_89">
    <path d="M 69.184091 290.994545 
L 109.482071 290.994545 
L 149.780051 290.994545 
L 190.07803 290.994545 
L 230.37601 272.711961 
L 270.67399 260.523571 
L 310.97197 248.335181 
L 351.269949 237.67034 
L 391.567929 227.005498 
L 431.865909 222.434852 
" clip-path="url(#pb74c132dd4)" style="fill: none; stroke: #5f9ea0; stroke-width: 1.5; stroke-linecap: square"/>
   </g>
   <g id="line2d_90">
    <path d="M 69.184091 290.994545 
L 109.482071 290.994545 
L 149.780051 290.994545 
L 190.07803 283.376802 
L 230.37601 265.094217 
L 270.67399 251.382278 
L 310.97197 237.67034 
L 351.269949 230.052596 
L 391.567929 222.434852 
L 431.865909 213.29356 
" clip-path="url(#pb74c132dd4)" style="fill: none; stroke: #5f9ea0; stroke-width: 1.5; stroke-linecap: square"/>
   </g>
   <g id="line2d_91">
    <path d="M 69.184091 290.994545 
L 109.482071 290.994545 
L 149.780051 290.994545 
L 190.07803 290.994545 
L 230.37601 275.759058 
L 270.67399 262.047119 
L 310.97197 249.858729 
L 351.269949 237.67034 
L 391.567929 230.052596 
L 431.865909 223.958401 
" clip-path="url(#pb74c132dd4)" style="fill: none; stroke: #5f9ea0; stroke-width: 1.5; stroke-linecap: square"/>
   </g>
   <g id="line2d_92">
    <path d="M 69.184091 290.994545 
L 109.482071 290.994545 
L 149.780051 290.994545 
L 190.07803 290.994545 
L 230.37601 277.282607 
L 270.67399 265.094217 
L 310.97197 254.429376 
L 351.269949 243.764535 
L 391.567929 239.193888 
L 431.865909 230.052596 
" clip-path="url(#pb74c132dd4)" style="fill: none; stroke: #5f9ea0; stroke-width: 1.5; stroke-linecap: square"/>
   </g>
   <g id="line2d_93">
    <path d="M 69.184091 290.994545 
L 109.482071 290.994545 
L 149.780051 290.994545 
L 190.07803 286.423899 
L 230.37601 272.711961 
L 270.67399 259.000022 
L 310.97197 248.335181 
L 351.269949 236.146791 
L 391.567929 227.005498 
L 431.865909 220.911303 
" clip-path="url(#pb74c132dd4)" style="fill: none; stroke: #5f9ea0; stroke-width: 1.5; stroke-linecap: square"/>
   </g>
   <g id="line2d_94">
    <path d="M 69.184091 290.994545 
L 109.482071 290.994545 
L 149.780051 289.470997 
L 190.07803 275.759058 
L 230.37601 255.952924 
L 270.67399 243.764535 
L 310.97197 233.099693 
L 351.269949 222.434852 
L 391.567929 216.340657 
L 431.865909 210.246462 
" clip-path="url(#pb74c132dd4)" style="fill: none; stroke: #5f9ea0; stroke-width: 1.5; stroke-linecap: square"/>
   </g>
   <g id="line2d_95">
    <path d="M 69.184091 290.994545 
L 109.482071 290.994545 
L 149.780051 290.994545 
L 190.07803 281.853253 
L 230.37601 263.570668 
L 270.67399 248.335181 
L 310.97197 236.146791 
L 351.269949 225.48195 
L 391.567929 217.864206 
L 431.865909 211.770011 
" clip-path="url(#pb74c132dd4)" style="fill: none; stroke: #5f9ea0; stroke-width: 1.5; stroke-linecap: square"/>
   </g>
   <g id="line2d_96">
    <path d="M 69.184091 290.994545 
L 109.482071 290.994545 
L 149.780051 290.994545 
L 190.07803 290.994545 
L 230.37601 284.90035 
L 270.67399 271.188412 
L 310.97197 262.047119 
L 351.269949 251.382278 
L 391.567929 243.764535 
L 431.865909 234.623242 
" clip-path="url(#pb74c132dd4)" style="fill: none; stroke: #5f9ea0; stroke-width: 1.5; stroke-linecap: square"/>
   </g>
   <g id="line2d_97">
    <path d="M 69.184091 290.994545 
L 109.482071 290.994545 
L 149.780051 290.994545 
L 190.07803 283.376802 
L 230.37601 265.094217 
L 270.67399 249.858729 
L 310.97197 236.146791 
L 351.269949 225.48195 
L 391.567929 219.387755 
L 431.865909 211.770011 
" clip-path="url(#pb74c132dd4)" style="fill: none; stroke: #5f9ea0; stroke-width: 1.5; stroke-linecap: square"/>
   </g>
   <g id="line2d_98">
    <path d="M 69.184091 290.994545 
L 109.482071 290.994545 
L 149.780051 290.994545 
L 190.07803 290.994545 
L 230.37601 281.853253 
L 270.67399 269.664863 
L 310.97197 259.000022 
L 351.269949 249.858729 
L 391.567929 242.240986 
L 431.865909 234.623242 
" clip-path="url(#pb74c132dd4)" style="fill: none; stroke: #5f9ea0; stroke-width: 1.5; stroke-linecap: square"/>
   </g>
   <g id="line2d_99">
    <path d="M 69.184091 290.994545 
L 109.482071 290.994545 
L 149.780051 290.994545 
L 190.07803 284.90035 
L 230.37601 269.664863 
L 270.67399 257.476473 
L 310.97197 248.335181 
L 351.269949 239.193888 
L 391.567929 231.576145 
L 431.865909 225.48195 
" clip-path="url(#pb74c132dd4)" style="fill: none; stroke: #5f9ea0; stroke-width: 1.5; stroke-linecap: square"/>
   </g>
   <g id="line2d_100">
    <path d="M 69.184091 290.994545 
L 109.482071 290.994545 
L 149.780051 290.994545 
L 190.07803 277.282607 
L 230.37601 260.523571 
L 270.67399 245.288083 
L 310.97197 233.099693 
L 351.269949 220.911303 
L 391.567929 211.770011 
L 431.865909 205.675816 
" clip-path="url(#pb74c132dd4)" style="fill: none; stroke: #5f9ea0; stroke-width: 1.5; stroke-linecap: square"/>
   </g>
   <g id="line2d_101">
    <path d="M 69.184091 290.994545 
L 109.482071 290.994545 
L 149.780051 290.994545 
L 190.07803 283.376802 
L 230.37601 266.617766 
L 270.67399 249.858729 
L 310.97197 236.146791 
L 351.269949 230.052596 
L 391.567929 223.958401 
L 431.865909 214.817108 
" clip-path="url(#pb74c132dd4)" style="fill: none; stroke: #5f9ea0; stroke-width: 1.5; stroke-linecap: square"/>
   </g>
   <g id="line2d_102">
    <path d="M 69.184091 290.994545 
L 109.482071 290.994545 
L 149.780051 290.994545 
L 190.07803 281.853253 
L 230.37601 262.047119 
L 270.67399 246.811632 
L 310.97197 236.146791 
L 351.269949 223.958401 
L 391.567929 214.817108 
L 431.865909 207.199365 
" clip-path="url(#pb74c132dd4)" style="fill: none; stroke: #5f9ea0; stroke-width: 1.5; stroke-linecap: square"/>
   </g>
   <g id="line2d_103">
    <path d="M 69.184091 290.994545 
L 109.482071 290.994545 
L 149.780051 290.994545 
L 190.07803 290.994545 
L 230.37601 278.806156 
L 270.67399 263.570668 
L 310.97197 251.382278 
L 351.269949 242.240986 
L 391.567929 234.623242 
L 431.865909 227.005498 
" clip-path="url(#pb74c132dd4)" style="fill: none; stroke: #5f9ea0; stroke-width: 1.5; stroke-linecap: square"/>
   </g>
   <g id="line2d_104">
    <path d="M 69.184091 290.994545 
L 109.482071 290.994545 
L 149.780051 290.994545 
L 190.07803 290.994545 
L 230.37601 289.470997 
L 270.67399 278.806156 
L 310.97197 268.141314 
L 351.269949 260.523571 
L 391.567929 251.382278 
L 431.865909 243.764535 
" clip-path="url(#pb74c132dd4)" style="fill: none; stroke: #5f9ea0; stroke-width: 1.5; stroke-linecap: square"/>
   </g>
   <g id="line2d_105">
    <path d="M 69.184091 290.994545 
L 109.482071 290.994545 
L 149.780051 290.994545 
L 190.07803 290.994545 
L 230.37601 275.759058 
L 270.67399 262.047119 
L 310.97197 249.858729 
L 351.269949 239.193888 
L 391.567929 231.576145 
L 431.865909 223.958401 
" clip-path="url(#pb74c132dd4)" style="fill: none; stroke: #5f9ea0; stroke-width: 1.5; stroke-linecap: square"/>
   </g>
   <g id="line2d_106">
    <path d="M 69.184091 290.994545 
L 109.482071 290.994545 
L 149.780051 290.994545 
L 190.07803 286.423899 
L 230.37601 272.711961 
L 270.67399 259.000022 
L 310.97197 248.335181 
L 351.269949 239.193888 
L 391.567929 230.052596 
L 431.865909 223.958401 
" clip-path="url(#pb74c132dd4)" style="fill: none; stroke: #5f9ea0; stroke-width: 1.5; stroke-linecap: square"/>
   </g>
   <g id="line2d_107">
    <path d="M 69.184091 290.994545 
L 109.482071 290.994545 
L 149.780051 290.994545 
L 190.07803 290.994545 
L 230.37601 290.994545 
L 270.67399 290.994545 
L 310.97197 290.994545 
L 351.269949 290.994545 
L 391.567929 290.994545 
L 431.865909 290.994545 
" clip-path="url(#pb74c132dd4)" style="fill: none; stroke: #ff0000; stroke-width: 1.5; stroke-linecap: square"/>
   </g>
   <g id="line2d_108">
    <path d="M 69.184091 290.994545 
L 109.482071 290.994545 
L 149.780051 290.994545 
L 190.07803 289.470997 
L 230.37601 287.947448 
L 270.67399 290.994545 
L 310.97197 287.947448 
L 351.269949 287.947448 
L 391.567929 286.423899 
L 431.865909 286.423899 
" clip-path="url(#pb74c132dd4)" style="fill: none; stroke: #ff0000; stroke-width: 1.5; stroke-linecap: square"/>
   </g>
   <g id="line2d_109">
    <path d="M 69.184091 290.994545 
L 109.482071 290.994545 
L 149.780051 290.994545 
L 190.07803 289.470997 
L 230.37601 289.470997 
L 270.67399 287.947448 
L 310.97197 289.470997 
L 351.269949 287.947448 
L 391.567929 286.423899 
L 431.865909 286.423899 
" clip-path="url(#pb74c132dd4)" style="fill: none; stroke: #ff0000; stroke-width: 1.5; stroke-linecap: square"/>
   </g>
   <g id="line2d_110">
    <path d="M 69.184091 290.994545 
L 109.482071 290.994545 
L 149.780051 290.994545 
L 190.07803 287.947448 
L 230.37601 289.470997 
L 270.67399 289.470997 
L 310.97197 286.423899 
L 351.269949 287.947448 
L 391.567929 286.423899 
L 431.865909 286.423899 
" clip-path="url(#pb74c132dd4)" style="fill: none; stroke: #ff0000; stroke-width: 1.5; stroke-linecap: square"/>
   </g>
   <g id="line2d_111">
    <path d="M 69.184091 290.994545 
L 109.482071 290.994545 
L 149.780051 290.994545 
L 190.07803 289.470997 
L 230.37601 289.470997 
L 270.67399 287.947448 
L 310.97197 287.947448 
L 351.269949 286.423899 
L 391.567929 287.947448 
L 431.865909 287.947448 
" clip-path="url(#pb74c132dd4)" style="fill: none; stroke: #ff0000; stroke-width: 1.5; stroke-linecap: square"/>
   </g>
   <g id="line2d_112">
    <path d="M 69.184091 290.994545 
L 109.482071 290.994545 
L 149.780051 290.994545 
L 190.07803 286.423899 
L 230.37601 289.470997 
L 270.67399 286.423899 
L 310.97197 286.423899 
L 351.269949 284.90035 
L 391.567929 284.90035 
L 431.865909 284.90035 
" clip-path="url(#pb74c132dd4)" style="fill: none; stroke: #ff0000; stroke-width: 1.5; stroke-linecap: square"/>
   </g>
   <g id="line2d_113">
    <path d="M 69.184091 290.994545 
L 109.482071 290.994545 
L 149.780051 290.994545 
L 190.07803 287.947448 
L 230.37601 289.470997 
L 270.67399 289.470997 
L 310.97197 289.470997 
L 351.269949 289.470997 
L 391.567929 287.947448 
L 431.865909 289.470997 
" clip-path="url(#pb74c132dd4)" style="fill: none; stroke: #ff0000; stroke-width: 1.5; stroke-linecap: square"/>
   </g>
   <g id="line2d_114">
    <path d="M 69.184091 290.994545 
L 109.482071 290.994545 
L 149.780051 290.994545 
L 190.07803 289.470997 
L 230.37601 289.470997 
L 270.67399 290.994545 
L 310.97197 289.470997 
L 351.269949 290.994545 
L 391.567929 287.947448 
L 431.865909 289.470997 
" clip-path="url(#pb74c132dd4)" style="fill: none; stroke: #ff0000; stroke-width: 1.5; stroke-linecap: square"/>
   </g>
   <g id="line2d_115">
    <path d="M 69.184091 290.994545 
L 109.482071 290.994545 
L 149.780051 290.994545 
L 190.07803 287.947448 
L 230.37601 284.90035 
L 270.67399 287.947448 
L 310.97197 287.947448 
L 351.269949 286.423899 
L 391.567929 283.376802 
L 431.865909 283.376802 
" clip-path="url(#pb74c132dd4)" style="fill: none; stroke: #ff0000; stroke-width: 1.5; stroke-linecap: square"/>
   </g>
   <g id="line2d_116">
    <path d="M 69.184091 290.994545 
L 109.482071 290.994545 
L 149.780051 290.994545 
L 190.07803 290.994545 
L 230.37601 289.470997 
L 270.67399 290.994545 
L 310.97197 290.994545 
L 351.269949 289.470997 
L 391.567929 287.947448 
L 431.865909 287.947448 
" clip-path="url(#pb74c132dd4)" style="fill: none; stroke: #ff0000; stroke-width: 1.5; stroke-linecap: square"/>
   </g>
   <g id="line2d_117">
    <path d="M 69.184091 290.994545 
L 109.482071 290.994545 
L 149.780051 290.994545 
L 190.07803 289.470997 
L 230.37601 287.947448 
L 270.67399 289.470997 
L 310.97197 287.947448 
L 351.269949 289.470997 
L 391.567929 287.947448 
L 431.865909 284.90035 
" clip-path="url(#pb74c132dd4)" style="fill: none; stroke: #ff0000; stroke-width: 1.5; stroke-linecap: square"/>
   </g>
   <g id="line2d_118">
    <path d="M 69.184091 290.994545 
L 109.482071 290.994545 
L 149.780051 290.994545 
L 190.07803 290.994545 
L 230.37601 290.994545 
L 270.67399 290.994545 
L 310.97197 290.994545 
L 351.269949 290.994545 
L 391.567929 290.994545 
L 431.865909 290.994545 
" clip-path="url(#pb74c132dd4)" style="fill: none; stroke: #0000ff; stroke-width: 1.5; stroke-linecap: square"/>
   </g>
   <g id="line2d_119">
    <path d="M 69.184091 290.994545 
L 109.482071 290.994545 
L 149.780051 290.994545 
L 190.07803 274.235509 
L 230.37601 188.91678 
L 270.67399 135.592574 
L 310.97197 105.121599 
L 351.269949 82.268368 
L 391.567929 71.603527 
L 431.865909 57.891588 
" clip-path="url(#pb74c132dd4)" style="fill: none; stroke: #0000ff; stroke-width: 1.5; stroke-linecap: square"/>
   </g>
   <g id="line2d_120">
    <path d="M 69.184091 290.994545 
L 109.482071 290.994545 
L 149.780051 290.994545 
L 190.07803 246.811632 
L 230.37601 164.54 
L 270.67399 114.262892 
L 310.97197 85.315465 
L 351.269949 62.462234 
L 391.567929 51.797393 
L 431.865909 38.085455 
" clip-path="url(#pb74c132dd4)" style="fill: none; stroke: #0000ff; stroke-width: 1.5; stroke-linecap: square"/>
   </g>
   <g id="line2d_121">
    <path d="M 69.184091 290.994545 
L 109.482071 290.994545 
L 149.780051 290.994545 
L 190.07803 290.994545 
L 230.37601 233.099693 
L 270.67399 185.869682 
L 310.97197 161.492903 
L 351.269949 140.16322 
L 391.567929 129.498379 
L 431.865909 117.309989 
" clip-path="url(#pb74c132dd4)" style="fill: none; stroke: #0000ff; stroke-width: 1.5; stroke-linecap: square"/>
   </g>
   <g id="line2d_122">
    <path d="M 69.184091 290.994545 
L 109.482071 290.994545 
L 149.780051 290.994545 
L 190.07803 286.423899 
L 230.37601 214.817108 
L 270.67399 173.681292 
L 310.97197 147.780964 
L 351.269949 129.498379 
L 391.567929 120.357087 
L 431.865909 109.692245 
" clip-path="url(#pb74c132dd4)" style="fill: none; stroke: #0000ff; stroke-width: 1.5; stroke-linecap: square"/>
   </g>
   <g id="line2d_123">
    <path d="M 69.184091 290.994545 
L 109.482071 290.994545 
L 149.780051 290.994545 
L 190.07803 280.329704 
L 230.37601 195.010975 
L 270.67399 143.210318 
L 310.97197 117.309989 
L 351.269949 91.40966 
L 391.567929 80.744819 
L 431.865909 65.509332 
" clip-path="url(#pb74c132dd4)" style="fill: none; stroke: #0000ff; stroke-width: 1.5; stroke-linecap: square"/>
   </g>
   <g id="line2d_124">
    <path d="M 69.184091 290.994545 
L 109.482071 290.994545 
L 149.780051 290.994545 
L 190.07803 284.90035 
L 230.37601 207.199365 
L 270.67399 152.35161 
L 310.97197 123.404184 
L 351.269949 97.503855 
L 391.567929 86.839014 
L 431.865909 70.079978 
" clip-path="url(#pb74c132dd4)" style="fill: none; stroke: #0000ff; stroke-width: 1.5; stroke-linecap: square"/>
   </g>
   <g id="line2d_125">
    <path d="M 69.184091 290.994545 
L 109.482071 290.994545 
L 149.780051 290.994545 
L 190.07803 234.623242 
L 230.37601 163.016451 
L 270.67399 121.880635 
L 310.97197 100.550953 
L 351.269949 80.744819 
L 391.567929 70.079978 
L 431.865909 59.415137 
" clip-path="url(#pb74c132dd4)" style="fill: none; stroke: #0000ff; stroke-width: 1.5; stroke-linecap: square"/>
   </g>
   <g id="line2d_126">
    <path d="M 69.184091 290.994545 
L 109.482071 290.994545 
L 149.780051 290.994545 
L 190.07803 275.759058 
L 230.37601 193.487426 
L 270.67399 147.780964 
L 310.97197 124.927733 
L 351.269949 102.074502 
L 391.567929 92.933209 
L 431.865909 79.221271 
" clip-path="url(#pb74c132dd4)" style="fill: none; stroke: #0000ff; stroke-width: 1.5; stroke-linecap: square"/>
   </g>
   <g id="line2d_127">
    <path d="M 69.184091 290.994545 
L 109.482071 290.994545 
L 149.780051 290.994545 
L 190.07803 287.947448 
L 230.37601 208.722913 
L 270.67399 150.828061 
L 310.97197 118.833538 
L 351.269949 92.933209 
L 391.567929 79.221271 
L 431.865909 67.032881 
" clip-path="url(#pb74c132dd4)" style="fill: none; stroke: #0000ff; stroke-width: 1.5; stroke-linecap: square"/>
   </g>
   <g id="patch_3">
    <path d="M 51.05 303.64 
L 51.05 25.44 
" style="fill: none; stroke: #000000; stroke-width: 0.8; stroke-linejoin: miter; stroke-linecap: square"/>
   </g>
   <g id="patch_4">
    <path d="M 450 303.64 
L 450 25.44 
" style="fill: none; stroke: #000000; stroke-width: 0.8; stroke-linejoin: miter; stroke-linecap: square"/>
   </g>
   <g id="patch_5">
    <path d="M 51.05 303.64 
L 450 303.64 
" style="fill: none; stroke: #000000; stroke-width: 0.8; stroke-linejoin: miter; stroke-linecap: square"/>
   </g>
   <g id="patch_6">
    <path d="M 51.05 25.44 
L 450 25.44 
" style="fill: none; stroke: #000000; stroke-width: 0.8; stroke-linejoin: miter; stroke-linecap: square"/>
   </g>
   <g id="text_16">
    <!-- FF Curve PC -->
    <g transform="translate(214.3 19.44)scale(0.12 -0.12)">
     <defs>
      <path id="DejaVuSans-46" d="M 628 4666 
L 3309 4666 
L 3309 4134 
L 1259 4134 
L 1259 2759 
L 3109 2759 
L 3109 2228 
L 1259 2228 
L 1259 0 
L 628 0 
L 628 4666 
z
" transform="scale(0.015625)"/>
      <path id="DejaVuSans-43" d="M 4122 4306 
L 4122 3641 
Q 3803 3938 3442 4084 
Q 3081 4231 2675 4231 
Q 1875 4231 1450 3742 
Q 1025 3253 1025 2328 
Q 1025 1406 1450 917 
Q 1875 428 2675 428 
Q 3081 428 3442 575 
Q 3803 722 4122 1019 
L 4122 359 
Q 3791 134 3420 21 
Q 3050 -91 2638 -91 
Q 1578 -91 968 557 
Q 359 1206 359 2328 
Q 359 3453 968 4101 
Q 1578 4750 2638 4750 
Q 3056 4750 3426 4639 
Q 3797 4528 4122 4306 
z
" transform="scale(0.015625)"/>
      <path id="DejaVuSans-76" d="M 191 3500 
L 800 3500 
L 1894 563 
L 2988 3500 
L 3597 3500 
L 2284 0 
L 1503 0 
L 191 3500 
z
" transform="scale(0.015625)"/>
      <path id="DejaVuSans-50" d="M 1259 4147 
L 1259 2394 
L 2053 2394 
Q 2494 2394 2734 2622 
Q 2975 2850 2975 3272 
Q 2975 3691 2734 3919 
Q 2494 4147 2053 4147 
L 1259 4147 
z
M 628 4666 
L 2053 4666 
Q 2838 4666 3239 4311 
Q 3641 3956 3641 3272 
Q 3641 2581 3239 2228 
Q 2838 1875 2053 1875 
L 1259 1875 
L 1259 0 
L 628 0 
L 628 4666 
z
" transform="scale(0.015625)"/>
     </defs>
     <use xlink:href="#DejaVuSans-46"/>
     <use xlink:href="#DejaVuSans-46" x="57.519531"/>
     <use xlink:href="#DejaVuSans-20" x="115.039062"/>
     <use xlink:href="#DejaVuSans-43" x="146.826172"/>
     <use xlink:href="#DejaVuSans-75" x="216.650391"/>
     <use xlink:href="#DejaVuSans-72" x="280.029297"/>
     <use xlink:href="#DejaVuSans-76" x="321.142578"/>
     <use xlink:href="#DejaVuSans-65" x="380.322266"/>
     <use xlink:href="#DejaVuSans-20" x="441.845703"/>
     <use xlink:href="#DejaVuSans-50" x="473.632812"/>
     <use xlink:href="#DejaVuSans-43" x="533.935547"/>
    </g>
   </g>
  </g>
 </g>
 <defs>
  <clipPath id="pb74c132dd4">
   <rect x="51.05" y="25.44" width="398.95" height="278.2"/>
  </clipPath>
 </defs>
</svg>
