<?xml version="1.0" encoding="utf-8" standalone="no"?>
<!DOCTYPE svg PUBLIC "-//W3C//DTD SVG 1.1//EN"
  "http://www.w3.org/Graphics/SVG/1.1/DTD/svg11.dtd">
<svg xmlns:xlink="http://www.w3.org/1999/xlink" width="864pt" height="576pt" viewBox="0 0 864 576" xmlns="http://www.w3.org/2000/svg" version="1.1">
 <metadata>
  <rdf:RDF xmlns:dc="http://purl.org/dc/elements/1.1/" xmlns:cc="http://creativecommons.org/ns#" xmlns:rdf="http://www.w3.org/1999/02/22-rdf-syntax-ns#">
   <cc:Work>
    <dc:type rdf:resource="http://purl.org/dc/dcmitype/StillImage"/>
    <dc:date>2023-08-07T14:01:39.843424</dc:date>
    <dc:format>image/svg+xml</dc:format>
    <dc:creator>
     <cc:Agent>
      <dc:title>Matplotlib v3.7.1, https://matplotlib.org/</dc:title>
     </cc:Agent>
    </dc:creator>
   </cc:Work>
  </rdf:RDF>
 </metadata>
 <defs>
  <style type="text/css">*{stroke-linejoin: round; stroke-linecap: butt}</style>
 </defs>
 <g id="figure_1">
  <g id="patch_1">
   <path d="M 0 576 
L 864 576 
L 864 0 
L 0 0 
z
" style="fill: #ffffff"/>
  </g>
  <g id="axes_1">
   <g id="patch_2">
    <path d="M 108 512.64 
L 777.6 512.64 
L 777.6 69.12 
L 108 69.12 
z
" style="fill: #ffffff"/>
   </g>
   <g id="matplotlib.axis_1">
    <g id="xtick_1">
     <g id="line2d_1"/>
     <g id="text_1">
      <!-- 0 -->
      <g style="fill: #262626" transform="translate(135.655895 523.386875) scale(0.1 -0.1)">
       <defs>
        <path id="LiberationSans-30" d="M 3309 2203 
Q 3309 1100 2920 518 
Q 2531 -63 1772 -63 
Q 1013 -63 631 515 
Q 250 1094 250 2203 
Q 250 3338 620 3903 
Q 991 4469 1791 4469 
Q 2569 4469 2939 3897 
Q 3309 3325 3309 2203 
z
M 2738 2203 
Q 2738 3156 2517 3584 
Q 2297 4013 1791 4013 
Q 1272 4013 1045 3591 
Q 819 3169 819 2203 
Q 819 1266 1048 831 
Q 1278 397 1778 397 
Q 2275 397 2506 840 
Q 2738 1284 2738 2203 
z
" transform="scale(0.015625)"/>
       </defs>
       <use xlink:href="#LiberationSans-30"/>
      </g>
     </g>
    </g>
    <g id="xtick_2">
     <g id="line2d_2"/>
     <g id="text_2">
      <!-- 2 -->
      <g style="fill: #262626" transform="translate(217.254725 523.386875) scale(0.1 -0.1)">
       <defs>
        <path id="LiberationSans-32" d="M 322 0 
L 322 397 
Q 481 763 711 1042 
Q 941 1322 1194 1548 
Q 1447 1775 1695 1969 
Q 1944 2163 2144 2356 
Q 2344 2550 2467 2762 
Q 2591 2975 2591 3244 
Q 2591 3606 2378 3806 
Q 2166 4006 1788 4006 
Q 1428 4006 1195 3811 
Q 963 3616 922 3263 
L 347 3316 
Q 409 3844 795 4156 
Q 1181 4469 1788 4469 
Q 2453 4469 2811 4155 
Q 3169 3841 3169 3263 
Q 3169 3006 3051 2753 
Q 2934 2500 2703 2247 
Q 2472 1994 1819 1463 
Q 1459 1169 1246 933 
Q 1034 697 941 478 
L 3238 478 
L 3238 0 
L 322 0 
z
" transform="scale(0.015625)"/>
       </defs>
       <use xlink:href="#LiberationSans-32"/>
      </g>
     </g>
    </g>
    <g id="xtick_3">
     <g id="line2d_3"/>
     <g id="text_3">
      <!-- 4 -->
      <g style="fill: #262626" transform="translate(298.853555 523.386875) scale(0.1 -0.1)">
       <defs>
        <path id="LiberationSans-34" d="M 2753 997 
L 2753 0 
L 2222 0 
L 2222 997 
L 147 997 
L 147 1434 
L 2163 4403 
L 2753 4403 
L 2753 1441 
L 3372 1441 
L 3372 997 
L 2753 997 
z
M 2222 3769 
Q 2216 3750 2134 3603 
Q 2053 3456 2013 3397 
L 884 1734 
L 716 1503 
L 666 1441 
L 2222 1441 
L 2222 3769 
z
" transform="scale(0.015625)"/>
       </defs>
       <use xlink:href="#LiberationSans-34"/>
      </g>
     </g>
    </g>
    <g id="xtick_4">
     <g id="line2d_4"/>
     <g id="text_4">
      <!-- 6 -->
      <g style="fill: #262626" transform="translate(380.452385 523.386875) scale(0.1 -0.1)">
       <defs>
        <path id="LiberationSans-36" d="M 3278 1441 
Q 3278 744 2900 340 
Q 2522 -63 1856 -63 
Q 1113 -63 719 490 
Q 325 1044 325 2100 
Q 325 3244 734 3856 
Q 1144 4469 1900 4469 
Q 2897 4469 3156 3572 
L 2619 3475 
Q 2453 4013 1894 4013 
Q 1413 4013 1148 3564 
Q 884 3116 884 2266 
Q 1038 2550 1316 2698 
Q 1594 2847 1953 2847 
Q 2563 2847 2920 2465 
Q 3278 2084 3278 1441 
z
M 2706 1416 
Q 2706 1894 2472 2153 
Q 2238 2413 1819 2413 
Q 1425 2413 1183 2183 
Q 941 1953 941 1550 
Q 941 1041 1192 716 
Q 1444 391 1838 391 
Q 2244 391 2475 664 
Q 2706 938 2706 1416 
z
" transform="scale(0.015625)"/>
       </defs>
       <use xlink:href="#LiberationSans-36"/>
      </g>
     </g>
    </g>
    <g id="xtick_5">
     <g id="line2d_5"/>
     <g id="text_5">
      <!-- 8 -->
      <g style="fill: #262626" transform="translate(462.051215 523.386875) scale(0.1 -0.1)">
       <defs>
        <path id="LiberationSans-38" d="M 3281 1228 
Q 3281 619 2893 278 
Q 2506 -63 1781 -63 
Q 1075 -63 676 271 
Q 278 606 278 1222 
Q 278 1653 525 1947 
Q 772 2241 1156 2303 
L 1156 2316 
Q 797 2400 589 2681 
Q 381 2963 381 3341 
Q 381 3844 757 4156 
Q 1134 4469 1769 4469 
Q 2419 4469 2795 4162 
Q 3172 3856 3172 3334 
Q 3172 2956 2962 2675 
Q 2753 2394 2391 2322 
L 2391 2309 
Q 2813 2241 3047 1952 
Q 3281 1663 3281 1228 
z
M 2588 3303 
Q 2588 4050 1769 4050 
Q 1372 4050 1164 3862 
Q 956 3675 956 3303 
Q 956 2925 1170 2726 
Q 1384 2528 1775 2528 
Q 2172 2528 2380 2711 
Q 2588 2894 2588 3303 
z
M 2697 1281 
Q 2697 1691 2453 1898 
Q 2209 2106 1769 2106 
Q 1341 2106 1100 1882 
Q 859 1659 859 1269 
Q 859 359 1788 359 
Q 2247 359 2472 579 
Q 2697 800 2697 1281 
z
" transform="scale(0.015625)"/>
       </defs>
       <use xlink:href="#LiberationSans-38"/>
      </g>
     </g>
    </g>
    <g id="xtick_6">
     <g id="line2d_6"/>
     <g id="text_6">
      <!-- 10 -->
      <g style="fill: #262626" transform="translate(540.869577 523.386875) scale(0.1 -0.1)">
       <defs>
        <path id="LiberationSans-31" d="M 488 0 
L 488 478 
L 1609 478 
L 1609 3866 
L 616 3156 
L 616 3688 
L 1656 4403 
L 2175 4403 
L 2175 478 
L 3247 478 
L 3247 0 
L 488 0 
z
" transform="scale(0.015625)"/>
       </defs>
       <use xlink:href="#LiberationSans-31"/>
       <use xlink:href="#LiberationSans-30" x="55.615234"/>
      </g>
     </g>
    </g>
    <g id="xtick_7">
     <g id="line2d_7"/>
     <g id="text_7">
      <!-- 12 -->
      <g style="fill: #262626" transform="translate(622.468407 523.386875) scale(0.1 -0.1)">
       <use xlink:href="#LiberationSans-31"/>
       <use xlink:href="#LiberationSans-32" x="55.615234"/>
      </g>
     </g>
    </g>
    <g id="xtick_8">
     <g id="line2d_8"/>
     <g id="text_8">
      <!-- 14 -->
      <g style="fill: #262626" transform="translate(704.067237 523.386875) scale(0.1 -0.1)">
       <use xlink:href="#LiberationSans-31"/>
       <use xlink:href="#LiberationSans-34" x="55.615234"/>
      </g>
     </g>
    </g>
    <g id="text_9">
     <!-- Time (s) -->
     <g style="fill: #262626" transform="translate(424.658594 536.70875) scale(0.1 -0.1)">
      <defs>
       <path id="LiberationSans-54" d="M 2250 3916 
L 2250 0 
L 1656 0 
L 1656 3916 
L 144 3916 
L 144 4403 
L 3763 4403 
L 3763 3916 
L 2250 3916 
z
" transform="scale(0.015625)"/>
       <path id="LiberationSans-69" d="M 428 4100 
L 428 4638 
L 991 4638 
L 991 4100 
L 428 4100 
z
M 428 0 
L 428 3381 
L 991 3381 
L 991 0 
L 428 0 
z
" transform="scale(0.015625)"/>
       <path id="LiberationSans-6d" d="M 2400 0 
L 2400 2144 
Q 2400 2634 2265 2821 
Q 2131 3009 1781 3009 
Q 1422 3009 1212 2734 
Q 1003 2459 1003 1959 
L 1003 0 
L 444 0 
L 444 2659 
Q 444 3250 425 3381 
L 956 3381 
Q 959 3366 962 3297 
Q 966 3228 970 3139 
Q 975 3050 981 2803 
L 991 2803 
Q 1172 3163 1406 3303 
Q 1641 3444 1978 3444 
Q 2363 3444 2586 3291 
Q 2809 3138 2897 2803 
L 2906 2803 
Q 3081 3144 3329 3294 
Q 3578 3444 3931 3444 
Q 4444 3444 4676 3166 
Q 4909 2888 4909 2253 
L 4909 0 
L 4353 0 
L 4353 2144 
Q 4353 2634 4218 2821 
Q 4084 3009 3734 3009 
Q 3366 3009 3161 2736 
Q 2956 2463 2956 1959 
L 2956 0 
L 2400 0 
z
" transform="scale(0.015625)"/>
       <path id="LiberationSans-65" d="M 863 1572 
Q 863 991 1103 675 
Q 1344 359 1806 359 
Q 2172 359 2392 506 
Q 2613 653 2691 878 
L 3184 738 
Q 2881 -63 1806 -63 
Q 1056 -63 664 384 
Q 272 831 272 1713 
Q 272 2550 664 2997 
Q 1056 3444 1784 3444 
Q 3275 3444 3275 1647 
L 3275 1572 
L 863 1572 
z
M 2694 2003 
Q 2647 2538 2422 2783 
Q 2197 3028 1775 3028 
Q 1366 3028 1127 2754 
Q 888 2481 869 2003 
L 2694 2003 
z
" transform="scale(0.015625)"/>
       <path id="LiberationSans-20" transform="scale(0.015625)"/>
       <path id="LiberationSans-28" d="M 397 1663 
Q 397 2566 680 3284 
Q 963 4003 1550 4638 
L 2094 4638 
Q 1509 3988 1236 3256 
Q 963 2525 963 1656 
Q 963 791 1233 62 
Q 1503 -666 2094 -1325 
L 1550 -1325 
Q 959 -688 678 32 
Q 397 753 397 1650 
L 397 1663 
z
" transform="scale(0.015625)"/>
       <path id="LiberationSans-73" d="M 2969 934 
Q 2969 456 2608 196 
Q 2247 -63 1597 -63 
Q 966 -63 623 145 
Q 281 353 178 794 
L 675 891 
Q 747 619 972 492 
Q 1197 366 1597 366 
Q 2025 366 2223 497 
Q 2422 628 2422 891 
Q 2422 1091 2284 1216 
Q 2147 1341 1841 1422 
L 1438 1528 
Q 953 1653 748 1773 
Q 544 1894 428 2066 
Q 313 2238 313 2488 
Q 313 2950 642 3192 
Q 972 3434 1603 3434 
Q 2163 3434 2492 3237 
Q 2822 3041 2909 2606 
L 2403 2544 
Q 2356 2769 2151 2889 
Q 1947 3009 1603 3009 
Q 1222 3009 1040 2893 
Q 859 2778 859 2544 
Q 859 2400 934 2306 
Q 1009 2213 1156 2147 
Q 1303 2081 1775 1966 
Q 2222 1853 2419 1758 
Q 2616 1663 2730 1547 
Q 2844 1431 2906 1279 
Q 2969 1128 2969 934 
z
" transform="scale(0.015625)"/>
       <path id="LiberationSans-29" d="M 1734 1650 
Q 1734 747 1451 28 
Q 1169 -691 581 -1325 
L 38 -1325 
Q 625 -669 897 57 
Q 1169 784 1169 1656 
Q 1169 2528 895 3256 
Q 622 3984 38 4638 
L 581 4638 
Q 1172 4000 1453 3279 
Q 1734 2559 1734 1663 
L 1734 1650 
z
" transform="scale(0.015625)"/>
      </defs>
      <use xlink:href="#LiberationSans-54"/>
      <use xlink:href="#LiberationSans-69" x="57.333984"/>
      <use xlink:href="#LiberationSans-6d" x="79.550781"/>
      <use xlink:href="#LiberationSans-65" x="162.851562"/>
      <use xlink:href="#LiberationSans-20" x="218.466797"/>
      <use xlink:href="#LiberationSans-28" x="246.25"/>
      <use xlink:href="#LiberationSans-73" x="279.550781"/>
      <use xlink:href="#LiberationSans-29" x="329.550781"/>
     </g>
    </g>
   </g>
   <g id="matplotlib.axis_2">
    <g id="ytick_1">
     <g id="line2d_9"/>
     <g id="text_10">
      <!-- 0 -->
      <g style="fill: #262626" transform="translate(98.939063 496.103437) scale(0.1 -0.1)">
       <use xlink:href="#LiberationSans-30"/>
      </g>
     </g>
    </g>
    <g id="ytick_2">
     <g id="line2d_10"/>
     <g id="text_11">
      <!-- 25 -->
      <g style="fill: #262626" transform="translate(93.378125 439.314705) scale(0.1 -0.1)">
       <defs>
        <path id="LiberationSans-35" d="M 3291 1434 
Q 3291 738 2877 337 
Q 2463 -63 1728 -63 
Q 1113 -63 734 206 
Q 356 475 256 984 
L 825 1050 
Q 1003 397 1741 397 
Q 2194 397 2450 670 
Q 2706 944 2706 1422 
Q 2706 1838 2448 2094 
Q 2191 2350 1753 2350 
Q 1525 2350 1328 2278 
Q 1131 2206 934 2034 
L 384 2034 
L 531 4403 
L 3034 4403 
L 3034 3925 
L 1044 3925 
L 959 2528 
Q 1325 2809 1869 2809 
Q 2519 2809 2905 2428 
Q 3291 2047 3291 1434 
z
" transform="scale(0.015625)"/>
       </defs>
       <use xlink:href="#LiberationSans-32"/>
       <use xlink:href="#LiberationSans-35" x="55.615234"/>
      </g>
     </g>
    </g>
    <g id="ytick_3">
     <g id="line2d_11"/>
     <g id="text_12">
      <!-- 50 -->
      <g style="fill: #262626" transform="translate(93.378125 382.525973) scale(0.1 -0.1)">
       <use xlink:href="#LiberationSans-35"/>
       <use xlink:href="#LiberationSans-30" x="55.615234"/>
      </g>
     </g>
    </g>
    <g id="ytick_4">
     <g id="line2d_12"/>
     <g id="text_13">
      <!-- 75 -->
      <g style="fill: #262626" transform="translate(93.378125 325.73724) scale(0.1 -0.1)">
       <defs>
        <path id="LiberationSans-37" d="M 3238 3947 
Q 2563 2916 2284 2331 
Q 2006 1747 1867 1178 
Q 1728 609 1728 0 
L 1141 0 
Q 1141 844 1498 1776 
Q 1856 2709 2694 3925 
L 328 3925 
L 328 4403 
L 3238 4403 
L 3238 3947 
z
" transform="scale(0.015625)"/>
       </defs>
       <use xlink:href="#LiberationSans-37"/>
       <use xlink:href="#LiberationSans-35" x="55.615234"/>
      </g>
     </g>
    </g>
    <g id="ytick_5">
     <g id="line2d_13"/>
     <g id="text_14">
      <!-- 100 -->
      <g style="fill: #262626" transform="translate(87.817188 268.948508) scale(0.1 -0.1)">
       <use xlink:href="#LiberationSans-31"/>
       <use xlink:href="#LiberationSans-30" x="55.615234"/>
       <use xlink:href="#LiberationSans-30" x="111.230469"/>
      </g>
     </g>
    </g>
    <g id="ytick_6">
     <g id="line2d_14"/>
     <g id="text_15">
      <!-- 125 -->
      <g style="fill: #262626" transform="translate(87.817188 212.159776) scale(0.1 -0.1)">
       <use xlink:href="#LiberationSans-31"/>
       <use xlink:href="#LiberationSans-32" x="55.615234"/>
       <use xlink:href="#LiberationSans-35" x="111.230469"/>
      </g>
     </g>
    </g>
    <g id="ytick_7">
     <g id="line2d_15"/>
     <g id="text_16">
      <!-- 150 -->
      <g style="fill: #262626" transform="translate(87.817188 155.371043) scale(0.1 -0.1)">
       <use xlink:href="#LiberationSans-31"/>
       <use xlink:href="#LiberationSans-35" x="55.615234"/>
       <use xlink:href="#LiberationSans-30" x="111.230469"/>
      </g>
     </g>
    </g>
    <g id="ytick_8">
     <g id="line2d_16"/>
     <g id="text_17">
      <!-- 175 -->
      <g style="fill: #262626" transform="translate(87.817188 98.582311) scale(0.1 -0.1)">
       <use xlink:href="#LiberationSans-31"/>
       <use xlink:href="#LiberationSans-37" x="55.615234"/>
       <use xlink:href="#LiberationSans-35" x="111.230469"/>
      </g>
     </g>
    </g>
    <g id="text_18">
     <!-- Output Frequency (Hz) -->
     <g style="fill: #262626" transform="translate(81.742188 341.728437) rotate(-90) scale(0.1 -0.1)">
      <defs>
       <path id="LiberationSans-4f" d="M 4672 2222 
Q 4672 1531 4408 1012 
Q 4144 494 3650 215 
Q 3156 -63 2484 -63 
Q 1806 -63 1314 212 
Q 822 488 562 1008 
Q 303 1528 303 2222 
Q 303 3278 881 3873 
Q 1459 4469 2491 4469 
Q 3163 4469 3656 4201 
Q 4150 3934 4411 3425 
Q 4672 2916 4672 2222 
z
M 4063 2222 
Q 4063 3044 3652 3512 
Q 3241 3981 2491 3981 
Q 1734 3981 1321 3518 
Q 909 3056 909 2222 
Q 909 1394 1326 908 
Q 1744 422 2484 422 
Q 3247 422 3655 892 
Q 4063 1363 4063 2222 
z
" transform="scale(0.015625)"/>
       <path id="LiberationSans-75" d="M 981 3381 
L 981 1238 
Q 981 903 1047 718 
Q 1113 534 1256 453 
Q 1400 372 1678 372 
Q 2084 372 2318 650 
Q 2553 928 2553 1422 
L 2553 3381 
L 3116 3381 
L 3116 722 
Q 3116 131 3134 0 
L 2603 0 
Q 2600 16 2597 84 
Q 2594 153 2589 242 
Q 2584 331 2578 578 
L 2569 578 
Q 2375 228 2120 82 
Q 1866 -63 1488 -63 
Q 931 -63 673 214 
Q 416 491 416 1128 
L 416 3381 
L 981 3381 
z
" transform="scale(0.015625)"/>
       <path id="LiberationSans-74" d="M 1731 25 
Q 1453 -50 1163 -50 
Q 488 -50 488 716 
L 488 2972 
L 97 2972 
L 97 3381 
L 509 3381 
L 675 4138 
L 1050 4138 
L 1050 3381 
L 1675 3381 
L 1675 2972 
L 1050 2972 
L 1050 838 
Q 1050 594 1129 495 
Q 1209 397 1406 397 
Q 1519 397 1731 441 
L 1731 25 
z
" transform="scale(0.015625)"/>
       <path id="LiberationSans-70" d="M 3291 1706 
Q 3291 -63 2047 -63 
Q 1266 -63 997 525 
L 981 525 
Q 994 500 994 -6 
L 994 -1328 
L 431 -1328 
L 431 2691 
Q 431 3213 413 3381 
L 956 3381 
Q 959 3369 965 3292 
Q 972 3216 980 3056 
Q 988 2897 988 2838 
L 1000 2838 
Q 1150 3150 1397 3295 
Q 1644 3441 2047 3441 
Q 2672 3441 2981 3022 
Q 3291 2603 3291 1706 
z
M 2700 1694 
Q 2700 2400 2509 2703 
Q 2319 3006 1903 3006 
Q 1569 3006 1380 2865 
Q 1191 2725 1092 2426 
Q 994 2128 994 1650 
Q 994 984 1206 668 
Q 1419 353 1897 353 
Q 2316 353 2508 661 
Q 2700 969 2700 1694 
z
" transform="scale(0.015625)"/>
       <path id="LiberationSans-46" d="M 1122 3916 
L 1122 2278 
L 3578 2278 
L 3578 1784 
L 1122 1784 
L 1122 0 
L 525 0 
L 525 4403 
L 3653 4403 
L 3653 3916 
L 1122 3916 
z
" transform="scale(0.015625)"/>
       <path id="LiberationSans-72" d="M 444 0 
L 444 2594 
Q 444 2950 425 3381 
L 956 3381 
Q 981 2806 981 2691 
L 994 2691 
Q 1128 3125 1303 3284 
Q 1478 3444 1797 3444 
Q 1909 3444 2025 3413 
L 2025 2897 
Q 1913 2928 1725 2928 
Q 1375 2928 1190 2626 
Q 1006 2325 1006 1763 
L 1006 0 
L 444 0 
z
" transform="scale(0.015625)"/>
       <path id="LiberationSans-71" d="M 1513 -63 
Q 869 -63 569 371 
Q 269 806 269 1675 
Q 269 3444 1513 3444 
Q 1897 3444 2147 3308 
Q 2397 3172 2566 2856 
L 2572 2856 
Q 2572 2950 2584 3179 
Q 2597 3409 2609 3425 
L 3150 3425 
Q 3128 3241 3128 2503 
L 3128 -1328 
L 2566 -1328 
L 2566 44 
L 2578 556 
L 2572 556 
Q 2403 222 2156 79 
Q 1909 -63 1513 -63 
z
M 2566 1731 
Q 2566 2391 2350 2709 
Q 2134 3028 1663 3028 
Q 1234 3028 1046 2709 
Q 859 2391 859 1694 
Q 859 984 1048 678 
Q 1238 372 1656 372 
Q 2134 372 2350 712 
Q 2566 1053 2566 1731 
z
" transform="scale(0.015625)"/>
       <path id="LiberationSans-6e" d="M 2578 0 
L 2578 2144 
Q 2578 2478 2512 2662 
Q 2447 2847 2303 2928 
Q 2159 3009 1881 3009 
Q 1475 3009 1240 2731 
Q 1006 2453 1006 1959 
L 1006 0 
L 444 0 
L 444 2659 
Q 444 3250 425 3381 
L 956 3381 
Q 959 3366 962 3297 
Q 966 3228 970 3139 
Q 975 3050 981 2803 
L 991 2803 
Q 1184 3153 1439 3298 
Q 1694 3444 2072 3444 
Q 2628 3444 2886 3167 
Q 3144 2891 3144 2253 
L 3144 0 
L 2578 0 
z
" transform="scale(0.015625)"/>
       <path id="LiberationSans-63" d="M 859 1706 
Q 859 1031 1071 706 
Q 1284 381 1713 381 
Q 2013 381 2214 543 
Q 2416 706 2463 1044 
L 3031 1006 
Q 2966 519 2616 228 
Q 2266 -63 1728 -63 
Q 1019 -63 645 385 
Q 272 834 272 1694 
Q 272 2547 647 2995 
Q 1022 3444 1722 3444 
Q 2241 3444 2583 3175 
Q 2925 2906 3013 2434 
L 2434 2391 
Q 2391 2672 2212 2837 
Q 2034 3003 1706 3003 
Q 1259 3003 1059 2706 
Q 859 2409 859 1706 
z
" transform="scale(0.015625)"/>
       <path id="LiberationSans-79" d="M 597 -1328 
Q 366 -1328 209 -1294 
L 209 -872 
Q 328 -891 472 -891 
Q 997 -891 1303 -119 
L 1356 16 
L 16 3381 
L 616 3381 
L 1328 1513 
Q 1344 1469 1366 1408 
Q 1388 1347 1506 1000 
Q 1625 653 1634 613 
L 1853 1228 
L 2594 3381 
L 3188 3381 
L 1888 0 
Q 1678 -541 1497 -805 
Q 1316 -1069 1095 -1198 
Q 875 -1328 597 -1328 
z
" transform="scale(0.015625)"/>
       <path id="LiberationSans-48" d="M 3503 0 
L 3503 2041 
L 1122 2041 
L 1122 0 
L 525 0 
L 525 4403 
L 1122 4403 
L 1122 2541 
L 3503 2541 
L 3503 4403 
L 4100 4403 
L 4100 0 
L 3503 0 
z
" transform="scale(0.015625)"/>
       <path id="LiberationSans-7a" d="M 259 0 
L 259 428 
L 2150 2947 
L 366 2947 
L 366 3381 
L 2816 3381 
L 2816 2953 
L 922 434 
L 2881 434 
L 2881 0 
L 259 0 
z
" transform="scale(0.015625)"/>
      </defs>
      <use xlink:href="#LiberationSans-4f"/>
      <use xlink:href="#LiberationSans-75" x="77.783203"/>
      <use xlink:href="#LiberationSans-74" x="133.398438"/>
      <use xlink:href="#LiberationSans-70" x="161.181641"/>
      <use xlink:href="#LiberationSans-75" x="216.796875"/>
      <use xlink:href="#LiberationSans-74" x="272.412109"/>
      <use xlink:href="#LiberationSans-20" x="300.195312"/>
      <use xlink:href="#LiberationSans-46" x="327.978516"/>
      <use xlink:href="#LiberationSans-72" x="389.0625"/>
      <use xlink:href="#LiberationSans-65" x="422.363281"/>
      <use xlink:href="#LiberationSans-71" x="477.978516"/>
      <use xlink:href="#LiberationSans-75" x="533.59375"/>
      <use xlink:href="#LiberationSans-65" x="589.208984"/>
      <use xlink:href="#LiberationSans-6e" x="644.824219"/>
      <use xlink:href="#LiberationSans-63" x="700.439453"/>
      <use xlink:href="#LiberationSans-79" x="750.439453"/>
      <use xlink:href="#LiberationSans-20" x="800.439453"/>
      <use xlink:href="#LiberationSans-28" x="828.222656"/>
      <use xlink:href="#LiberationSans-48" x="861.523438"/>
      <use xlink:href="#LiberationSans-7a" x="933.740234"/>
      <use xlink:href="#LiberationSans-29" x="983.740234"/>
     </g>
    </g>
   </g>
   <g id="line2d_17">
    <path d="M 138.436364 324.24338 
L 140.06834 358.31662 
L 141.700317 359.736338 
L 143.332293 416.52507 
L 144.96427 411.556056 
L 146.596247 437.820845 
L 148.228223 442.789859 
L 149.8602 412.265915 
L 151.492176 442.08 
L 153.124153 414.395493 
L 154.75613 442.08 
L 156.388106 442.08 
L 158.020083 422.913803 
L 159.652059 444.209577 
L 161.284036 425.04338 
L 162.916013 447.049014 
L 164.547989 447.049014 
L 166.179966 424.333521 
L 167.811942 444.919437 
L 169.443919 428.592676 
L 171.075896 445.629296 
L 172.707872 448.468732 
L 174.339849 431.432113 
L 175.971825 448.468732 
L 177.603802 433.56169 
L 179.235779 449.178592 
L 180.867755 451.308169 
L 182.499732 429.302535 
L 184.131709 449.888451 
L 185.763685 434.981408 
L 187.395662 445.629296 
L 189.027638 447.049014 
L 190.659615 430.012394 
L 192.291592 445.629296 
L 193.923568 432.851831 
L 195.555545 450.59831 
L 197.187521 447.758873 
L 198.819498 432.141972 
L 200.451475 449.178592 
L 202.083451 431.432113 
L 203.715428 443.499718 
L 205.347404 444.209577 
L 206.979381 429.302535 
L 208.611358 442.789859 
L 210.243334 427.172958 
L 211.875311 442.789859 
L 213.507287 447.049014 
L 215.139264 428.592676 
L 216.771241 442.789859 
L 218.403217 423.623662 
L 220.035194 442.789859 
L 221.66717 445.629296 
L 223.299147 425.04338 
L 224.931124 447.049014 
L 226.5631 425.04338 
L 228.195077 434.271549 
L 229.827053 442.789859 
L 231.45903 431.432113 
L 233.091007 445.629296 
L 234.722983 452.727887 
L 236.35496 430.722254 
L 237.986936 444.919437 
L 239.618913 425.753239 
L 241.25089 441.370141 
L 242.882866 444.919437 
L 244.514843 424.333521 
L 246.146819 443.499718 
L 247.778796 420.074366 
L 249.410773 443.499718 
L 251.042749 446.339155 
L 252.674726 429.302535 
L 254.306702 442.789859 
L 255.938679 427.172958 
L 257.570656 444.209577 
L 259.202632 452.727887 
L 260.834609 427.882817 
L 262.466585 449.178592 
L 264.098562 427.882817 
L 265.730539 444.919437 
L 267.362515 447.758873 
L 268.994492 425.753239 
L 270.626468 447.758873 
L 272.258445 429.302535 
L 273.890422 447.758873 
L 275.522398 448.468732 
L 277.154375 427.172958 
L 278.786351 448.468732 
L 280.418328 430.722254 
L 282.050305 444.209577 
L 283.682281 447.049014 
L 285.314258 424.333521 
L 286.946234 446.339155 
L 288.578211 427.882817 
L 290.210188 445.629296 
L 291.842164 447.049014 
L 293.474141 430.722254 
L 295.106117 448.468732 
L 296.738094 434.271549 
L 298.370071 449.178592 
L 300.002047 452.018028 
L 301.634024 430.012394 
L 303.266 449.178592 
L 304.897977 434.981408 
L 306.529954 447.758873 
L 308.16193 447.049014 
L 309.793907 429.302535 
L 311.425883 449.178592 
L 313.05786 434.981408 
L 314.689837 449.178592 
L 316.321813 452.727887 
L 317.95379 430.012394 
L 319.585767 449.888451 
L 321.217743 434.981408 
L 322.84972 449.178592 
L 324.481696 448.468732 
L 326.113673 430.722254 
L 327.74565 448.468732 
L 329.377626 433.56169 
L 331.009603 447.049014 
L 332.641579 451.308169 
L 334.273556 430.012394 
L 335.905533 453.437746 
L 337.537509 437.820845 
L 339.169486 446.339155 
L 340.801462 452.727887 
L 342.433439 432.851831 
L 344.065416 449.178592 
L 345.697392 438.530704 
L 347.329369 445.629296 
L 348.961345 449.888451 
L 350.593322 431.432113 
L 352.225299 449.178592 
L 353.857275 452.018028 
L 355.489252 430.012394 
L 357.121228 451.308169 
L 358.753205 432.851831 
L 360.385182 449.178592 
L 362.017158 453.437746 
L 363.649135 430.012394 
L 365.281111 449.178592 
L 366.913088 430.012394 
L 368.545065 452.018028 
L 370.177041 452.727887 
L 371.809018 432.141972 
L 373.440994 451.308169 
L 375.072971 431.432113 
L 376.704948 449.178592 
L 378.336924 450.59831 
L 379.968901 431.432113 
L 381.600877 449.888451 
L 383.232854 430.012394 
L 384.864831 446.339155 
L 386.496807 449.888451 
L 388.128784 434.271549 
L 389.76076 449.888451 
L 391.392737 432.141972 
L 393.024714 449.178592 
L 394.65669 452.018028 
L 396.288667 431.432113 
L 397.920643 449.178592 
L 399.55262 432.141972 
L 401.184597 447.049014 
L 402.816573 452.018028 
L 404.44855 430.012394 
L 406.080526 448.468732 
L 407.712503 434.271549 
L 409.34448 448.468732 
L 410.976456 451.308169 
L 412.608433 430.722254 
L 414.240409 452.018028 
L 415.872386 434.271549 
L 417.504363 449.178592 
L 419.136339 450.59831 
L 420.768316 430.722254 
L 422.400292 449.178592 
L 424.032269 432.851831 
L 425.664246 446.339155 
L 427.296222 452.727887 
L 428.928199 431.432113 
L 430.560175 449.178592 
L 432.192152 429.302535 
L 433.824129 447.758873 
L 435.456105 451.308169 
L 437.088082 432.141972 
L 438.720058 449.888451 
L 440.352035 437.820845 
L 441.984012 447.758873 
L 443.615988 449.888451 
L 445.247965 430.722254 
L 446.879942 444.209577 
L 448.511918 438.530704 
L 450.143895 447.049014 
L 451.775871 450.59831 
L 453.407848 430.722254 
L 455.039825 449.888451 
L 456.671801 436.401127 
L 458.303778 442.08 
L 459.935754 450.59831 
L 461.567731 427.172958 
L 463.199708 450.59831 
L 464.831684 437.110986 
L 466.463661 443.499718 
L 468.095637 449.178592 
L 469.727614 432.141972 
L 471.359591 448.468732 
L 472.991567 449.178592 
L 474.623544 435.691268 
L 476.25552 451.308169 
L 477.887497 432.851831 
L 479.519474 451.308169 
L 481.15145 449.888451 
L 482.783427 430.722254 
L 484.415403 447.049014 
L 486.04738 430.012394 
L 487.679357 450.59831 
L 489.311333 449.888451 
L 490.94331 427.882817 
L 492.575286 449.178592 
L 494.207263 431.432113 
L 495.83924 450.59831 
L 497.471216 450.59831 
L 499.103193 430.012394 
L 500.735169 452.727887 
L 502.367146 431.432113 
L 503.999123 449.178592 
L 505.631099 450.59831 
L 507.263076 430.012394 
L 508.895052 449.888451 
L 510.527029 432.851831 
L 512.159006 446.339155 
L 513.790982 450.59831 
L 515.422959 428.592676 
L 517.054935 450.59831 
L 518.686912 430.722254 
L 520.318889 449.178592 
L 521.950865 452.018028 
L 523.582842 432.851831 
L 525.214818 451.308169 
L 526.846795 432.141972 
L 528.478772 447.758873 
L 530.110748 450.59831 
L 531.742725 432.141972 
L 533.374701 451.308169 
L 535.006678 430.012394 
L 536.638655 449.178592 
L 538.270631 449.888451 
L 539.902608 430.012394 
L 541.534584 452.018028 
L 543.166561 433.56169 
L 544.798538 447.049014 
L 546.430514 451.308169 
L 548.062491 429.302535 
L 549.694467 449.888451 
L 551.326444 435.691268 
L 552.958421 450.59831 
L 554.590397 452.018028 
L 556.222374 426.463099 
L 557.85435 449.888451 
L 559.486327 427.882817 
L 561.118304 449.178592 
L 562.75028 451.308169 
L 564.382257 435.691268 
L 566.014233 449.178592 
L 567.64621 434.271549 
L 569.278187 449.178592 
L 570.910163 452.018028 
L 572.54214 429.302535 
L 574.174117 448.468732 
L 575.806093 436.401127 
L 577.43807 446.339155 
L 579.070046 450.59831 
L 580.702023 432.851831 
L 582.334 448.468732 
L 583.965976 434.271549 
L 585.597953 445.629296 
L 587.229929 449.888451 
L 588.861906 431.432113 
L 590.493883 447.049014 
L 592.125859 441.370141 
L 593.757836 444.919437 
L 595.389812 456.277183 
L 597.021789 432.141972 
L 598.653766 449.888451 
L 600.285742 451.308169 
L 601.917719 427.882817 
L 603.549695 452.727887 
L 605.181672 431.432113 
L 606.813649 449.888451 
L 608.445625 454.147606 
L 610.077602 428.592676 
L 611.709578 451.308169 
L 613.341555 431.432113 
L 614.973532 450.59831 
L 616.605508 449.888451 
L 618.237485 430.012394 
L 619.869461 447.758873 
L 621.501438 432.141972 
L 623.133415 449.888451 
L 624.765391 451.308169 
L 626.397368 430.012394 
L 628.029344 449.178592 
L 629.661321 432.141972 
L 631.293298 447.758873 
L 632.925274 450.59831 
L 634.557251 430.722254 
L 636.189227 451.308169 
L 637.821204 432.851831 
L 639.453181 447.758873 
L 641.085157 447.758873 
L 642.717134 430.722254 
L 644.34911 450.59831 
L 645.981087 432.851831 
L 647.613064 448.468732 
L 649.24504 449.888451 
L 650.877017 429.302535 
L 652.508993 450.59831 
L 654.14097 430.722254 
L 655.772947 449.178592 
L 657.404923 453.437746 
L 659.0369 433.56169 
L 660.668876 451.308169 
L 662.300853 432.141972 
L 663.93283 444.209577 
L 665.564806 449.178592 
L 667.196783 432.851831 
L 668.828759 449.178592 
L 670.460736 433.56169 
L 672.092713 446.339155 
L 673.724689 450.59831 
L 675.356666 433.56169 
L 676.988642 450.59831 
L 678.620619 433.56169 
L 680.252596 447.758873 
L 681.884572 449.178592 
L 683.516549 432.141972 
L 685.148525 450.59831 
L 686.780502 430.722254 
L 688.412479 447.758873 
L 690.044455 449.888451 
L 691.676432 430.012394 
L 693.308408 450.59831 
L 694.940385 435.691268 
L 696.572362 446.339155 
L 698.204338 448.468732 
L 699.836315 434.271549 
L 701.468291 444.919437 
L 703.100268 432.141972 
L 704.732245 447.049014 
L 706.364221 449.888451 
L 707.996198 432.851831 
L 709.628175 448.468732 
L 711.260151 438.530704 
L 712.892128 442.08 
L 714.524104 451.308169 
L 716.156081 428.592676 
L 717.788058 447.758873 
L 719.420034 449.178592 
L 721.052011 436.401127 
L 722.683987 452.018028 
L 724.315964 431.432113 
L 725.947941 448.468732 
L 727.579917 451.308169 
L 729.211894 430.722254 
L 730.84387 449.178592 
L 732.475847 435.691268 
L 734.107824 450.59831 
L 735.7398 450.59831 
L 737.371777 430.012394 
L 739.003753 448.468732 
L 740.63573 432.851831 
L 742.267707 449.178592 
L 743.899683 449.178592 
L 745.53166 431.432113 
L 747.163636 452.018028 
L 747.163636 452.018028 
" clip-path="url(#pe0ca7a8a3f)" style="fill: none; stroke: #5f9ea0; stroke-width: 1.5; stroke-linecap: round"/>
   </g>
   <g id="line2d_18">
    <path d="M 138.436364 89.28 
L 140.06834 117.674366 
L 141.700317 111.995493 
L 143.332293 134.710986 
L 144.96427 185.820845 
L 146.596247 202.857465 
L 148.228223 253.967324 
L 149.8602 214.215211 
L 151.492176 236.930704 
L 153.124153 214.215211 
L 156.388106 248.288451 
L 158.020083 208.536338 
L 159.652059 225.572958 
L 161.284036 208.536338 
L 162.916013 236.930704 
L 164.547989 248.288451 
L 166.179966 242.609577 
L 167.811942 225.572958 
L 169.443919 236.930704 
L 171.075896 236.930704 
L 172.707872 248.288451 
L 174.339849 231.251831 
L 175.971825 236.930704 
L 177.603802 225.572958 
L 179.235779 231.251831 
L 180.867755 259.646197 
L 182.499732 236.930704 
L 184.131709 219.894085 
L 185.763685 208.536338 
L 187.395662 231.251831 
L 189.027638 219.894085 
L 190.659615 202.857465 
L 192.291592 219.894085 
L 193.923568 208.536338 
L 195.555545 202.857465 
L 197.187521 225.572958 
L 198.819498 191.499718 
L 200.451475 225.572958 
L 202.083451 197.178592 
L 203.715428 202.857465 
L 205.347404 225.572958 
L 206.979381 202.857465 
L 210.243334 191.499718 
L 211.875311 191.499718 
L 213.507287 231.251831 
L 215.139264 202.857465 
L 216.771241 225.572958 
L 218.403217 231.251831 
L 220.035194 219.894085 
L 221.66717 236.930704 
L 223.299147 214.215211 
L 224.931124 225.572958 
L 226.5631 231.251831 
L 228.195077 197.178592 
L 229.827053 214.215211 
L 231.45903 214.215211 
L 233.091007 208.536338 
L 234.722983 236.930704 
L 236.35496 214.215211 
L 237.986936 231.251831 
L 239.618913 225.572958 
L 241.25089 231.251831 
L 242.882866 248.288451 
L 244.514843 208.536338 
L 246.146819 225.572958 
L 247.778796 197.178592 
L 249.410773 225.572958 
L 251.042749 231.251831 
L 252.674726 197.178592 
L 254.306702 225.572958 
L 255.938679 208.536338 
L 257.570656 225.572958 
L 259.202632 271.003944 
L 260.834609 214.215211 
L 262.466585 248.288451 
L 265.730539 236.930704 
L 267.362515 271.003944 
L 268.994492 236.930704 
L 270.626468 248.288451 
L 272.258445 236.930704 
L 273.890422 248.288451 
L 275.522398 271.003944 
L 277.154375 236.930704 
L 278.786351 259.646197 
L 280.418328 231.251831 
L 282.050305 253.967324 
L 283.682281 265.32507 
L 285.314258 242.609577 
L 286.946234 242.609577 
L 288.578211 236.930704 
L 290.210188 248.288451 
L 291.842164 265.32507 
L 293.474141 242.609577 
L 295.106117 259.646197 
L 296.738094 242.609577 
L 298.370071 248.288451 
L 300.002047 271.003944 
L 301.634024 231.251831 
L 303.266 253.967324 
L 304.897977 242.609577 
L 306.529954 248.288451 
L 308.16193 271.003944 
L 309.793907 225.572958 
L 313.05786 259.646197 
L 314.689837 242.609577 
L 316.321813 271.003944 
L 317.95379 242.609577 
L 319.585767 236.930704 
L 321.217743 253.967324 
L 322.84972 248.288451 
L 324.481696 259.646197 
L 326.113673 236.930704 
L 327.74565 242.609577 
L 329.377626 236.930704 
L 331.009603 242.609577 
L 332.641579 259.646197 
L 334.273556 225.572958 
L 335.905533 248.288451 
L 337.537509 253.967324 
L 339.169486 236.930704 
L 340.801462 253.967324 
L 342.433439 242.609577 
L 344.065416 242.609577 
L 345.697392 265.32507 
L 347.329369 236.930704 
L 348.961345 253.967324 
L 350.593322 231.251831 
L 352.225299 248.288451 
L 353.857275 271.003944 
L 355.489252 236.930704 
L 357.121228 259.646197 
L 358.753205 242.609577 
L 360.385182 236.930704 
L 362.017158 271.003944 
L 363.649135 236.930704 
L 365.281111 259.646197 
L 366.913088 225.572958 
L 368.545065 242.609577 
L 370.177041 276.682817 
L 371.809018 236.930704 
L 373.440994 259.646197 
L 375.072971 236.930704 
L 376.704948 242.609577 
L 378.336924 265.32507 
L 379.968901 242.609577 
L 381.600877 253.967324 
L 383.232854 236.930704 
L 384.864831 236.930704 
L 386.496807 259.646197 
L 388.128784 242.609577 
L 389.76076 253.967324 
L 391.392737 242.609577 
L 393.024714 253.967324 
L 394.65669 259.646197 
L 396.288667 248.288451 
L 397.920643 259.646197 
L 399.55262 242.609577 
L 401.184597 242.609577 
L 402.816573 271.003944 
L 404.44855 236.930704 
L 406.080526 248.288451 
L 407.712503 242.609577 
L 409.34448 248.288451 
L 410.976456 271.003944 
L 412.608433 242.609577 
L 415.872386 253.967324 
L 417.504363 253.967324 
L 419.136339 265.32507 
L 420.768316 242.609577 
L 422.400292 248.288451 
L 424.032269 248.288451 
L 425.664246 236.930704 
L 427.296222 271.003944 
L 428.928199 236.930704 
L 430.560175 248.288451 
L 432.192152 242.609577 
L 433.824129 231.251831 
L 435.456105 259.646197 
L 437.088082 248.288451 
L 438.720058 248.288451 
L 440.352035 236.930704 
L 443.615988 259.646197 
L 446.879942 236.930704 
L 448.511918 236.930704 
L 450.143895 265.32507 
L 451.775871 259.646197 
L 453.407848 242.609577 
L 455.039825 248.288451 
L 456.671801 259.646197 
L 458.303778 248.288451 
L 459.935754 259.646197 
L 461.567731 225.572958 
L 463.199708 242.609577 
L 464.831684 265.32507 
L 466.463661 248.288451 
L 468.095637 259.646197 
L 469.727614 231.251831 
L 471.359591 242.609577 
L 472.991567 271.003944 
L 474.623544 236.930704 
L 476.25552 253.967324 
L 477.887497 242.609577 
L 479.519474 242.609577 
L 481.15145 276.682817 
L 482.783427 236.930704 
L 484.415403 248.288451 
L 486.04738 236.930704 
L 487.679357 248.288451 
L 489.311333 265.32507 
L 490.94331 225.572958 
L 492.575286 259.646197 
L 494.207263 231.251831 
L 495.83924 253.967324 
L 497.471216 271.003944 
L 499.103193 242.609577 
L 500.735169 253.967324 
L 502.367146 248.288451 
L 503.999123 248.288451 
L 505.631099 271.003944 
L 507.263076 242.609577 
L 508.895052 248.288451 
L 510.527029 236.930704 
L 512.159006 248.288451 
L 513.790982 253.967324 
L 515.422959 242.609577 
L 517.054935 248.288451 
L 518.686912 231.251831 
L 521.950865 253.967324 
L 523.582842 242.609577 
L 525.214818 259.646197 
L 526.846795 242.609577 
L 528.478772 253.967324 
L 530.110748 259.646197 
L 531.742725 248.288451 
L 533.374701 253.967324 
L 535.006678 248.288451 
L 536.638655 231.251831 
L 538.270631 276.682817 
L 539.902608 242.609577 
L 541.534584 253.967324 
L 543.166561 253.967324 
L 544.798538 242.609577 
L 546.430514 271.003944 
L 548.062491 225.572958 
L 549.694467 248.288451 
L 551.326444 225.572958 
L 552.958421 265.32507 
L 554.590397 265.32507 
L 556.222374 231.251831 
L 557.85435 265.32507 
L 559.486327 231.251831 
L 561.118304 231.251831 
L 562.75028 253.967324 
L 564.382257 248.288451 
L 566.014233 265.32507 
L 567.64621 231.251831 
L 569.278187 271.003944 
L 570.910163 259.646197 
L 572.54214 242.609577 
L 574.174117 253.967324 
L 575.806093 248.288451 
L 577.43807 253.967324 
L 579.070046 253.967324 
L 580.702023 248.288451 
L 582.334 253.967324 
L 583.965976 242.609577 
L 587.229929 253.967324 
L 588.861906 248.288451 
L 590.493883 231.251831 
L 592.125859 259.646197 
L 593.757836 225.572958 
L 595.389812 265.32507 
L 597.021789 236.930704 
L 598.653766 248.288451 
L 600.285742 265.32507 
L 601.917719 236.930704 
L 603.549695 259.646197 
L 605.181672 236.930704 
L 606.813649 253.967324 
L 608.445625 265.32507 
L 610.077602 242.609577 
L 611.709578 253.967324 
L 613.341555 248.288451 
L 614.973532 253.967324 
L 616.605508 271.003944 
L 618.237485 231.251831 
L 619.869461 259.646197 
L 621.501438 248.288451 
L 623.133415 242.609577 
L 624.765391 276.682817 
L 626.397368 242.609577 
L 628.029344 248.288451 
L 629.661321 242.609577 
L 631.293298 248.288451 
L 632.925274 271.003944 
L 634.557251 225.572958 
L 636.189227 253.967324 
L 637.821204 236.930704 
L 639.453181 253.967324 
L 641.085157 265.32507 
L 642.717134 242.609577 
L 644.34911 242.609577 
L 645.981087 253.967324 
L 647.613064 242.609577 
L 649.24504 271.003944 
L 650.877017 225.572958 
L 652.508993 253.967324 
L 654.14097 242.609577 
L 655.772947 242.609577 
L 657.404923 271.003944 
L 659.0369 242.609577 
L 660.668876 259.646197 
L 662.300853 236.930704 
L 663.93283 253.967324 
L 665.564806 259.646197 
L 667.196783 231.251831 
L 668.828759 259.646197 
L 670.460736 248.288451 
L 672.092713 259.646197 
L 675.356666 248.288451 
L 678.620619 248.288451 
L 681.884572 259.646197 
L 683.516549 248.288451 
L 685.148525 242.609577 
L 686.780502 242.609577 
L 690.044455 253.967324 
L 691.676432 225.572958 
L 693.308408 259.646197 
L 694.940385 236.930704 
L 696.572362 253.967324 
L 699.836315 242.609577 
L 701.468291 248.288451 
L 703.100268 242.609577 
L 704.732245 242.609577 
L 706.364221 253.967324 
L 707.996198 242.609577 
L 711.260151 253.967324 
L 712.892128 248.288451 
L 714.524104 248.288451 
L 717.788058 236.930704 
L 719.420034 259.646197 
L 721.052011 242.609577 
L 722.683987 259.646197 
L 724.315964 242.609577 
L 725.947941 248.288451 
L 727.579917 265.32507 
L 729.211894 225.572958 
L 730.84387 253.967324 
L 734.107824 242.609577 
L 735.7398 276.682817 
L 737.371777 225.572958 
L 739.003753 248.288451 
L 740.63573 248.288451 
L 742.267707 236.930704 
L 743.899683 265.32507 
L 745.53166 248.288451 
L 747.163636 253.967324 
L 747.163636 253.967324 
" clip-path="url(#pe0ca7a8a3f)" style="fill: none; stroke: #f08080; stroke-width: 1.5; stroke-linecap: round"/>
   </g>
   <g id="line2d_19">
    <path d="M 138.436364 492.48 
L 141.700317 492.48 
L 143.332293 464.085634 
L 144.96427 458.406761 
L 146.596247 469.764507 
L 149.8602 447.049014 
L 151.492176 464.085634 
L 153.124153 452.727887 
L 154.75613 469.764507 
L 156.388106 469.764507 
L 158.020083 458.406761 
L 159.652059 464.085634 
L 161.284036 458.406761 
L 162.916013 441.370141 
L 164.547989 458.406761 
L 166.179966 441.370141 
L 167.811942 458.406761 
L 169.443919 452.727887 
L 171.075896 469.764507 
L 174.339849 458.406761 
L 175.971825 469.764507 
L 177.603802 469.764507 
L 179.235779 481.122254 
L 180.867755 475.44338 
L 184.131709 475.44338 
L 185.763685 469.764507 
L 187.395662 475.44338 
L 190.659615 475.44338 
L 192.291592 464.085634 
L 193.923568 464.085634 
L 195.555545 481.122254 
L 197.187521 475.44338 
L 198.819498 475.44338 
L 200.451475 481.122254 
L 202.083451 475.44338 
L 203.715428 481.122254 
L 205.347404 475.44338 
L 206.979381 475.44338 
L 208.611358 481.122254 
L 210.243334 469.764507 
L 211.875311 475.44338 
L 213.507287 469.764507 
L 215.139264 458.406761 
L 216.771241 469.764507 
L 220.035194 458.406761 
L 221.66717 458.406761 
L 223.299147 464.085634 
L 224.931124 481.122254 
L 226.5631 481.122254 
L 228.195077 475.44338 
L 229.827053 481.122254 
L 231.45903 475.44338 
L 233.091007 475.44338 
L 234.722983 469.764507 
L 236.35496 458.406761 
L 237.986936 464.085634 
L 239.618913 458.406761 
L 241.25089 464.085634 
L 242.882866 464.085634 
L 244.514843 469.764507 
L 246.146819 481.122254 
L 247.778796 475.44338 
L 249.410773 481.122254 
L 251.042749 475.44338 
L 252.674726 464.085634 
L 254.306702 469.764507 
L 255.938679 452.727887 
L 259.202632 452.727887 
L 260.834609 441.370141 
L 262.466585 458.406761 
L 264.098562 441.370141 
L 265.730539 458.406761 
L 267.362515 452.727887 
L 268.994492 435.691268 
L 270.626468 452.727887 
L 272.258445 441.370141 
L 275.522398 452.727887 
L 277.154375 441.370141 
L 278.786351 447.049014 
L 280.418328 441.370141 
L 282.050305 458.406761 
L 283.682281 452.727887 
L 285.314258 435.691268 
L 286.946234 441.370141 
L 288.578211 424.333521 
L 291.842164 435.691268 
L 293.474141 418.654648 
L 295.106117 435.691268 
L 296.738094 430.012394 
L 298.370071 458.406761 
L 300.002047 441.370141 
L 301.634024 441.370141 
L 303.266 452.727887 
L 304.897977 430.012394 
L 306.529954 452.727887 
L 308.16193 447.049014 
L 309.793907 424.333521 
L 311.425883 435.691268 
L 313.05786 418.654648 
L 314.689837 441.370141 
L 316.321813 452.727887 
L 317.95379 441.370141 
L 319.585767 447.049014 
L 321.217743 435.691268 
L 324.481696 458.406761 
L 326.113673 441.370141 
L 327.74565 452.727887 
L 329.377626 435.691268 
L 332.641579 458.406761 
L 334.273556 435.691268 
L 335.905533 447.049014 
L 339.169486 447.049014 
L 340.801462 435.691268 
L 342.433439 441.370141 
L 344.065416 452.727887 
L 345.697392 441.370141 
L 347.329369 441.370141 
L 348.961345 452.727887 
L 350.593322 430.012394 
L 352.225299 447.049014 
L 353.857275 447.049014 
L 355.489252 418.654648 
L 357.121228 441.370141 
L 358.753205 441.370141 
L 360.385182 458.406761 
L 363.649135 435.691268 
L 365.281111 458.406761 
L 366.913088 441.370141 
L 368.545065 447.049014 
L 370.177041 447.049014 
L 371.809018 430.012394 
L 373.440994 452.727887 
L 375.072971 441.370141 
L 376.704948 452.727887 
L 378.336924 447.049014 
L 379.968901 435.691268 
L 381.600877 447.049014 
L 383.232854 441.370141 
L 384.864831 458.406761 
L 386.496807 441.370141 
L 388.128784 435.691268 
L 389.76076 447.049014 
L 391.392737 424.333521 
L 393.024714 441.370141 
L 394.65669 447.049014 
L 396.288667 441.370141 
L 397.920643 452.727887 
L 399.55262 441.370141 
L 401.184597 447.049014 
L 402.816573 441.370141 
L 404.44855 441.370141 
L 406.080526 447.049014 
L 407.712503 418.654648 
L 409.34448 435.691268 
L 410.976456 435.691268 
L 412.608433 424.333521 
L 414.240409 447.049014 
L 415.872386 430.012394 
L 417.504363 441.370141 
L 419.136339 447.049014 
L 420.768316 441.370141 
L 422.400292 458.406761 
L 424.032269 435.691268 
L 425.664246 447.049014 
L 427.296222 452.727887 
L 428.928199 430.012394 
L 430.560175 458.406761 
L 432.192152 441.370141 
L 433.824129 452.727887 
L 435.456105 441.370141 
L 437.088082 441.370141 
L 438.720058 458.406761 
L 440.352035 441.370141 
L 441.984012 441.370141 
L 443.615988 458.406761 
L 445.247965 441.370141 
L 446.879942 447.049014 
L 448.511918 435.691268 
L 450.143895 447.049014 
L 451.775871 441.370141 
L 453.407848 424.333521 
L 455.039825 447.049014 
L 456.671801 441.370141 
L 459.935754 452.727887 
L 461.567731 441.370141 
L 463.199708 435.691268 
L 464.831684 441.370141 
L 466.463661 441.370141 
L 468.095637 458.406761 
L 469.727614 435.691268 
L 472.991567 435.691268 
L 474.623544 441.370141 
L 476.25552 458.406761 
L 477.887497 435.691268 
L 479.519474 447.049014 
L 482.783427 447.049014 
L 484.415403 452.727887 
L 486.04738 435.691268 
L 487.679357 447.049014 
L 489.311333 447.049014 
L 490.94331 441.370141 
L 492.575286 452.727887 
L 494.207263 435.691268 
L 497.471216 447.049014 
L 499.103193 418.654648 
L 500.735169 441.370141 
L 503.999123 441.370141 
L 505.631099 458.406761 
L 507.263076 441.370141 
L 508.895052 447.049014 
L 510.527029 435.691268 
L 512.159006 452.727887 
L 513.790982 452.727887 
L 515.422959 441.370141 
L 517.054935 447.049014 
L 518.686912 441.370141 
L 520.318889 452.727887 
L 521.950865 447.049014 
L 523.582842 435.691268 
L 525.214818 447.049014 
L 526.846795 418.654648 
L 528.478772 441.370141 
L 530.110748 441.370141 
L 531.742725 424.333521 
L 533.374701 447.049014 
L 535.006678 435.691268 
L 536.638655 447.049014 
L 538.270631 435.691268 
L 539.902608 418.654648 
L 541.534584 447.049014 
L 543.166561 430.012394 
L 544.798538 458.406761 
L 546.430514 452.727887 
L 548.062491 441.370141 
L 549.694467 452.727887 
L 551.326444 430.012394 
L 552.958421 447.049014 
L 554.590397 458.406761 
L 556.222374 441.370141 
L 557.85435 447.049014 
L 559.486327 435.691268 
L 561.118304 458.406761 
L 562.75028 435.691268 
L 564.382257 435.691268 
L 566.014233 441.370141 
L 567.64621 424.333521 
L 569.278187 441.370141 
L 570.910163 452.727887 
L 572.54214 435.691268 
L 574.174117 441.370141 
L 575.806093 430.012394 
L 577.43807 441.370141 
L 579.070046 447.049014 
L 580.702023 435.691268 
L 582.334 458.406761 
L 583.965976 447.049014 
L 585.597953 441.370141 
L 587.229929 447.049014 
L 588.861906 441.370141 
L 590.493883 452.727887 
L 593.757836 441.370141 
L 595.389812 447.049014 
L 597.021789 441.370141 
L 598.653766 452.727887 
L 600.285742 447.049014 
L 601.917719 435.691268 
L 603.549695 441.370141 
L 605.181672 424.333521 
L 606.813649 441.370141 
L 608.445625 447.049014 
L 610.077602 435.691268 
L 611.709578 441.370141 
L 613.341555 435.691268 
L 614.973532 441.370141 
L 616.605508 452.727887 
L 618.237485 430.012394 
L 619.869461 447.049014 
L 621.501438 418.654648 
L 623.133415 447.049014 
L 624.765391 447.049014 
L 626.397368 435.691268 
L 628.029344 447.049014 
L 629.661321 435.691268 
L 631.293298 458.406761 
L 632.925274 452.727887 
L 634.557251 435.691268 
L 636.189227 441.370141 
L 637.821204 435.691268 
L 639.453181 452.727887 
L 641.085157 452.727887 
L 642.717134 430.012394 
L 645.981087 441.370141 
L 647.613064 452.727887 
L 649.24504 452.727887 
L 650.877017 441.370141 
L 652.508993 435.691268 
L 654.14097 424.333521 
L 655.772947 441.370141 
L 657.404923 441.370141 
L 659.0369 435.691268 
L 660.668876 452.727887 
L 662.300853 441.370141 
L 663.93283 458.406761 
L 665.564806 441.370141 
L 667.196783 435.691268 
L 668.828759 435.691268 
L 670.460736 418.654648 
L 672.092713 447.049014 
L 675.356666 424.333521 
L 676.988642 452.727887 
L 678.620619 430.012394 
L 680.252596 452.727887 
L 681.884572 452.727887 
L 683.516549 441.370141 
L 685.148525 452.727887 
L 686.780502 447.049014 
L 688.412479 435.691268 
L 690.044455 447.049014 
L 691.676432 441.370141 
L 693.308408 452.727887 
L 696.572362 441.370141 
L 698.204338 458.406761 
L 699.836315 435.691268 
L 701.468291 452.727887 
L 703.100268 441.370141 
L 704.732245 452.727887 
L 706.364221 447.049014 
L 707.996198 424.333521 
L 709.628175 447.049014 
L 711.260151 441.370141 
L 712.892128 441.370141 
L 714.524104 452.727887 
L 716.156081 441.370141 
L 717.788058 458.406761 
L 719.420034 441.370141 
L 721.052011 430.012394 
L 722.683987 441.370141 
L 724.315964 441.370141 
L 725.947941 447.049014 
L 727.579917 458.406761 
L 729.211894 435.691268 
L 730.84387 447.049014 
L 732.475847 430.012394 
L 734.107824 441.370141 
L 735.7398 458.406761 
L 737.371777 441.370141 
L 739.003753 447.049014 
L 740.63573 435.691268 
L 742.267707 452.727887 
L 743.899683 452.727887 
L 745.53166 424.333521 
L 747.163636 441.370141 
L 747.163636 441.370141 
" clip-path="url(#pe0ca7a8a3f)" style="fill: none; stroke: #f4a460; stroke-width: 1.5; stroke-linecap: round"/>
   </g>
   <g id="patch_3">
    <path d="M 108 512.64 
L 108 69.12 
" style="fill: none; stroke: #262626; stroke-width: 1.25; stroke-linejoin: miter; stroke-linecap: square"/>
   </g>
   <g id="patch_4">
    <path d="M 108 512.64 
L 777.6 512.64 
" style="fill: none; stroke: #262626; stroke-width: 1.25; stroke-linejoin: miter; stroke-linecap: square"/>
   </g>
   <g id="text_19">
    <!-- Frequeny vs Time -->
    <g style="fill: #262626" transform="translate(395.11875 63.12) scale(0.12 -0.12)">
     <defs>
      <path id="LiberationSans-76" d="M 1916 0 
L 1250 0 
L 22 3381 
L 622 3381 
L 1366 1181 
Q 1406 1056 1581 441 
L 1691 806 
L 1813 1175 
L 2581 3381 
L 3178 3381 
L 1916 0 
z
" transform="scale(0.015625)"/>
     </defs>
     <use xlink:href="#LiberationSans-46"/>
     <use xlink:href="#LiberationSans-72" x="61.083984"/>
     <use xlink:href="#LiberationSans-65" x="94.384766"/>
     <use xlink:href="#LiberationSans-71" x="150"/>
     <use xlink:href="#LiberationSans-75" x="205.615234"/>
     <use xlink:href="#LiberationSans-65" x="261.230469"/>
     <use xlink:href="#LiberationSans-6e" x="316.845703"/>
     <use xlink:href="#LiberationSans-79" x="372.460938"/>
     <use xlink:href="#LiberationSans-20" x="422.460938"/>
     <use xlink:href="#LiberationSans-76" x="450.244141"/>
     <use xlink:href="#LiberationSans-73" x="500.244141"/>
     <use xlink:href="#LiberationSans-20" x="550.244141"/>
     <use xlink:href="#LiberationSans-54" x="576.277344"/>
     <use xlink:href="#LiberationSans-69" x="633.611328"/>
     <use xlink:href="#LiberationSans-6d" x="655.828125"/>
     <use xlink:href="#LiberationSans-65" x="739.128906"/>
    </g>
   </g>
   <g id="legend_1">
    <g id="line2d_20">
     <path d="M 676.678125 81.866875 
L 686.678125 81.866875 
L 696.678125 81.866875 
" style="fill: none; stroke: #5f9ea0; stroke-width: 1.5; stroke-linecap: round"/>
    </g>
    <g id="text_20">
     <!--  PC_neurons -->
     <g style="fill: #262626" transform="translate(704.678125 85.366875) scale(0.1 -0.1)">
      <defs>
       <path id="LiberationSans-50" d="M 3931 3078 
Q 3931 2453 3523 2084 
Q 3116 1716 2416 1716 
L 1122 1716 
L 1122 0 
L 525 0 
L 525 4403 
L 2378 4403 
Q 3119 4403 3525 4056 
Q 3931 3709 3931 3078 
z
M 3331 3072 
Q 3331 3925 2306 3925 
L 1122 3925 
L 1122 2188 
L 2331 2188 
Q 3331 2188 3331 3072 
z
" transform="scale(0.015625)"/>
       <path id="LiberationSans-43" d="M 2475 3981 
Q 1744 3981 1337 3511 
Q 931 3041 931 2222 
Q 931 1413 1354 920 
Q 1778 428 2500 428 
Q 3425 428 3891 1344 
L 4378 1100 
Q 4106 531 3614 234 
Q 3122 -63 2472 -63 
Q 1806 -63 1320 214 
Q 834 491 579 1005 
Q 325 1519 325 2222 
Q 325 3275 894 3872 
Q 1463 4469 2469 4469 
Q 3172 4469 3644 4194 
Q 4116 3919 4338 3378 
L 3772 3191 
Q 3619 3575 3280 3778 
Q 2941 3981 2475 3981 
z
" transform="scale(0.015625)"/>
       <path id="LiberationSans-5f" d="M -97 -1272 
L -97 -866 
L 3631 -866 
L 3631 -1272 
L -97 -1272 
z
" transform="scale(0.015625)"/>
       <path id="LiberationSans-6f" d="M 3291 1694 
Q 3291 806 2900 371 
Q 2509 -63 1766 -63 
Q 1025 -63 647 389 
Q 269 841 269 1694 
Q 269 3444 1784 3444 
Q 2559 3444 2925 3017 
Q 3291 2591 3291 1694 
z
M 2700 1694 
Q 2700 2394 2492 2711 
Q 2284 3028 1794 3028 
Q 1300 3028 1079 2704 
Q 859 2381 859 1694 
Q 859 1025 1076 689 
Q 1294 353 1759 353 
Q 2266 353 2483 678 
Q 2700 1003 2700 1694 
z
" transform="scale(0.015625)"/>
      </defs>
      <use xlink:href="#LiberationSans-20"/>
      <use xlink:href="#LiberationSans-50" x="27.783203"/>
      <use xlink:href="#LiberationSans-43" x="94.482422"/>
      <use xlink:href="#LiberationSans-5f" x="166.699219"/>
      <use xlink:href="#LiberationSans-6e" x="222.314453"/>
      <use xlink:href="#LiberationSans-65" x="277.929688"/>
      <use xlink:href="#LiberationSans-75" x="333.544922"/>
      <use xlink:href="#LiberationSans-72" x="389.160156"/>
      <use xlink:href="#LiberationSans-6f" x="422.460938"/>
      <use xlink:href="#LiberationSans-6e" x="478.076172"/>
      <use xlink:href="#LiberationSans-73" x="533.691406"/>
     </g>
    </g>
    <g id="line2d_21">
     <path d="M 676.678125 96.18875 
L 686.678125 96.18875 
L 696.678125 96.18875 
" style="fill: none; stroke: #f08080; stroke-width: 1.5; stroke-linecap: round"/>
    </g>
    <g id="text_21">
     <!--  PV_neurons -->
     <g style="fill: #262626" transform="translate(704.678125 99.68875) scale(0.1 -0.1)">
      <defs>
       <path id="LiberationSans-56" d="M 2444 0 
L 1825 0 
L 28 4403 
L 656 4403 
L 1875 1303 
L 2138 525 
L 2400 1303 
L 3613 4403 
L 4241 4403 
L 2444 0 
z
" transform="scale(0.015625)"/>
      </defs>
      <use xlink:href="#LiberationSans-20"/>
      <use xlink:href="#LiberationSans-50" x="27.783203"/>
      <use xlink:href="#LiberationSans-56" x="94.482422"/>
      <use xlink:href="#LiberationSans-5f" x="161.181641"/>
      <use xlink:href="#LiberationSans-6e" x="216.796875"/>
      <use xlink:href="#LiberationSans-65" x="272.412109"/>
      <use xlink:href="#LiberationSans-75" x="328.027344"/>
      <use xlink:href="#LiberationSans-72" x="383.642578"/>
      <use xlink:href="#LiberationSans-6f" x="416.943359"/>
      <use xlink:href="#LiberationSans-6e" x="472.558594"/>
      <use xlink:href="#LiberationSans-73" x="528.173828"/>
     </g>
    </g>
    <g id="line2d_22">
     <path d="M 676.678125 110.510625 
L 686.678125 110.510625 
L 696.678125 110.510625 
" style="fill: none; stroke: #f4a460; stroke-width: 1.5; stroke-linecap: round"/>
    </g>
    <g id="text_22">
     <!--  SST_neurons -->
     <g style="fill: #262626" transform="translate(704.678125 114.010625) scale(0.1 -0.1)">
      <defs>
       <path id="LiberationSans-53" d="M 3975 1216 
Q 3975 606 3498 271 
Q 3022 -63 2156 -63 
Q 547 -63 291 1056 
L 869 1172 
Q 969 775 1294 589 
Q 1619 403 2178 403 
Q 2756 403 3070 601 
Q 3384 800 3384 1184 
Q 3384 1400 3286 1534 
Q 3188 1669 3009 1756 
Q 2831 1844 2584 1903 
Q 2338 1963 2038 2031 
Q 1516 2147 1245 2262 
Q 975 2378 819 2520 
Q 663 2663 580 2853 
Q 497 3044 497 3291 
Q 497 3856 930 4162 
Q 1363 4469 2169 4469 
Q 2919 4469 3316 4239 
Q 3713 4009 3872 3456 
L 3284 3353 
Q 3188 3703 2916 3861 
Q 2644 4019 2163 4019 
Q 1634 4019 1356 3844 
Q 1078 3669 1078 3322 
Q 1078 3119 1186 2986 
Q 1294 2853 1497 2761 
Q 1700 2669 2306 2534 
Q 2509 2488 2711 2439 
Q 2913 2391 3097 2323 
Q 3281 2256 3442 2165 
Q 3603 2075 3722 1944 
Q 3841 1813 3908 1634 
Q 3975 1456 3975 1216 
z
" transform="scale(0.015625)"/>
      </defs>
      <use xlink:href="#LiberationSans-20"/>
      <use xlink:href="#LiberationSans-53" x="27.783203"/>
      <use xlink:href="#LiberationSans-53" x="94.482422"/>
      <use xlink:href="#LiberationSans-54" x="161.181641"/>
      <use xlink:href="#LiberationSans-5f" x="222.265625"/>
      <use xlink:href="#LiberationSans-6e" x="277.880859"/>
      <use xlink:href="#LiberationSans-65" x="333.496094"/>
      <use xlink:href="#LiberationSans-75" x="389.111328"/>
      <use xlink:href="#LiberationSans-72" x="444.726562"/>
      <use xlink:href="#LiberationSans-6f" x="478.027344"/>
      <use xlink:href="#LiberationSans-6e" x="533.642578"/>
      <use xlink:href="#LiberationSans-73" x="589.257812"/>
     </g>
    </g>
   </g>
  </g>
  <g id="text_23">
   <g id="patch_5">
    <path d="M 604.8 494.1675 
L 674.329219 494.1675 
Q 677.029219 494.1675 677.029219 491.4675 
L 677.029219 483.077813 
Q 677.029219 480.377813 674.329219 480.377813 
L 604.8 480.377813 
Q 602.1 480.377813 602.1 483.077813 
L 602.1 491.4675 
Q 602.1 494.1675 604.8 494.1675 
z
" style="fill: #ffffff; stroke: #000000; stroke-linejoin: miter"/>
   </g>
   <!-- Input Freq: 60 Hz -->
   <g style="fill: #262626" transform="translate(604.8 489.6) scale(0.09 -0.09)">
    <defs>
     <path id="LiberationSans-49" d="M 591 0 
L 591 4403 
L 1188 4403 
L 1188 0 
L 591 0 
z
" transform="scale(0.015625)"/>
     <path id="LiberationSans-3a" d="M 584 2734 
L 584 3381 
L 1194 3381 
L 1194 2734 
L 584 2734 
z
M 584 0 
L 584 647 
L 1194 647 
L 1194 0 
L 584 0 
z
" transform="scale(0.015625)"/>
    </defs>
    <use xlink:href="#LiberationSans-49"/>
    <use xlink:href="#LiberationSans-6e" x="27.783203"/>
    <use xlink:href="#LiberationSans-70" x="83.398438"/>
    <use xlink:href="#LiberationSans-75" x="139.013672"/>
    <use xlink:href="#LiberationSans-74" x="194.628906"/>
    <use xlink:href="#LiberationSans-20" x="222.412109"/>
    <use xlink:href="#LiberationSans-46" x="250.195312"/>
    <use xlink:href="#LiberationSans-72" x="311.279297"/>
    <use xlink:href="#LiberationSans-65" x="344.580078"/>
    <use xlink:href="#LiberationSans-71" x="400.195312"/>
    <use xlink:href="#LiberationSans-3a" x="455.810547"/>
    <use xlink:href="#LiberationSans-20" x="483.59375"/>
    <use xlink:href="#LiberationSans-36" x="511.376953"/>
    <use xlink:href="#LiberationSans-30" x="566.992188"/>
    <use xlink:href="#LiberationSans-20" x="622.607422"/>
    <use xlink:href="#LiberationSans-48" x="650.390625"/>
    <use xlink:href="#LiberationSans-7a" x="722.607422"/>
   </g>
  </g>
 </g>
 <defs>
  <clipPath id="pe0ca7a8a3f">
   <rect x="108" y="69.12" width="669.6" height="443.52"/>
  </clipPath>
 </defs>
</svg>
