<?xml version="1.0" encoding="utf-8" standalone="no"?>
<!DOCTYPE svg PUBLIC "-//W3C//DTD SVG 1.1//EN"
  "http://www.w3.org/Graphics/SVG/1.1/DTD/svg11.dtd">
<svg xmlns:xlink="http://www.w3.org/1999/xlink" width="864pt" height="576pt" viewBox="0 0 864 576" xmlns="http://www.w3.org/2000/svg" version="1.1">
 <metadata>
  <rdf:RDF xmlns:dc="http://purl.org/dc/elements/1.1/" xmlns:cc="http://creativecommons.org/ns#" xmlns:rdf="http://www.w3.org/1999/02/22-rdf-syntax-ns#">
   <cc:Work>
    <dc:type rdf:resource="http://purl.org/dc/dcmitype/StillImage"/>
    <dc:date>2023-08-07T15:04:43.800656</dc:date>
    <dc:format>image/svg+xml</dc:format>
    <dc:creator>
     <cc:Agent>
      <dc:title>Matplotlib v3.7.1, https://matplotlib.org/</dc:title>
     </cc:Agent>
    </dc:creator>
   </cc:Work>
  </rdf:RDF>
 </metadata>
 <defs>
  <style type="text/css">*{stroke-linejoin: round; stroke-linecap: butt}</style>
 </defs>
 <g id="figure_1">
  <g id="patch_1">
   <path d="M 0 576 
L 864 576 
L 864 0 
L 0 0 
z
" style="fill: #ffffff"/>
  </g>
  <g id="axes_1">
   <g id="patch_2">
    <path d="M 108 512.64 
L 777.6 512.64 
L 777.6 69.12 
L 108 69.12 
z
" style="fill: #ffffff"/>
   </g>
   <g id="matplotlib.axis_1">
    <g id="xtick_1">
     <g id="line2d_1"/>
     <g id="text_1">
      <!-- 0 -->
      <g style="fill: #262626" transform="translate(135.655895 523.386875) scale(0.1 -0.1)">
       <defs>
        <path id="LiberationSans-30" d="M 3309 2203 
Q 3309 1100 2920 518 
Q 2531 -63 1772 -63 
Q 1013 -63 631 515 
Q 250 1094 250 2203 
Q 250 3338 620 3903 
Q 991 4469 1791 4469 
Q 2569 4469 2939 3897 
Q 3309 3325 3309 2203 
z
M 2738 2203 
Q 2738 3156 2517 3584 
Q 2297 4013 1791 4013 
Q 1272 4013 1045 3591 
Q 819 3169 819 2203 
Q 819 1266 1048 831 
Q 1278 397 1778 397 
Q 2275 397 2506 840 
Q 2738 1284 2738 2203 
z
" transform="scale(0.015625)"/>
       </defs>
       <use xlink:href="#LiberationSans-30"/>
      </g>
     </g>
    </g>
    <g id="xtick_2">
     <g id="line2d_2"/>
     <g id="text_2">
      <!-- 2 -->
      <g style="fill: #262626" transform="translate(258.383168 523.386875) scale(0.1 -0.1)">
       <defs>
        <path id="LiberationSans-32" d="M 322 0 
L 322 397 
Q 481 763 711 1042 
Q 941 1322 1194 1548 
Q 1447 1775 1695 1969 
Q 1944 2163 2144 2356 
Q 2344 2550 2467 2762 
Q 2591 2975 2591 3244 
Q 2591 3606 2378 3806 
Q 2166 4006 1788 4006 
Q 1428 4006 1195 3811 
Q 963 3616 922 3263 
L 347 3316 
Q 409 3844 795 4156 
Q 1181 4469 1788 4469 
Q 2453 4469 2811 4155 
Q 3169 3841 3169 3263 
Q 3169 3006 3051 2753 
Q 2934 2500 2703 2247 
Q 2472 1994 1819 1463 
Q 1459 1169 1246 933 
Q 1034 697 941 478 
L 3238 478 
L 3238 0 
L 322 0 
z
" transform="scale(0.015625)"/>
       </defs>
       <use xlink:href="#LiberationSans-32"/>
      </g>
     </g>
    </g>
    <g id="xtick_3">
     <g id="line2d_3"/>
     <g id="text_3">
      <!-- 4 -->
      <g style="fill: #262626" transform="translate(381.11044 523.386875) scale(0.1 -0.1)">
       <defs>
        <path id="LiberationSans-34" d="M 2753 997 
L 2753 0 
L 2222 0 
L 2222 997 
L 147 997 
L 147 1434 
L 2163 4403 
L 2753 4403 
L 2753 1441 
L 3372 1441 
L 3372 997 
L 2753 997 
z
M 2222 3769 
Q 2216 3750 2134 3603 
Q 2053 3456 2013 3397 
L 884 1734 
L 716 1503 
L 666 1441 
L 2222 1441 
L 2222 3769 
z
" transform="scale(0.015625)"/>
       </defs>
       <use xlink:href="#LiberationSans-34"/>
      </g>
     </g>
    </g>
    <g id="xtick_4">
     <g id="line2d_4"/>
     <g id="text_4">
      <!-- 6 -->
      <g style="fill: #262626" transform="translate(503.837713 523.386875) scale(0.1 -0.1)">
       <defs>
        <path id="LiberationSans-36" d="M 3278 1441 
Q 3278 744 2900 340 
Q 2522 -63 1856 -63 
Q 1113 -63 719 490 
Q 325 1044 325 2100 
Q 325 3244 734 3856 
Q 1144 4469 1900 4469 
Q 2897 4469 3156 3572 
L 2619 3475 
Q 2453 4013 1894 4013 
Q 1413 4013 1148 3564 
Q 884 3116 884 2266 
Q 1038 2550 1316 2698 
Q 1594 2847 1953 2847 
Q 2563 2847 2920 2465 
Q 3278 2084 3278 1441 
z
M 2706 1416 
Q 2706 1894 2472 2153 
Q 2238 2413 1819 2413 
Q 1425 2413 1183 2183 
Q 941 1953 941 1550 
Q 941 1041 1192 716 
Q 1444 391 1838 391 
Q 2244 391 2475 664 
Q 2706 938 2706 1416 
z
" transform="scale(0.015625)"/>
       </defs>
       <use xlink:href="#LiberationSans-36"/>
      </g>
     </g>
    </g>
    <g id="xtick_5">
     <g id="line2d_5"/>
     <g id="text_5">
      <!-- 8 -->
      <g style="fill: #262626" transform="translate(626.564986 523.386875) scale(0.1 -0.1)">
       <defs>
        <path id="LiberationSans-38" d="M 3281 1228 
Q 3281 619 2893 278 
Q 2506 -63 1781 -63 
Q 1075 -63 676 271 
Q 278 606 278 1222 
Q 278 1653 525 1947 
Q 772 2241 1156 2303 
L 1156 2316 
Q 797 2400 589 2681 
Q 381 2963 381 3341 
Q 381 3844 757 4156 
Q 1134 4469 1769 4469 
Q 2419 4469 2795 4162 
Q 3172 3856 3172 3334 
Q 3172 2956 2962 2675 
Q 2753 2394 2391 2322 
L 2391 2309 
Q 2813 2241 3047 1952 
Q 3281 1663 3281 1228 
z
M 2588 3303 
Q 2588 4050 1769 4050 
Q 1372 4050 1164 3862 
Q 956 3675 956 3303 
Q 956 2925 1170 2726 
Q 1384 2528 1775 2528 
Q 2172 2528 2380 2711 
Q 2588 2894 2588 3303 
z
M 2697 1281 
Q 2697 1691 2453 1898 
Q 2209 2106 1769 2106 
Q 1341 2106 1100 1882 
Q 859 1659 859 1269 
Q 859 359 1788 359 
Q 2247 359 2472 579 
Q 2697 800 2697 1281 
z
" transform="scale(0.015625)"/>
       </defs>
       <use xlink:href="#LiberationSans-38"/>
      </g>
     </g>
    </g>
    <g id="xtick_6">
     <g id="line2d_6"/>
     <g id="text_6">
      <!-- 10 -->
      <g style="fill: #262626" transform="translate(746.51179 523.386875) scale(0.1 -0.1)">
       <defs>
        <path id="LiberationSans-31" d="M 488 0 
L 488 478 
L 1609 478 
L 1609 3866 
L 616 3156 
L 616 3688 
L 1656 4403 
L 2175 4403 
L 2175 478 
L 3247 478 
L 3247 0 
L 488 0 
z
" transform="scale(0.015625)"/>
       </defs>
       <use xlink:href="#LiberationSans-31"/>
       <use xlink:href="#LiberationSans-30" x="55.615234"/>
      </g>
     </g>
    </g>
    <g id="text_7">
     <!-- Time (s) -->
     <g style="fill: #262626" transform="translate(424.658594 536.70875) scale(0.1 -0.1)">
      <defs>
       <path id="LiberationSans-54" d="M 2250 3916 
L 2250 0 
L 1656 0 
L 1656 3916 
L 144 3916 
L 144 4403 
L 3763 4403 
L 3763 3916 
L 2250 3916 
z
" transform="scale(0.015625)"/>
       <path id="LiberationSans-69" d="M 428 4100 
L 428 4638 
L 991 4638 
L 991 4100 
L 428 4100 
z
M 428 0 
L 428 3381 
L 991 3381 
L 991 0 
L 428 0 
z
" transform="scale(0.015625)"/>
       <path id="LiberationSans-6d" d="M 2400 0 
L 2400 2144 
Q 2400 2634 2265 2821 
Q 2131 3009 1781 3009 
Q 1422 3009 1212 2734 
Q 1003 2459 1003 1959 
L 1003 0 
L 444 0 
L 444 2659 
Q 444 3250 425 3381 
L 956 3381 
Q 959 3366 962 3297 
Q 966 3228 970 3139 
Q 975 3050 981 2803 
L 991 2803 
Q 1172 3163 1406 3303 
Q 1641 3444 1978 3444 
Q 2363 3444 2586 3291 
Q 2809 3138 2897 2803 
L 2906 2803 
Q 3081 3144 3329 3294 
Q 3578 3444 3931 3444 
Q 4444 3444 4676 3166 
Q 4909 2888 4909 2253 
L 4909 0 
L 4353 0 
L 4353 2144 
Q 4353 2634 4218 2821 
Q 4084 3009 3734 3009 
Q 3366 3009 3161 2736 
Q 2956 2463 2956 1959 
L 2956 0 
L 2400 0 
z
" transform="scale(0.015625)"/>
       <path id="LiberationSans-65" d="M 863 1572 
Q 863 991 1103 675 
Q 1344 359 1806 359 
Q 2172 359 2392 506 
Q 2613 653 2691 878 
L 3184 738 
Q 2881 -63 1806 -63 
Q 1056 -63 664 384 
Q 272 831 272 1713 
Q 272 2550 664 2997 
Q 1056 3444 1784 3444 
Q 3275 3444 3275 1647 
L 3275 1572 
L 863 1572 
z
M 2694 2003 
Q 2647 2538 2422 2783 
Q 2197 3028 1775 3028 
Q 1366 3028 1127 2754 
Q 888 2481 869 2003 
L 2694 2003 
z
" transform="scale(0.015625)"/>
       <path id="LiberationSans-20" transform="scale(0.015625)"/>
       <path id="LiberationSans-28" d="M 397 1663 
Q 397 2566 680 3284 
Q 963 4003 1550 4638 
L 2094 4638 
Q 1509 3988 1236 3256 
Q 963 2525 963 1656 
Q 963 791 1233 62 
Q 1503 -666 2094 -1325 
L 1550 -1325 
Q 959 -688 678 32 
Q 397 753 397 1650 
L 397 1663 
z
" transform="scale(0.015625)"/>
       <path id="LiberationSans-73" d="M 2969 934 
Q 2969 456 2608 196 
Q 2247 -63 1597 -63 
Q 966 -63 623 145 
Q 281 353 178 794 
L 675 891 
Q 747 619 972 492 
Q 1197 366 1597 366 
Q 2025 366 2223 497 
Q 2422 628 2422 891 
Q 2422 1091 2284 1216 
Q 2147 1341 1841 1422 
L 1438 1528 
Q 953 1653 748 1773 
Q 544 1894 428 2066 
Q 313 2238 313 2488 
Q 313 2950 642 3192 
Q 972 3434 1603 3434 
Q 2163 3434 2492 3237 
Q 2822 3041 2909 2606 
L 2403 2544 
Q 2356 2769 2151 2889 
Q 1947 3009 1603 3009 
Q 1222 3009 1040 2893 
Q 859 2778 859 2544 
Q 859 2400 934 2306 
Q 1009 2213 1156 2147 
Q 1303 2081 1775 1966 
Q 2222 1853 2419 1758 
Q 2616 1663 2730 1547 
Q 2844 1431 2906 1279 
Q 2969 1128 2969 934 
z
" transform="scale(0.015625)"/>
       <path id="LiberationSans-29" d="M 1734 1650 
Q 1734 747 1451 28 
Q 1169 -691 581 -1325 
L 38 -1325 
Q 625 -669 897 57 
Q 1169 784 1169 1656 
Q 1169 2528 895 3256 
Q 622 3984 38 4638 
L 581 4638 
Q 1172 4000 1453 3279 
Q 1734 2559 1734 1663 
L 1734 1650 
z
" transform="scale(0.015625)"/>
      </defs>
      <use xlink:href="#LiberationSans-54"/>
      <use xlink:href="#LiberationSans-69" x="57.333984"/>
      <use xlink:href="#LiberationSans-6d" x="79.550781"/>
      <use xlink:href="#LiberationSans-65" x="162.851562"/>
      <use xlink:href="#LiberationSans-20" x="218.466797"/>
      <use xlink:href="#LiberationSans-28" x="246.25"/>
      <use xlink:href="#LiberationSans-73" x="279.550781"/>
      <use xlink:href="#LiberationSans-29" x="329.550781"/>
     </g>
    </g>
   </g>
   <g id="matplotlib.axis_2">
    <g id="ytick_1">
     <g id="line2d_7"/>
     <g id="text_8">
      <!-- 0 -->
      <g style="fill: #262626" transform="translate(98.939063 496.103437) scale(0.1 -0.1)">
       <use xlink:href="#LiberationSans-30"/>
      </g>
     </g>
    </g>
    <g id="ytick_2">
     <g id="line2d_8"/>
     <g id="text_9">
      <!-- 25 -->
      <g style="fill: #262626" transform="translate(93.378125 435.012528) scale(0.1 -0.1)">
       <defs>
        <path id="LiberationSans-35" d="M 3291 1434 
Q 3291 738 2877 337 
Q 2463 -63 1728 -63 
Q 1113 -63 734 206 
Q 356 475 256 984 
L 825 1050 
Q 1003 397 1741 397 
Q 2194 397 2450 670 
Q 2706 944 2706 1422 
Q 2706 1838 2448 2094 
Q 2191 2350 1753 2350 
Q 1525 2350 1328 2278 
Q 1131 2206 934 2034 
L 384 2034 
L 531 4403 
L 3034 4403 
L 3034 3925 
L 1044 3925 
L 959 2528 
Q 1325 2809 1869 2809 
Q 2519 2809 2905 2428 
Q 3291 2047 3291 1434 
z
" transform="scale(0.015625)"/>
       </defs>
       <use xlink:href="#LiberationSans-32"/>
       <use xlink:href="#LiberationSans-35" x="55.615234"/>
      </g>
     </g>
    </g>
    <g id="ytick_3">
     <g id="line2d_9"/>
     <g id="text_10">
      <!-- 50 -->
      <g style="fill: #262626" transform="translate(93.378125 373.921619) scale(0.1 -0.1)">
       <use xlink:href="#LiberationSans-35"/>
       <use xlink:href="#LiberationSans-30" x="55.615234"/>
      </g>
     </g>
    </g>
    <g id="ytick_4">
     <g id="line2d_10"/>
     <g id="text_11">
      <!-- 75 -->
      <g style="fill: #262626" transform="translate(93.378125 312.83071) scale(0.1 -0.1)">
       <defs>
        <path id="LiberationSans-37" d="M 3238 3947 
Q 2563 2916 2284 2331 
Q 2006 1747 1867 1178 
Q 1728 609 1728 0 
L 1141 0 
Q 1141 844 1498 1776 
Q 1856 2709 2694 3925 
L 328 3925 
L 328 4403 
L 3238 4403 
L 3238 3947 
z
" transform="scale(0.015625)"/>
       </defs>
       <use xlink:href="#LiberationSans-37"/>
       <use xlink:href="#LiberationSans-35" x="55.615234"/>
      </g>
     </g>
    </g>
    <g id="ytick_5">
     <g id="line2d_11"/>
     <g id="text_12">
      <!-- 100 -->
      <g style="fill: #262626" transform="translate(87.817188 251.739801) scale(0.1 -0.1)">
       <use xlink:href="#LiberationSans-31"/>
       <use xlink:href="#LiberationSans-30" x="55.615234"/>
       <use xlink:href="#LiberationSans-30" x="111.230469"/>
      </g>
     </g>
    </g>
    <g id="ytick_6">
     <g id="line2d_12"/>
     <g id="text_13">
      <!-- 125 -->
      <g style="fill: #262626" transform="translate(87.817188 190.648892) scale(0.1 -0.1)">
       <use xlink:href="#LiberationSans-31"/>
       <use xlink:href="#LiberationSans-32" x="55.615234"/>
       <use xlink:href="#LiberationSans-35" x="111.230469"/>
      </g>
     </g>
    </g>
    <g id="ytick_7">
     <g id="line2d_13"/>
     <g id="text_14">
      <!-- 150 -->
      <g style="fill: #262626" transform="translate(87.817188 129.557983) scale(0.1 -0.1)">
       <use xlink:href="#LiberationSans-31"/>
       <use xlink:href="#LiberationSans-35" x="55.615234"/>
       <use xlink:href="#LiberationSans-30" x="111.230469"/>
      </g>
     </g>
    </g>
    <g id="text_15">
     <!-- Output Frequency (Hz) -->
     <g style="fill: #262626" transform="translate(81.742188 341.728437) rotate(-90) scale(0.1 -0.1)">
      <defs>
       <path id="LiberationSans-4f" d="M 4672 2222 
Q 4672 1531 4408 1012 
Q 4144 494 3650 215 
Q 3156 -63 2484 -63 
Q 1806 -63 1314 212 
Q 822 488 562 1008 
Q 303 1528 303 2222 
Q 303 3278 881 3873 
Q 1459 4469 2491 4469 
Q 3163 4469 3656 4201 
Q 4150 3934 4411 3425 
Q 4672 2916 4672 2222 
z
M 4063 2222 
Q 4063 3044 3652 3512 
Q 3241 3981 2491 3981 
Q 1734 3981 1321 3518 
Q 909 3056 909 2222 
Q 909 1394 1326 908 
Q 1744 422 2484 422 
Q 3247 422 3655 892 
Q 4063 1363 4063 2222 
z
" transform="scale(0.015625)"/>
       <path id="LiberationSans-75" d="M 981 3381 
L 981 1238 
Q 981 903 1047 718 
Q 1113 534 1256 453 
Q 1400 372 1678 372 
Q 2084 372 2318 650 
Q 2553 928 2553 1422 
L 2553 3381 
L 3116 3381 
L 3116 722 
Q 3116 131 3134 0 
L 2603 0 
Q 2600 16 2597 84 
Q 2594 153 2589 242 
Q 2584 331 2578 578 
L 2569 578 
Q 2375 228 2120 82 
Q 1866 -63 1488 -63 
Q 931 -63 673 214 
Q 416 491 416 1128 
L 416 3381 
L 981 3381 
z
" transform="scale(0.015625)"/>
       <path id="LiberationSans-74" d="M 1731 25 
Q 1453 -50 1163 -50 
Q 488 -50 488 716 
L 488 2972 
L 97 2972 
L 97 3381 
L 509 3381 
L 675 4138 
L 1050 4138 
L 1050 3381 
L 1675 3381 
L 1675 2972 
L 1050 2972 
L 1050 838 
Q 1050 594 1129 495 
Q 1209 397 1406 397 
Q 1519 397 1731 441 
L 1731 25 
z
" transform="scale(0.015625)"/>
       <path id="LiberationSans-70" d="M 3291 1706 
Q 3291 -63 2047 -63 
Q 1266 -63 997 525 
L 981 525 
Q 994 500 994 -6 
L 994 -1328 
L 431 -1328 
L 431 2691 
Q 431 3213 413 3381 
L 956 3381 
Q 959 3369 965 3292 
Q 972 3216 980 3056 
Q 988 2897 988 2838 
L 1000 2838 
Q 1150 3150 1397 3295 
Q 1644 3441 2047 3441 
Q 2672 3441 2981 3022 
Q 3291 2603 3291 1706 
z
M 2700 1694 
Q 2700 2400 2509 2703 
Q 2319 3006 1903 3006 
Q 1569 3006 1380 2865 
Q 1191 2725 1092 2426 
Q 994 2128 994 1650 
Q 994 984 1206 668 
Q 1419 353 1897 353 
Q 2316 353 2508 661 
Q 2700 969 2700 1694 
z
" transform="scale(0.015625)"/>
       <path id="LiberationSans-46" d="M 1122 3916 
L 1122 2278 
L 3578 2278 
L 3578 1784 
L 1122 1784 
L 1122 0 
L 525 0 
L 525 4403 
L 3653 4403 
L 3653 3916 
L 1122 3916 
z
" transform="scale(0.015625)"/>
       <path id="LiberationSans-72" d="M 444 0 
L 444 2594 
Q 444 2950 425 3381 
L 956 3381 
Q 981 2806 981 2691 
L 994 2691 
Q 1128 3125 1303 3284 
Q 1478 3444 1797 3444 
Q 1909 3444 2025 3413 
L 2025 2897 
Q 1913 2928 1725 2928 
Q 1375 2928 1190 2626 
Q 1006 2325 1006 1763 
L 1006 0 
L 444 0 
z
" transform="scale(0.015625)"/>
       <path id="LiberationSans-71" d="M 1513 -63 
Q 869 -63 569 371 
Q 269 806 269 1675 
Q 269 3444 1513 3444 
Q 1897 3444 2147 3308 
Q 2397 3172 2566 2856 
L 2572 2856 
Q 2572 2950 2584 3179 
Q 2597 3409 2609 3425 
L 3150 3425 
Q 3128 3241 3128 2503 
L 3128 -1328 
L 2566 -1328 
L 2566 44 
L 2578 556 
L 2572 556 
Q 2403 222 2156 79 
Q 1909 -63 1513 -63 
z
M 2566 1731 
Q 2566 2391 2350 2709 
Q 2134 3028 1663 3028 
Q 1234 3028 1046 2709 
Q 859 2391 859 1694 
Q 859 984 1048 678 
Q 1238 372 1656 372 
Q 2134 372 2350 712 
Q 2566 1053 2566 1731 
z
" transform="scale(0.015625)"/>
       <path id="LiberationSans-6e" d="M 2578 0 
L 2578 2144 
Q 2578 2478 2512 2662 
Q 2447 2847 2303 2928 
Q 2159 3009 1881 3009 
Q 1475 3009 1240 2731 
Q 1006 2453 1006 1959 
L 1006 0 
L 444 0 
L 444 2659 
Q 444 3250 425 3381 
L 956 3381 
Q 959 3366 962 3297 
Q 966 3228 970 3139 
Q 975 3050 981 2803 
L 991 2803 
Q 1184 3153 1439 3298 
Q 1694 3444 2072 3444 
Q 2628 3444 2886 3167 
Q 3144 2891 3144 2253 
L 3144 0 
L 2578 0 
z
" transform="scale(0.015625)"/>
       <path id="LiberationSans-63" d="M 859 1706 
Q 859 1031 1071 706 
Q 1284 381 1713 381 
Q 2013 381 2214 543 
Q 2416 706 2463 1044 
L 3031 1006 
Q 2966 519 2616 228 
Q 2266 -63 1728 -63 
Q 1019 -63 645 385 
Q 272 834 272 1694 
Q 272 2547 647 2995 
Q 1022 3444 1722 3444 
Q 2241 3444 2583 3175 
Q 2925 2906 3013 2434 
L 2434 2391 
Q 2391 2672 2212 2837 
Q 2034 3003 1706 3003 
Q 1259 3003 1059 2706 
Q 859 2409 859 1706 
z
" transform="scale(0.015625)"/>
       <path id="LiberationSans-79" d="M 597 -1328 
Q 366 -1328 209 -1294 
L 209 -872 
Q 328 -891 472 -891 
Q 997 -891 1303 -119 
L 1356 16 
L 16 3381 
L 616 3381 
L 1328 1513 
Q 1344 1469 1366 1408 
Q 1388 1347 1506 1000 
Q 1625 653 1634 613 
L 1853 1228 
L 2594 3381 
L 3188 3381 
L 1888 0 
Q 1678 -541 1497 -805 
Q 1316 -1069 1095 -1198 
Q 875 -1328 597 -1328 
z
" transform="scale(0.015625)"/>
       <path id="LiberationSans-48" d="M 3503 0 
L 3503 2041 
L 1122 2041 
L 1122 0 
L 525 0 
L 525 4403 
L 1122 4403 
L 1122 2541 
L 3503 2541 
L 3503 4403 
L 4100 4403 
L 4100 0 
L 3503 0 
z
" transform="scale(0.015625)"/>
       <path id="LiberationSans-7a" d="M 259 0 
L 259 428 
L 2150 2947 
L 366 2947 
L 366 3381 
L 2816 3381 
L 2816 2953 
L 922 434 
L 2881 434 
L 2881 0 
L 259 0 
z
" transform="scale(0.015625)"/>
      </defs>
      <use xlink:href="#LiberationSans-4f"/>
      <use xlink:href="#LiberationSans-75" x="77.783203"/>
      <use xlink:href="#LiberationSans-74" x="133.398438"/>
      <use xlink:href="#LiberationSans-70" x="161.181641"/>
      <use xlink:href="#LiberationSans-75" x="216.796875"/>
      <use xlink:href="#LiberationSans-74" x="272.412109"/>
      <use xlink:href="#LiberationSans-20" x="300.195312"/>
      <use xlink:href="#LiberationSans-46" x="327.978516"/>
      <use xlink:href="#LiberationSans-72" x="389.0625"/>
      <use xlink:href="#LiberationSans-65" x="422.363281"/>
      <use xlink:href="#LiberationSans-71" x="477.978516"/>
      <use xlink:href="#LiberationSans-75" x="533.59375"/>
      <use xlink:href="#LiberationSans-65" x="589.208984"/>
      <use xlink:href="#LiberationSans-6e" x="644.824219"/>
      <use xlink:href="#LiberationSans-63" x="700.439453"/>
      <use xlink:href="#LiberationSans-79" x="750.439453"/>
      <use xlink:href="#LiberationSans-20" x="800.439453"/>
      <use xlink:href="#LiberationSans-28" x="828.222656"/>
      <use xlink:href="#LiberationSans-48" x="861.523438"/>
      <use xlink:href="#LiberationSans-7a" x="933.740234"/>
      <use xlink:href="#LiberationSans-29" x="983.740234"/>
     </g>
    </g>
   </g>
   <g id="line2d_14">
    <path d="M 138.436364 311.498182 
L 140.890909 349.68 
L 143.345455 339.752727 
L 145.8 373.352727 
L 148.254545 391.68 
L 150.709091 368.007273 
L 153.163636 426.807273 
L 155.618182 408.48 
L 158.072727 427.570909 
L 160.527273 432.152727 
L 162.981818 410.007273 
L 165.436364 439.025455 
L 167.890909 420.698182 
L 170.345455 443.607273 
L 172.8 452.007273 
L 175.254545 430.625455 
L 177.709091 452.007273 
L 180.163636 432.152727 
L 182.618182 448.189091 
L 185.072727 448.189091 
L 187.527273 426.043636 
L 189.981818 443.607273 
L 192.436364 428.334545 
L 194.890909 445.134545 
L 197.345455 448.189091 
L 199.8 422.225455 
L 202.254545 448.952727 
L 204.709091 426.807273 
L 207.163636 443.607273 
L 209.618182 445.134545 
L 212.072727 418.407273 
L 214.527273 442.08 
L 216.981818 427.570909 
L 219.436364 440.552727 
L 221.890909 445.134545 
L 224.345455 424.516364 
L 226.8 444.370909 
L 229.254545 422.225455 
L 231.709091 434.443636 
L 234.163636 436.734545 
L 236.618182 408.48 
L 239.072727 435.207273 
L 241.527273 419.934545 
L 243.981818 425.28 
L 246.436364 435.207273 
L 248.890909 409.243636 
L 251.345455 435.207273 
L 253.8 432.916364 
L 256.254545 408.48 
L 258.709091 435.207273 
L 261.163636 403.898182 
L 263.618182 435.207273 
L 266.072727 441.316364 
L 268.527273 412.298182 
L 270.981818 442.08 
L 273.436364 410.007273 
L 275.890909 435.207273 
L 278.345455 435.207273 
L 280.8 412.298182 
L 283.254545 435.970909 
L 285.709091 411.534545 
L 288.163636 431.389091 
L 290.618182 438.261818 
L 293.072727 407.716364 
L 295.527273 439.025455 
L 297.981818 409.243636 
L 300.436364 435.207273 
L 302.890909 436.734545 
L 305.345455 411.534545 
L 307.8 437.498182 
L 310.254545 407.716364 
L 312.709091 430.625455 
L 315.163636 439.025455 
L 317.618182 410.007273 
L 320.072727 436.734545 
L 322.527273 407.716364 
L 324.981818 432.916364 
L 327.436364 435.207273 
L 329.890909 412.298182 
L 332.345455 429.861818 
L 334.8 410.770909 
L 337.254545 431.389091 
L 339.709091 437.498182 
L 342.163636 409.243636 
L 344.618182 440.552727 
L 347.072727 413.825455 
L 349.527273 428.334545 
L 351.981818 435.970909 
L 354.436364 406.952727 
L 356.890909 435.207273 
L 359.345455 415.352727 
L 361.8 427.570909 
L 364.254545 433.68 
L 366.709091 406.952727 
L 369.163636 434.443636 
L 371.618182 428.334545 
L 374.072727 418.407273 
L 376.527273 437.498182 
L 378.981818 411.534545 
L 381.436364 436.734545 
L 383.890909 435.207273 
L 386.345455 407.716364 
L 388.8 435.207273 
L 391.254545 412.298182 
L 393.709091 435.207273 
L 396.163636 434.443636 
L 398.618182 411.534545 
L 401.072727 436.734545 
L 403.527273 411.534545 
L 405.981818 436.734545 
L 408.436364 433.68 
L 410.890909 412.298182 
L 413.345455 437.498182 
L 415.8 408.48 
L 418.254545 435.207273 
L 420.709091 438.261818 
L 423.163636 414.589091 
L 425.618182 434.443636 
L 428.072727 410.007273 
L 430.527273 433.68 
L 432.981818 434.443636 
L 435.436364 407.716364 
L 437.890909 436.734545 
L 440.345455 413.061818 
L 442.8 435.970909 
L 445.254545 435.970909 
L 447.709091 413.061818 
L 450.163636 438.261818 
L 452.618182 416.116364 
L 455.072727 432.152727 
L 457.527273 436.734545 
L 459.981818 410.770909 
L 462.436364 439.025455 
L 464.890909 410.770909 
L 467.345455 429.098182 
L 469.8 434.443636 
L 472.254545 410.770909 
L 474.709091 436.734545 
L 477.163636 415.352727 
L 479.618182 429.861818 
L 482.072727 437.498182 
L 484.527273 410.007273 
L 486.981818 436.734545 
L 489.436364 417.643636 
L 491.890909 422.989091 
L 494.345455 437.498182 
L 496.8 409.243636 
L 499.254545 432.916364 
L 501.709091 439.789091 
L 504.163636 410.770909 
L 506.618182 439.025455 
L 509.072727 410.770909 
L 511.527273 433.68 
L 513.981818 439.025455 
L 516.436364 410.007273 
L 518.890909 435.970909 
L 521.345455 406.189091 
L 523.8 435.970909 
L 526.254545 439.025455 
L 528.709091 413.061818 
L 531.163636 435.970909 
L 533.618182 407.716364 
L 536.072727 434.443636 
L 538.527273 438.261818 
L 540.981818 409.243636 
L 543.436364 435.207273 
L 545.890909 413.825455 
L 548.345455 432.916364 
L 550.8 437.498182 
L 553.254545 405.425455 
L 555.709091 438.261818 
L 558.163636 413.825455 
L 560.618182 434.443636 
L 563.072727 437.498182 
L 565.527273 410.007273 
L 567.981818 434.443636 
L 570.436364 414.589091 
L 572.890909 433.68 
L 575.345455 436.734545 
L 577.8 407.716364 
L 580.254545 435.970909 
L 582.709091 408.48 
L 585.163636 429.861818 
L 587.618182 435.970909 
L 590.072727 409.243636 
L 592.527273 437.498182 
L 594.981818 417.643636 
L 597.436364 429.861818 
L 599.890909 439.025455 
L 602.345455 414.589091 
L 604.8 435.207273 
L 607.254545 417.643636 
L 609.709091 427.570909 
L 612.163636 435.207273 
L 614.618182 413.061818 
L 617.072727 434.443636 
L 619.527273 434.443636 
L 621.981818 414.589091 
L 624.436364 439.789091 
L 626.890909 413.825455 
L 629.345455 435.207273 
L 631.8 436.734545 
L 634.254545 410.770909 
L 636.709091 439.025455 
L 639.163636 405.425455 
L 641.618182 434.443636 
L 644.072727 434.443636 
L 646.527273 410.770909 
L 648.981818 435.970909 
L 651.436364 410.770909 
L 653.890909 433.68 
L 656.345455 436.734545 
L 658.8 413.061818 
L 661.254545 435.970909 
L 663.709091 411.534545 
L 666.163636 434.443636 
L 668.618182 436.734545 
L 671.072727 407.716364 
L 673.527273 438.261818 
L 675.981818 414.589091 
L 678.436364 433.68 
L 680.890909 438.261818 
L 683.345455 408.48 
L 685.8 436.734545 
L 688.254545 412.298182 
L 690.709091 429.098182 
L 693.163636 436.734545 
L 695.618182 410.770909 
L 698.072727 432.916364 
L 700.527273 410.007273 
L 702.981818 429.098182 
L 705.436364 437.498182 
L 707.890909 406.952727 
L 710.345455 437.498182 
L 712.8 413.061818 
L 715.254545 434.443636 
L 717.709091 438.261818 
L 720.163636 407.716364 
L 722.618182 436.734545 
L 725.072727 416.88 
L 727.527273 431.389091 
L 729.981818 436.734545 
L 732.436364 409.243636 
L 734.890909 435.207273 
L 737.345455 428.334545 
L 739.8 422.225455 
L 742.254545 437.498182 
L 744.709091 413.825455 
L 747.163636 436.734545 
L 747.163636 436.734545 
" clip-path="url(#pabe28e3f29)" style="fill: none; stroke: #5f9ea0; stroke-width: 1.5; stroke-linecap: round"/>
   </g>
   <g id="line2d_15">
    <path d="M 138.436364 242.007273 
L 140.890909 95.389091 
L 143.345455 89.28 
L 145.8 107.607273 
L 148.254545 138.152727 
L 150.709091 138.152727 
L 153.163636 187.025455 
L 155.618182 168.698182 
L 158.072727 199.243636 
L 160.527273 248.116364 
L 162.981818 205.352727 
L 165.436364 254.225455 
L 167.890909 223.68 
L 170.345455 272.552727 
L 172.8 303.098182 
L 175.254545 235.898182 
L 177.709091 278.661818 
L 180.163636 254.225455 
L 182.618182 278.661818 
L 185.072727 290.88 
L 187.527273 260.334545 
L 189.981818 266.443636 
L 192.436364 248.116364 
L 194.890909 272.552727 
L 197.345455 309.207273 
L 199.8 260.334545 
L 204.709091 284.770909 
L 207.163636 303.098182 
L 209.618182 309.207273 
L 212.072727 278.661818 
L 214.527273 290.88 
L 216.981818 266.443636 
L 219.436364 290.88 
L 221.890909 309.207273 
L 224.345455 278.661818 
L 226.8 303.098182 
L 229.254545 303.098182 
L 231.709091 284.770909 
L 234.163636 321.425455 
L 236.618182 278.661818 
L 239.072727 303.098182 
L 241.527273 315.316364 
L 243.981818 278.661818 
L 246.436364 315.316364 
L 248.890909 272.552727 
L 251.345455 309.207273 
L 253.8 327.534545 
L 256.254545 272.552727 
L 258.709091 321.425455 
L 261.163636 266.443636 
L 263.618182 315.316364 
L 266.072727 333.643636 
L 268.527273 266.443636 
L 270.981818 321.425455 
L 273.436364 266.443636 
L 275.890909 315.316364 
L 278.345455 333.643636 
L 280.8 278.661818 
L 283.254545 309.207273 
L 285.709091 278.661818 
L 290.618182 315.316364 
L 293.072727 260.334545 
L 295.527273 315.316364 
L 297.981818 272.552727 
L 300.436364 309.207273 
L 302.890909 327.534545 
L 305.345455 272.552727 
L 307.8 315.316364 
L 310.254545 266.443636 
L 312.709091 309.207273 
L 315.163636 321.425455 
L 317.618182 272.552727 
L 320.072727 321.425455 
L 322.527273 272.552727 
L 327.436364 333.643636 
L 329.890909 278.661818 
L 332.345455 303.098182 
L 334.8 272.552727 
L 337.254545 309.207273 
L 339.709091 333.643636 
L 342.163636 266.443636 
L 344.618182 315.316364 
L 347.072727 290.88 
L 349.527273 296.989091 
L 351.981818 333.643636 
L 354.436364 266.443636 
L 356.890909 303.098182 
L 359.345455 309.207273 
L 361.8 284.770909 
L 364.254545 309.207273 
L 366.709091 266.443636 
L 369.163636 309.207273 
L 371.618182 327.534545 
L 374.072727 266.443636 
L 376.527273 309.207273 
L 378.981818 272.552727 
L 381.436364 321.425455 
L 383.890909 327.534545 
L 386.345455 260.334545 
L 388.8 321.425455 
L 391.254545 272.552727 
L 393.709091 315.316364 
L 396.163636 333.643636 
L 398.618182 260.334545 
L 401.072727 315.316364 
L 403.527273 272.552727 
L 405.981818 315.316364 
L 408.436364 327.534545 
L 410.890909 266.443636 
L 413.345455 315.316364 
L 415.8 278.661818 
L 418.254545 309.207273 
L 420.709091 327.534545 
L 423.163636 278.661818 
L 425.618182 303.098182 
L 428.072727 278.661818 
L 430.527273 309.207273 
L 432.981818 315.316364 
L 435.436364 272.552727 
L 437.890909 309.207273 
L 440.345455 272.552727 
L 445.254545 333.643636 
L 447.709091 278.661818 
L 450.163636 303.098182 
L 452.618182 266.443636 
L 455.072727 309.207273 
L 457.527273 327.534545 
L 459.981818 266.443636 
L 462.436364 315.316364 
L 464.890909 290.88 
L 467.345455 296.989091 
L 469.8 321.425455 
L 472.254545 266.443636 
L 474.709091 309.207273 
L 477.163636 315.316364 
L 479.618182 272.552727 
L 482.072727 327.534545 
L 484.527273 278.661818 
L 486.981818 321.425455 
L 489.436364 327.534545 
L 491.890909 260.334545 
L 494.345455 327.534545 
L 496.8 278.661818 
L 501.709091 327.534545 
L 504.163636 266.443636 
L 506.618182 321.425455 
L 509.072727 266.443636 
L 511.527273 309.207273 
L 513.981818 333.643636 
L 516.436364 272.552727 
L 518.890909 321.425455 
L 521.345455 272.552727 
L 523.8 303.098182 
L 526.254545 327.534545 
L 528.709091 284.770909 
L 531.163636 321.425455 
L 533.618182 266.443636 
L 536.072727 303.098182 
L 538.527273 321.425455 
L 540.981818 278.661818 
L 543.436364 309.207273 
L 545.890909 278.661818 
L 548.345455 303.098182 
L 550.8 333.643636 
L 553.254545 266.443636 
L 555.709091 315.316364 
L 558.163636 272.552727 
L 560.618182 309.207273 
L 563.072727 333.643636 
L 565.527273 266.443636 
L 567.981818 315.316364 
L 570.436364 278.661818 
L 572.890909 309.207273 
L 575.345455 333.643636 
L 577.8 272.552727 
L 580.254545 315.316364 
L 582.709091 290.88 
L 585.163636 296.989091 
L 587.618182 327.534545 
L 590.072727 266.443636 
L 592.527273 315.316364 
L 594.981818 309.207273 
L 597.436364 272.552727 
L 599.890909 321.425455 
L 602.345455 278.661818 
L 604.8 315.316364 
L 607.254545 315.316364 
L 609.709091 272.552727 
L 612.163636 315.316364 
L 614.618182 272.552727 
L 617.072727 315.316364 
L 619.527273 321.425455 
L 621.981818 260.334545 
L 624.436364 315.316364 
L 626.890909 266.443636 
L 629.345455 315.316364 
L 631.8 333.643636 
L 634.254545 272.552727 
L 636.709091 315.316364 
L 639.163636 272.552727 
L 641.618182 309.207273 
L 644.072727 327.534545 
L 646.527273 272.552727 
L 648.981818 309.207273 
L 651.436364 272.552727 
L 653.890909 309.207273 
L 656.345455 321.425455 
L 658.8 272.552727 
L 661.254545 315.316364 
L 663.709091 278.661818 
L 666.163636 309.207273 
L 668.618182 333.643636 
L 671.072727 260.334545 
L 673.527273 315.316364 
L 675.981818 272.552727 
L 678.436364 315.316364 
L 680.890909 333.643636 
L 683.345455 266.443636 
L 685.8 321.425455 
L 688.254545 272.552727 
L 690.709091 309.207273 
L 693.163636 333.643636 
L 695.618182 272.552727 
L 698.072727 309.207273 
L 700.527273 278.661818 
L 702.981818 309.207273 
L 705.436364 327.534545 
L 707.890909 266.443636 
L 710.345455 315.316364 
L 712.8 284.770909 
L 715.254545 296.989091 
L 717.709091 327.534545 
L 720.163636 272.552727 
L 722.618182 315.316364 
L 725.072727 303.098182 
L 727.527273 284.770909 
L 729.981818 333.643636 
L 732.436364 266.443636 
L 734.890909 309.207273 
L 737.345455 327.534545 
L 739.8 266.443636 
L 742.254545 327.534545 
L 744.709091 266.443636 
L 747.163636 315.316364 
L 747.163636 315.316364 
" clip-path="url(#pabe28e3f29)" style="fill: none; stroke: #f08080; stroke-width: 1.5; stroke-linecap: round"/>
   </g>
   <g id="line2d_16">
    <path d="M 138.436364 492.48 
L 145.8 492.48 
L 148.254545 486.370909 
L 150.709091 474.152727 
L 153.163636 468.043636 
L 155.618182 480.261818 
L 158.072727 486.370909 
L 160.527273 474.152727 
L 162.981818 455.825455 
L 165.436364 474.152727 
L 167.890909 449.716364 
L 170.345455 455.825455 
L 172.8 449.716364 
L 177.709091 461.934545 
L 180.163636 455.825455 
L 182.618182 455.825455 
L 185.072727 449.716364 
L 187.527273 455.825455 
L 197.345455 455.825455 
L 199.8 437.498182 
L 202.254545 443.607273 
L 204.709091 437.498182 
L 207.163636 443.607273 
L 209.618182 443.607273 
L 212.072727 431.389091 
L 214.527273 443.607273 
L 216.981818 437.498182 
L 219.436364 443.607273 
L 221.890909 443.607273 
L 224.345455 431.389091 
L 226.8 437.498182 
L 229.254545 419.170909 
L 231.709091 437.498182 
L 234.163636 425.28 
L 236.618182 425.28 
L 239.072727 437.498182 
L 241.527273 437.498182 
L 243.981818 425.28 
L 246.436364 431.389091 
L 248.890909 431.389091 
L 251.345455 443.607273 
L 253.8 437.498182 
L 256.254545 419.170909 
L 258.709091 425.28 
L 261.163636 413.061818 
L 263.618182 419.170909 
L 266.072727 431.389091 
L 270.981818 443.607273 
L 273.436364 431.389091 
L 275.890909 437.498182 
L 278.345455 431.389091 
L 280.8 431.389091 
L 283.254545 443.607273 
L 285.709091 431.389091 
L 288.163636 443.607273 
L 290.618182 443.607273 
L 293.072727 419.170909 
L 295.527273 431.389091 
L 297.981818 419.170909 
L 300.436364 425.28 
L 302.890909 437.498182 
L 305.345455 431.389091 
L 307.8 443.607273 
L 310.254545 425.28 
L 312.709091 425.28 
L 315.163636 431.389091 
L 317.618182 431.389091 
L 320.072727 443.607273 
L 322.527273 431.389091 
L 324.981818 425.28 
L 327.436364 437.498182 
L 329.890909 425.28 
L 332.345455 437.498182 
L 334.8 413.061818 
L 337.254545 425.28 
L 339.709091 443.607273 
L 342.163636 437.498182 
L 344.618182 443.607273 
L 347.072727 425.28 
L 349.527273 431.389091 
L 351.981818 443.607273 
L 354.436364 425.28 
L 356.890909 437.498182 
L 359.345455 425.28 
L 361.8 419.170909 
L 364.254545 443.607273 
L 366.709091 431.389091 
L 369.163636 431.389091 
L 371.618182 437.498182 
L 374.072727 425.28 
L 376.527273 443.607273 
L 378.981818 431.389091 
L 381.436364 431.389091 
L 383.890909 437.498182 
L 386.345455 431.389091 
L 388.8 437.498182 
L 391.254545 425.28 
L 393.709091 437.498182 
L 396.163636 437.498182 
L 398.618182 425.28 
L 401.072727 431.389091 
L 403.527273 425.28 
L 408.436364 437.498182 
L 410.890909 431.389091 
L 413.345455 437.498182 
L 415.8 425.28 
L 418.254545 437.498182 
L 420.709091 443.607273 
L 423.163636 425.28 
L 425.618182 437.498182 
L 430.527273 425.28 
L 432.981818 437.498182 
L 435.436364 419.170909 
L 437.890909 443.607273 
L 440.345455 431.389091 
L 442.8 437.498182 
L 445.254545 431.389091 
L 447.709091 419.170909 
L 450.163636 443.607273 
L 455.072727 431.389091 
L 457.527273 431.389091 
L 459.981818 425.28 
L 462.436364 437.498182 
L 467.345455 425.28 
L 469.8 437.498182 
L 472.254545 425.28 
L 474.709091 431.389091 
L 477.163636 431.389091 
L 482.072727 443.607273 
L 484.527273 431.389091 
L 489.436364 431.389091 
L 491.890909 425.28 
L 494.345455 443.607273 
L 496.8 425.28 
L 499.254545 431.389091 
L 501.709091 431.389091 
L 504.163636 425.28 
L 506.618182 443.607273 
L 509.072727 437.498182 
L 511.527273 425.28 
L 513.981818 437.498182 
L 518.890909 437.498182 
L 521.345455 425.28 
L 523.8 431.389091 
L 526.254545 431.389091 
L 528.709091 425.28 
L 531.163636 443.607273 
L 533.618182 437.498182 
L 536.072727 443.607273 
L 540.981818 419.170909 
L 543.436364 437.498182 
L 545.890909 431.389091 
L 548.345455 437.498182 
L 553.254545 425.28 
L 555.709091 449.716364 
L 558.163636 425.28 
L 560.618182 437.498182 
L 563.072727 425.28 
L 565.527273 425.28 
L 567.981818 437.498182 
L 570.436364 431.389091 
L 572.890909 437.498182 
L 575.345455 425.28 
L 580.254545 437.498182 
L 582.709091 431.389091 
L 585.163636 431.389091 
L 587.618182 425.28 
L 590.072727 431.389091 
L 592.527273 443.607273 
L 594.981818 437.498182 
L 597.436364 437.498182 
L 602.345455 425.28 
L 604.8 437.498182 
L 607.254545 443.607273 
L 609.709091 437.498182 
L 612.163636 437.498182 
L 614.618182 406.952727 
L 617.072727 443.607273 
L 619.527273 443.607273 
L 621.981818 425.28 
L 624.436364 443.607273 
L 626.890909 425.28 
L 629.345455 437.498182 
L 631.8 437.498182 
L 634.254545 425.28 
L 636.709091 437.498182 
L 639.163636 413.061818 
L 641.618182 437.498182 
L 644.072727 443.607273 
L 646.527273 431.389091 
L 648.981818 437.498182 
L 651.436364 419.170909 
L 653.890909 437.498182 
L 656.345455 437.498182 
L 658.8 431.389091 
L 661.254545 431.389091 
L 663.709091 413.061818 
L 666.163636 449.716364 
L 668.618182 443.607273 
L 671.072727 419.170909 
L 673.527273 437.498182 
L 675.981818 406.952727 
L 678.436364 443.607273 
L 680.890909 443.607273 
L 683.345455 425.28 
L 685.8 437.498182 
L 688.254545 425.28 
L 690.709091 437.498182 
L 693.163636 437.498182 
L 695.618182 425.28 
L 698.072727 431.389091 
L 700.527273 419.170909 
L 702.981818 437.498182 
L 705.436364 437.498182 
L 707.890909 425.28 
L 710.345455 437.498182 
L 712.8 425.28 
L 715.254545 437.498182 
L 717.709091 443.607273 
L 720.163636 419.170909 
L 722.618182 443.607273 
L 725.072727 419.170909 
L 727.527273 437.498182 
L 729.981818 437.498182 
L 732.436364 431.389091 
L 734.890909 437.498182 
L 737.345455 431.389091 
L 739.8 431.389091 
L 742.254545 437.498182 
L 744.709091 425.28 
L 747.163636 437.498182 
L 747.163636 437.498182 
" clip-path="url(#pabe28e3f29)" style="fill: none; stroke: #f4a460; stroke-width: 1.5; stroke-linecap: round"/>
   </g>
   <g id="patch_3">
    <path d="M 108 512.64 
L 108 69.12 
" style="fill: none; stroke: #262626; stroke-width: 1.25; stroke-linejoin: miter; stroke-linecap: square"/>
   </g>
   <g id="patch_4">
    <path d="M 108 512.64 
L 777.6 512.64 
" style="fill: none; stroke: #262626; stroke-width: 1.25; stroke-linejoin: miter; stroke-linecap: square"/>
   </g>
   <g id="text_16">
    <!-- Frequeny vs Time -->
    <g style="fill: #262626" transform="translate(395.11875 63.12) scale(0.12 -0.12)">
     <defs>
      <path id="LiberationSans-76" d="M 1916 0 
L 1250 0 
L 22 3381 
L 622 3381 
L 1366 1181 
Q 1406 1056 1581 441 
L 1691 806 
L 1813 1175 
L 2581 3381 
L 3178 3381 
L 1916 0 
z
" transform="scale(0.015625)"/>
     </defs>
     <use xlink:href="#LiberationSans-46"/>
     <use xlink:href="#LiberationSans-72" x="61.083984"/>
     <use xlink:href="#LiberationSans-65" x="94.384766"/>
     <use xlink:href="#LiberationSans-71" x="150"/>
     <use xlink:href="#LiberationSans-75" x="205.615234"/>
     <use xlink:href="#LiberationSans-65" x="261.230469"/>
     <use xlink:href="#LiberationSans-6e" x="316.845703"/>
     <use xlink:href="#LiberationSans-79" x="372.460938"/>
     <use xlink:href="#LiberationSans-20" x="422.460938"/>
     <use xlink:href="#LiberationSans-76" x="450.244141"/>
     <use xlink:href="#LiberationSans-73" x="500.244141"/>
     <use xlink:href="#LiberationSans-20" x="550.244141"/>
     <use xlink:href="#LiberationSans-54" x="576.277344"/>
     <use xlink:href="#LiberationSans-69" x="633.611328"/>
     <use xlink:href="#LiberationSans-6d" x="655.828125"/>
     <use xlink:href="#LiberationSans-65" x="739.128906"/>
    </g>
   </g>
   <g id="legend_1">
    <g id="line2d_17">
     <path d="M 676.678125 81.866875 
L 686.678125 81.866875 
L 696.678125 81.866875 
" style="fill: none; stroke: #5f9ea0; stroke-width: 1.5; stroke-linecap: round"/>
    </g>
    <g id="text_17">
     <!--  PC_neurons -->
     <g style="fill: #262626" transform="translate(704.678125 85.366875) scale(0.1 -0.1)">
      <defs>
       <path id="LiberationSans-50" d="M 3931 3078 
Q 3931 2453 3523 2084 
Q 3116 1716 2416 1716 
L 1122 1716 
L 1122 0 
L 525 0 
L 525 4403 
L 2378 4403 
Q 3119 4403 3525 4056 
Q 3931 3709 3931 3078 
z
M 3331 3072 
Q 3331 3925 2306 3925 
L 1122 3925 
L 1122 2188 
L 2331 2188 
Q 3331 2188 3331 3072 
z
" transform="scale(0.015625)"/>
       <path id="LiberationSans-43" d="M 2475 3981 
Q 1744 3981 1337 3511 
Q 931 3041 931 2222 
Q 931 1413 1354 920 
Q 1778 428 2500 428 
Q 3425 428 3891 1344 
L 4378 1100 
Q 4106 531 3614 234 
Q 3122 -63 2472 -63 
Q 1806 -63 1320 214 
Q 834 491 579 1005 
Q 325 1519 325 2222 
Q 325 3275 894 3872 
Q 1463 4469 2469 4469 
Q 3172 4469 3644 4194 
Q 4116 3919 4338 3378 
L 3772 3191 
Q 3619 3575 3280 3778 
Q 2941 3981 2475 3981 
z
" transform="scale(0.015625)"/>
       <path id="LiberationSans-5f" d="M -97 -1272 
L -97 -866 
L 3631 -866 
L 3631 -1272 
L -97 -1272 
z
" transform="scale(0.015625)"/>
       <path id="LiberationSans-6f" d="M 3291 1694 
Q 3291 806 2900 371 
Q 2509 -63 1766 -63 
Q 1025 -63 647 389 
Q 269 841 269 1694 
Q 269 3444 1784 3444 
Q 2559 3444 2925 3017 
Q 3291 2591 3291 1694 
z
M 2700 1694 
Q 2700 2394 2492 2711 
Q 2284 3028 1794 3028 
Q 1300 3028 1079 2704 
Q 859 2381 859 1694 
Q 859 1025 1076 689 
Q 1294 353 1759 353 
Q 2266 353 2483 678 
Q 2700 1003 2700 1694 
z
" transform="scale(0.015625)"/>
      </defs>
      <use xlink:href="#LiberationSans-20"/>
      <use xlink:href="#LiberationSans-50" x="27.783203"/>
      <use xlink:href="#LiberationSans-43" x="94.482422"/>
      <use xlink:href="#LiberationSans-5f" x="166.699219"/>
      <use xlink:href="#LiberationSans-6e" x="222.314453"/>
      <use xlink:href="#LiberationSans-65" x="277.929688"/>
      <use xlink:href="#LiberationSans-75" x="333.544922"/>
      <use xlink:href="#LiberationSans-72" x="389.160156"/>
      <use xlink:href="#LiberationSans-6f" x="422.460938"/>
      <use xlink:href="#LiberationSans-6e" x="478.076172"/>
      <use xlink:href="#LiberationSans-73" x="533.691406"/>
     </g>
    </g>
    <g id="line2d_18">
     <path d="M 676.678125 96.18875 
L 686.678125 96.18875 
L 696.678125 96.18875 
" style="fill: none; stroke: #f08080; stroke-width: 1.5; stroke-linecap: round"/>
    </g>
    <g id="text_18">
     <!--  PV_neurons -->
     <g style="fill: #262626" transform="translate(704.678125 99.68875) scale(0.1 -0.1)">
      <defs>
       <path id="LiberationSans-56" d="M 2444 0 
L 1825 0 
L 28 4403 
L 656 4403 
L 1875 1303 
L 2138 525 
L 2400 1303 
L 3613 4403 
L 4241 4403 
L 2444 0 
z
" transform="scale(0.015625)"/>
      </defs>
      <use xlink:href="#LiberationSans-20"/>
      <use xlink:href="#LiberationSans-50" x="27.783203"/>
      <use xlink:href="#LiberationSans-56" x="94.482422"/>
      <use xlink:href="#LiberationSans-5f" x="161.181641"/>
      <use xlink:href="#LiberationSans-6e" x="216.796875"/>
      <use xlink:href="#LiberationSans-65" x="272.412109"/>
      <use xlink:href="#LiberationSans-75" x="328.027344"/>
      <use xlink:href="#LiberationSans-72" x="383.642578"/>
      <use xlink:href="#LiberationSans-6f" x="416.943359"/>
      <use xlink:href="#LiberationSans-6e" x="472.558594"/>
      <use xlink:href="#LiberationSans-73" x="528.173828"/>
     </g>
    </g>
    <g id="line2d_19">
     <path d="M 676.678125 110.510625 
L 686.678125 110.510625 
L 696.678125 110.510625 
" style="fill: none; stroke: #f4a460; stroke-width: 1.5; stroke-linecap: round"/>
    </g>
    <g id="text_19">
     <!--  SST_neurons -->
     <g style="fill: #262626" transform="translate(704.678125 114.010625) scale(0.1 -0.1)">
      <defs>
       <path id="LiberationSans-53" d="M 3975 1216 
Q 3975 606 3498 271 
Q 3022 -63 2156 -63 
Q 547 -63 291 1056 
L 869 1172 
Q 969 775 1294 589 
Q 1619 403 2178 403 
Q 2756 403 3070 601 
Q 3384 800 3384 1184 
Q 3384 1400 3286 1534 
Q 3188 1669 3009 1756 
Q 2831 1844 2584 1903 
Q 2338 1963 2038 2031 
Q 1516 2147 1245 2262 
Q 975 2378 819 2520 
Q 663 2663 580 2853 
Q 497 3044 497 3291 
Q 497 3856 930 4162 
Q 1363 4469 2169 4469 
Q 2919 4469 3316 4239 
Q 3713 4009 3872 3456 
L 3284 3353 
Q 3188 3703 2916 3861 
Q 2644 4019 2163 4019 
Q 1634 4019 1356 3844 
Q 1078 3669 1078 3322 
Q 1078 3119 1186 2986 
Q 1294 2853 1497 2761 
Q 1700 2669 2306 2534 
Q 2509 2488 2711 2439 
Q 2913 2391 3097 2323 
Q 3281 2256 3442 2165 
Q 3603 2075 3722 1944 
Q 3841 1813 3908 1634 
Q 3975 1456 3975 1216 
z
" transform="scale(0.015625)"/>
      </defs>
      <use xlink:href="#LiberationSans-20"/>
      <use xlink:href="#LiberationSans-53" x="27.783203"/>
      <use xlink:href="#LiberationSans-53" x="94.482422"/>
      <use xlink:href="#LiberationSans-54" x="161.181641"/>
      <use xlink:href="#LiberationSans-5f" x="222.265625"/>
      <use xlink:href="#LiberationSans-6e" x="277.880859"/>
      <use xlink:href="#LiberationSans-65" x="333.496094"/>
      <use xlink:href="#LiberationSans-75" x="389.111328"/>
      <use xlink:href="#LiberationSans-72" x="444.726562"/>
      <use xlink:href="#LiberationSans-6f" x="478.027344"/>
      <use xlink:href="#LiberationSans-6e" x="533.642578"/>
      <use xlink:href="#LiberationSans-73" x="589.257812"/>
     </g>
    </g>
   </g>
  </g>
  <g id="text_20">
   <g id="patch_5">
    <path d="M 604.8 494.1675 
L 674.329219 494.1675 
Q 677.029219 494.1675 677.029219 491.4675 
L 677.029219 483.077813 
Q 677.029219 480.377813 674.329219 480.377813 
L 604.8 480.377813 
Q 602.1 480.377813 602.1 483.077813 
L 602.1 491.4675 
Q 602.1 494.1675 604.8 494.1675 
z
" style="fill: #ffffff; stroke: #000000; stroke-linejoin: miter"/>
   </g>
   <!-- Input Freq: 60 Hz -->
   <g style="fill: #262626" transform="translate(604.8 489.6) scale(0.09 -0.09)">
    <defs>
     <path id="LiberationSans-49" d="M 591 0 
L 591 4403 
L 1188 4403 
L 1188 0 
L 591 0 
z
" transform="scale(0.015625)"/>
     <path id="LiberationSans-3a" d="M 584 2734 
L 584 3381 
L 1194 3381 
L 1194 2734 
L 584 2734 
z
M 584 0 
L 584 647 
L 1194 647 
L 1194 0 
L 584 0 
z
" transform="scale(0.015625)"/>
    </defs>
    <use xlink:href="#LiberationSans-49"/>
    <use xlink:href="#LiberationSans-6e" x="27.783203"/>
    <use xlink:href="#LiberationSans-70" x="83.398438"/>
    <use xlink:href="#LiberationSans-75" x="139.013672"/>
    <use xlink:href="#LiberationSans-74" x="194.628906"/>
    <use xlink:href="#LiberationSans-20" x="222.412109"/>
    <use xlink:href="#LiberationSans-46" x="250.195312"/>
    <use xlink:href="#LiberationSans-72" x="311.279297"/>
    <use xlink:href="#LiberationSans-65" x="344.580078"/>
    <use xlink:href="#LiberationSans-71" x="400.195312"/>
    <use xlink:href="#LiberationSans-3a" x="455.810547"/>
    <use xlink:href="#LiberationSans-20" x="483.59375"/>
    <use xlink:href="#LiberationSans-36" x="511.376953"/>
    <use xlink:href="#LiberationSans-30" x="566.992188"/>
    <use xlink:href="#LiberationSans-20" x="622.607422"/>
    <use xlink:href="#LiberationSans-48" x="650.390625"/>
    <use xlink:href="#LiberationSans-7a" x="722.607422"/>
   </g>
  </g>
 </g>
 <defs>
  <clipPath id="pabe28e3f29">
   <rect x="108" y="69.12" width="669.6" height="443.52"/>
  </clipPath>
 </defs>
</svg>
