<?xml version="1.0" encoding="utf-8" standalone="no"?>
<!DOCTYPE svg PUBLIC "-//W3C//DTD SVG 1.1//EN"
  "http://www.w3.org/Graphics/SVG/1.1/DTD/svg11.dtd">
<svg xmlns:xlink="http://www.w3.org/1999/xlink" width="864pt" height="576pt" viewBox="0 0 864 576" xmlns="http://www.w3.org/2000/svg" version="1.1">
 <metadata>
  <rdf:RDF xmlns:dc="http://purl.org/dc/elements/1.1/" xmlns:cc="http://creativecommons.org/ns#" xmlns:rdf="http://www.w3.org/1999/02/22-rdf-syntax-ns#">
   <cc:Work>
    <dc:type rdf:resource="http://purl.org/dc/dcmitype/StillImage"/>
    <dc:date>2023-08-07T14:05:57.270378</dc:date>
    <dc:format>image/svg+xml</dc:format>
    <dc:creator>
     <cc:Agent>
      <dc:title>Matplotlib v3.7.1, https://matplotlib.org/</dc:title>
     </cc:Agent>
    </dc:creator>
   </cc:Work>
  </rdf:RDF>
 </metadata>
 <defs>
  <style type="text/css">*{stroke-linejoin: round; stroke-linecap: butt}</style>
 </defs>
 <g id="figure_1">
  <g id="patch_1">
   <path d="M 0 576 
L 864 576 
L 864 0 
L 0 0 
z
" style="fill: #ffffff"/>
  </g>
  <g id="axes_1">
   <g id="patch_2">
    <path d="M 108 512.64 
L 777.6 512.64 
L 777.6 69.12 
L 108 69.12 
z
" style="fill: #ffffff"/>
   </g>
   <g id="matplotlib.axis_1">
    <g id="xtick_1">
     <g id="line2d_1"/>
     <g id="text_1">
      <!-- 0 -->
      <g style="fill: #262626" transform="translate(135.655895 523.386875) scale(0.1 -0.1)">
       <defs>
        <path id="LiberationSans-30" d="M 3309 2203 
Q 3309 1100 2920 518 
Q 2531 -63 1772 -63 
Q 1013 -63 631 515 
Q 250 1094 250 2203 
Q 250 3338 620 3903 
Q 991 4469 1791 4469 
Q 2569 4469 2939 3897 
Q 3309 3325 3309 2203 
z
M 2738 2203 
Q 2738 3156 2517 3584 
Q 2297 4013 1791 4013 
Q 1272 4013 1045 3591 
Q 819 3169 819 2203 
Q 819 1266 1048 831 
Q 1278 397 1778 397 
Q 2275 397 2506 840 
Q 2738 1284 2738 2203 
z
" transform="scale(0.015625)"/>
       </defs>
       <use xlink:href="#LiberationSans-30"/>
      </g>
     </g>
    </g>
    <g id="xtick_2">
     <g id="line2d_2"/>
     <g id="text_2">
      <!-- 2 -->
      <g style="fill: #262626" transform="translate(217.254725 523.386875) scale(0.1 -0.1)">
       <defs>
        <path id="LiberationSans-32" d="M 322 0 
L 322 397 
Q 481 763 711 1042 
Q 941 1322 1194 1548 
Q 1447 1775 1695 1969 
Q 1944 2163 2144 2356 
Q 2344 2550 2467 2762 
Q 2591 2975 2591 3244 
Q 2591 3606 2378 3806 
Q 2166 4006 1788 4006 
Q 1428 4006 1195 3811 
Q 963 3616 922 3263 
L 347 3316 
Q 409 3844 795 4156 
Q 1181 4469 1788 4469 
Q 2453 4469 2811 4155 
Q 3169 3841 3169 3263 
Q 3169 3006 3051 2753 
Q 2934 2500 2703 2247 
Q 2472 1994 1819 1463 
Q 1459 1169 1246 933 
Q 1034 697 941 478 
L 3238 478 
L 3238 0 
L 322 0 
z
" transform="scale(0.015625)"/>
       </defs>
       <use xlink:href="#LiberationSans-32"/>
      </g>
     </g>
    </g>
    <g id="xtick_3">
     <g id="line2d_3"/>
     <g id="text_3">
      <!-- 4 -->
      <g style="fill: #262626" transform="translate(298.853555 523.386875) scale(0.1 -0.1)">
       <defs>
        <path id="LiberationSans-34" d="M 2753 997 
L 2753 0 
L 2222 0 
L 2222 997 
L 147 997 
L 147 1434 
L 2163 4403 
L 2753 4403 
L 2753 1441 
L 3372 1441 
L 3372 997 
L 2753 997 
z
M 2222 3769 
Q 2216 3750 2134 3603 
Q 2053 3456 2013 3397 
L 884 1734 
L 716 1503 
L 666 1441 
L 2222 1441 
L 2222 3769 
z
" transform="scale(0.015625)"/>
       </defs>
       <use xlink:href="#LiberationSans-34"/>
      </g>
     </g>
    </g>
    <g id="xtick_4">
     <g id="line2d_4"/>
     <g id="text_4">
      <!-- 6 -->
      <g style="fill: #262626" transform="translate(380.452385 523.386875) scale(0.1 -0.1)">
       <defs>
        <path id="LiberationSans-36" d="M 3278 1441 
Q 3278 744 2900 340 
Q 2522 -63 1856 -63 
Q 1113 -63 719 490 
Q 325 1044 325 2100 
Q 325 3244 734 3856 
Q 1144 4469 1900 4469 
Q 2897 4469 3156 3572 
L 2619 3475 
Q 2453 4013 1894 4013 
Q 1413 4013 1148 3564 
Q 884 3116 884 2266 
Q 1038 2550 1316 2698 
Q 1594 2847 1953 2847 
Q 2563 2847 2920 2465 
Q 3278 2084 3278 1441 
z
M 2706 1416 
Q 2706 1894 2472 2153 
Q 2238 2413 1819 2413 
Q 1425 2413 1183 2183 
Q 941 1953 941 1550 
Q 941 1041 1192 716 
Q 1444 391 1838 391 
Q 2244 391 2475 664 
Q 2706 938 2706 1416 
z
" transform="scale(0.015625)"/>
       </defs>
       <use xlink:href="#LiberationSans-36"/>
      </g>
     </g>
    </g>
    <g id="xtick_5">
     <g id="line2d_5"/>
     <g id="text_5">
      <!-- 8 -->
      <g style="fill: #262626" transform="translate(462.051215 523.386875) scale(0.1 -0.1)">
       <defs>
        <path id="LiberationSans-38" d="M 3281 1228 
Q 3281 619 2893 278 
Q 2506 -63 1781 -63 
Q 1075 -63 676 271 
Q 278 606 278 1222 
Q 278 1653 525 1947 
Q 772 2241 1156 2303 
L 1156 2316 
Q 797 2400 589 2681 
Q 381 2963 381 3341 
Q 381 3844 757 4156 
Q 1134 4469 1769 4469 
Q 2419 4469 2795 4162 
Q 3172 3856 3172 3334 
Q 3172 2956 2962 2675 
Q 2753 2394 2391 2322 
L 2391 2309 
Q 2813 2241 3047 1952 
Q 3281 1663 3281 1228 
z
M 2588 3303 
Q 2588 4050 1769 4050 
Q 1372 4050 1164 3862 
Q 956 3675 956 3303 
Q 956 2925 1170 2726 
Q 1384 2528 1775 2528 
Q 2172 2528 2380 2711 
Q 2588 2894 2588 3303 
z
M 2697 1281 
Q 2697 1691 2453 1898 
Q 2209 2106 1769 2106 
Q 1341 2106 1100 1882 
Q 859 1659 859 1269 
Q 859 359 1788 359 
Q 2247 359 2472 579 
Q 2697 800 2697 1281 
z
" transform="scale(0.015625)"/>
       </defs>
       <use xlink:href="#LiberationSans-38"/>
      </g>
     </g>
    </g>
    <g id="xtick_6">
     <g id="line2d_6"/>
     <g id="text_6">
      <!-- 10 -->
      <g style="fill: #262626" transform="translate(540.869577 523.386875) scale(0.1 -0.1)">
       <defs>
        <path id="LiberationSans-31" d="M 488 0 
L 488 478 
L 1609 478 
L 1609 3866 
L 616 3156 
L 616 3688 
L 1656 4403 
L 2175 4403 
L 2175 478 
L 3247 478 
L 3247 0 
L 488 0 
z
" transform="scale(0.015625)"/>
       </defs>
       <use xlink:href="#LiberationSans-31"/>
       <use xlink:href="#LiberationSans-30" x="55.615234"/>
      </g>
     </g>
    </g>
    <g id="xtick_7">
     <g id="line2d_7"/>
     <g id="text_7">
      <!-- 12 -->
      <g style="fill: #262626" transform="translate(622.468407 523.386875) scale(0.1 -0.1)">
       <use xlink:href="#LiberationSans-31"/>
       <use xlink:href="#LiberationSans-32" x="55.615234"/>
      </g>
     </g>
    </g>
    <g id="xtick_8">
     <g id="line2d_8"/>
     <g id="text_8">
      <!-- 14 -->
      <g style="fill: #262626" transform="translate(704.067237 523.386875) scale(0.1 -0.1)">
       <use xlink:href="#LiberationSans-31"/>
       <use xlink:href="#LiberationSans-34" x="55.615234"/>
      </g>
     </g>
    </g>
    <g id="text_9">
     <!-- Time (s) -->
     <g style="fill: #262626" transform="translate(424.658594 536.70875) scale(0.1 -0.1)">
      <defs>
       <path id="LiberationSans-54" d="M 2250 3916 
L 2250 0 
L 1656 0 
L 1656 3916 
L 144 3916 
L 144 4403 
L 3763 4403 
L 3763 3916 
L 2250 3916 
z
" transform="scale(0.015625)"/>
       <path id="LiberationSans-69" d="M 428 4100 
L 428 4638 
L 991 4638 
L 991 4100 
L 428 4100 
z
M 428 0 
L 428 3381 
L 991 3381 
L 991 0 
L 428 0 
z
" transform="scale(0.015625)"/>
       <path id="LiberationSans-6d" d="M 2400 0 
L 2400 2144 
Q 2400 2634 2265 2821 
Q 2131 3009 1781 3009 
Q 1422 3009 1212 2734 
Q 1003 2459 1003 1959 
L 1003 0 
L 444 0 
L 444 2659 
Q 444 3250 425 3381 
L 956 3381 
Q 959 3366 962 3297 
Q 966 3228 970 3139 
Q 975 3050 981 2803 
L 991 2803 
Q 1172 3163 1406 3303 
Q 1641 3444 1978 3444 
Q 2363 3444 2586 3291 
Q 2809 3138 2897 2803 
L 2906 2803 
Q 3081 3144 3329 3294 
Q 3578 3444 3931 3444 
Q 4444 3444 4676 3166 
Q 4909 2888 4909 2253 
L 4909 0 
L 4353 0 
L 4353 2144 
Q 4353 2634 4218 2821 
Q 4084 3009 3734 3009 
Q 3366 3009 3161 2736 
Q 2956 2463 2956 1959 
L 2956 0 
L 2400 0 
z
" transform="scale(0.015625)"/>
       <path id="LiberationSans-65" d="M 863 1572 
Q 863 991 1103 675 
Q 1344 359 1806 359 
Q 2172 359 2392 506 
Q 2613 653 2691 878 
L 3184 738 
Q 2881 -63 1806 -63 
Q 1056 -63 664 384 
Q 272 831 272 1713 
Q 272 2550 664 2997 
Q 1056 3444 1784 3444 
Q 3275 3444 3275 1647 
L 3275 1572 
L 863 1572 
z
M 2694 2003 
Q 2647 2538 2422 2783 
Q 2197 3028 1775 3028 
Q 1366 3028 1127 2754 
Q 888 2481 869 2003 
L 2694 2003 
z
" transform="scale(0.015625)"/>
       <path id="LiberationSans-20" transform="scale(0.015625)"/>
       <path id="LiberationSans-28" d="M 397 1663 
Q 397 2566 680 3284 
Q 963 4003 1550 4638 
L 2094 4638 
Q 1509 3988 1236 3256 
Q 963 2525 963 1656 
Q 963 791 1233 62 
Q 1503 -666 2094 -1325 
L 1550 -1325 
Q 959 -688 678 32 
Q 397 753 397 1650 
L 397 1663 
z
" transform="scale(0.015625)"/>
       <path id="LiberationSans-73" d="M 2969 934 
Q 2969 456 2608 196 
Q 2247 -63 1597 -63 
Q 966 -63 623 145 
Q 281 353 178 794 
L 675 891 
Q 747 619 972 492 
Q 1197 366 1597 366 
Q 2025 366 2223 497 
Q 2422 628 2422 891 
Q 2422 1091 2284 1216 
Q 2147 1341 1841 1422 
L 1438 1528 
Q 953 1653 748 1773 
Q 544 1894 428 2066 
Q 313 2238 313 2488 
Q 313 2950 642 3192 
Q 972 3434 1603 3434 
Q 2163 3434 2492 3237 
Q 2822 3041 2909 2606 
L 2403 2544 
Q 2356 2769 2151 2889 
Q 1947 3009 1603 3009 
Q 1222 3009 1040 2893 
Q 859 2778 859 2544 
Q 859 2400 934 2306 
Q 1009 2213 1156 2147 
Q 1303 2081 1775 1966 
Q 2222 1853 2419 1758 
Q 2616 1663 2730 1547 
Q 2844 1431 2906 1279 
Q 2969 1128 2969 934 
z
" transform="scale(0.015625)"/>
       <path id="LiberationSans-29" d="M 1734 1650 
Q 1734 747 1451 28 
Q 1169 -691 581 -1325 
L 38 -1325 
Q 625 -669 897 57 
Q 1169 784 1169 1656 
Q 1169 2528 895 3256 
Q 622 3984 38 4638 
L 581 4638 
Q 1172 4000 1453 3279 
Q 1734 2559 1734 1663 
L 1734 1650 
z
" transform="scale(0.015625)"/>
      </defs>
      <use xlink:href="#LiberationSans-54"/>
      <use xlink:href="#LiberationSans-69" x="57.333984"/>
      <use xlink:href="#LiberationSans-6d" x="79.550781"/>
      <use xlink:href="#LiberationSans-65" x="162.851562"/>
      <use xlink:href="#LiberationSans-20" x="218.466797"/>
      <use xlink:href="#LiberationSans-28" x="246.25"/>
      <use xlink:href="#LiberationSans-73" x="279.550781"/>
      <use xlink:href="#LiberationSans-29" x="329.550781"/>
     </g>
    </g>
   </g>
   <g id="matplotlib.axis_2">
    <g id="ytick_1">
     <g id="line2d_9"/>
     <g id="text_10">
      <!-- 0 -->
      <g style="fill: #262626" transform="translate(98.939063 496.103437) scale(0.1 -0.1)">
       <use xlink:href="#LiberationSans-30"/>
      </g>
     </g>
    </g>
    <g id="ytick_2">
     <g id="line2d_10"/>
     <g id="text_11">
      <!-- 25 -->
      <g style="fill: #262626" transform="translate(93.378125 440.103437) scale(0.1 -0.1)">
       <defs>
        <path id="LiberationSans-35" d="M 3291 1434 
Q 3291 738 2877 337 
Q 2463 -63 1728 -63 
Q 1113 -63 734 206 
Q 356 475 256 984 
L 825 1050 
Q 1003 397 1741 397 
Q 2194 397 2450 670 
Q 2706 944 2706 1422 
Q 2706 1838 2448 2094 
Q 2191 2350 1753 2350 
Q 1525 2350 1328 2278 
Q 1131 2206 934 2034 
L 384 2034 
L 531 4403 
L 3034 4403 
L 3034 3925 
L 1044 3925 
L 959 2528 
Q 1325 2809 1869 2809 
Q 2519 2809 2905 2428 
Q 3291 2047 3291 1434 
z
" transform="scale(0.015625)"/>
       </defs>
       <use xlink:href="#LiberationSans-32"/>
       <use xlink:href="#LiberationSans-35" x="55.615234"/>
      </g>
     </g>
    </g>
    <g id="ytick_3">
     <g id="line2d_11"/>
     <g id="text_12">
      <!-- 50 -->
      <g style="fill: #262626" transform="translate(93.378125 384.103437) scale(0.1 -0.1)">
       <use xlink:href="#LiberationSans-35"/>
       <use xlink:href="#LiberationSans-30" x="55.615234"/>
      </g>
     </g>
    </g>
    <g id="ytick_4">
     <g id="line2d_12"/>
     <g id="text_13">
      <!-- 75 -->
      <g style="fill: #262626" transform="translate(93.378125 328.103437) scale(0.1 -0.1)">
       <defs>
        <path id="LiberationSans-37" d="M 3238 3947 
Q 2563 2916 2284 2331 
Q 2006 1747 1867 1178 
Q 1728 609 1728 0 
L 1141 0 
Q 1141 844 1498 1776 
Q 1856 2709 2694 3925 
L 328 3925 
L 328 4403 
L 3238 4403 
L 3238 3947 
z
" transform="scale(0.015625)"/>
       </defs>
       <use xlink:href="#LiberationSans-37"/>
       <use xlink:href="#LiberationSans-35" x="55.615234"/>
      </g>
     </g>
    </g>
    <g id="ytick_5">
     <g id="line2d_13"/>
     <g id="text_14">
      <!-- 100 -->
      <g style="fill: #262626" transform="translate(87.817188 272.103437) scale(0.1 -0.1)">
       <use xlink:href="#LiberationSans-31"/>
       <use xlink:href="#LiberationSans-30" x="55.615234"/>
       <use xlink:href="#LiberationSans-30" x="111.230469"/>
      </g>
     </g>
    </g>
    <g id="ytick_6">
     <g id="line2d_14"/>
     <g id="text_15">
      <!-- 125 -->
      <g style="fill: #262626" transform="translate(87.817188 216.103438) scale(0.1 -0.1)">
       <use xlink:href="#LiberationSans-31"/>
       <use xlink:href="#LiberationSans-32" x="55.615234"/>
       <use xlink:href="#LiberationSans-35" x="111.230469"/>
      </g>
     </g>
    </g>
    <g id="ytick_7">
     <g id="line2d_15"/>
     <g id="text_16">
      <!-- 150 -->
      <g style="fill: #262626" transform="translate(87.817188 160.103437) scale(0.1 -0.1)">
       <use xlink:href="#LiberationSans-31"/>
       <use xlink:href="#LiberationSans-35" x="55.615234"/>
       <use xlink:href="#LiberationSans-30" x="111.230469"/>
      </g>
     </g>
    </g>
    <g id="ytick_8">
     <g id="line2d_16"/>
     <g id="text_17">
      <!-- 175 -->
      <g style="fill: #262626" transform="translate(87.817188 104.103437) scale(0.1 -0.1)">
       <use xlink:href="#LiberationSans-31"/>
       <use xlink:href="#LiberationSans-37" x="55.615234"/>
       <use xlink:href="#LiberationSans-35" x="111.230469"/>
      </g>
     </g>
    </g>
    <g id="text_18">
     <!-- Output Frequency (Hz) -->
     <g style="fill: #262626" transform="translate(81.742188 341.728437) rotate(-90) scale(0.1 -0.1)">
      <defs>
       <path id="LiberationSans-4f" d="M 4672 2222 
Q 4672 1531 4408 1012 
Q 4144 494 3650 215 
Q 3156 -63 2484 -63 
Q 1806 -63 1314 212 
Q 822 488 562 1008 
Q 303 1528 303 2222 
Q 303 3278 881 3873 
Q 1459 4469 2491 4469 
Q 3163 4469 3656 4201 
Q 4150 3934 4411 3425 
Q 4672 2916 4672 2222 
z
M 4063 2222 
Q 4063 3044 3652 3512 
Q 3241 3981 2491 3981 
Q 1734 3981 1321 3518 
Q 909 3056 909 2222 
Q 909 1394 1326 908 
Q 1744 422 2484 422 
Q 3247 422 3655 892 
Q 4063 1363 4063 2222 
z
" transform="scale(0.015625)"/>
       <path id="LiberationSans-75" d="M 981 3381 
L 981 1238 
Q 981 903 1047 718 
Q 1113 534 1256 453 
Q 1400 372 1678 372 
Q 2084 372 2318 650 
Q 2553 928 2553 1422 
L 2553 3381 
L 3116 3381 
L 3116 722 
Q 3116 131 3134 0 
L 2603 0 
Q 2600 16 2597 84 
Q 2594 153 2589 242 
Q 2584 331 2578 578 
L 2569 578 
Q 2375 228 2120 82 
Q 1866 -63 1488 -63 
Q 931 -63 673 214 
Q 416 491 416 1128 
L 416 3381 
L 981 3381 
z
" transform="scale(0.015625)"/>
       <path id="LiberationSans-74" d="M 1731 25 
Q 1453 -50 1163 -50 
Q 488 -50 488 716 
L 488 2972 
L 97 2972 
L 97 3381 
L 509 3381 
L 675 4138 
L 1050 4138 
L 1050 3381 
L 1675 3381 
L 1675 2972 
L 1050 2972 
L 1050 838 
Q 1050 594 1129 495 
Q 1209 397 1406 397 
Q 1519 397 1731 441 
L 1731 25 
z
" transform="scale(0.015625)"/>
       <path id="LiberationSans-70" d="M 3291 1706 
Q 3291 -63 2047 -63 
Q 1266 -63 997 525 
L 981 525 
Q 994 500 994 -6 
L 994 -1328 
L 431 -1328 
L 431 2691 
Q 431 3213 413 3381 
L 956 3381 
Q 959 3369 965 3292 
Q 972 3216 980 3056 
Q 988 2897 988 2838 
L 1000 2838 
Q 1150 3150 1397 3295 
Q 1644 3441 2047 3441 
Q 2672 3441 2981 3022 
Q 3291 2603 3291 1706 
z
M 2700 1694 
Q 2700 2400 2509 2703 
Q 2319 3006 1903 3006 
Q 1569 3006 1380 2865 
Q 1191 2725 1092 2426 
Q 994 2128 994 1650 
Q 994 984 1206 668 
Q 1419 353 1897 353 
Q 2316 353 2508 661 
Q 2700 969 2700 1694 
z
" transform="scale(0.015625)"/>
       <path id="LiberationSans-46" d="M 1122 3916 
L 1122 2278 
L 3578 2278 
L 3578 1784 
L 1122 1784 
L 1122 0 
L 525 0 
L 525 4403 
L 3653 4403 
L 3653 3916 
L 1122 3916 
z
" transform="scale(0.015625)"/>
       <path id="LiberationSans-72" d="M 444 0 
L 444 2594 
Q 444 2950 425 3381 
L 956 3381 
Q 981 2806 981 2691 
L 994 2691 
Q 1128 3125 1303 3284 
Q 1478 3444 1797 3444 
Q 1909 3444 2025 3413 
L 2025 2897 
Q 1913 2928 1725 2928 
Q 1375 2928 1190 2626 
Q 1006 2325 1006 1763 
L 1006 0 
L 444 0 
z
" transform="scale(0.015625)"/>
       <path id="LiberationSans-71" d="M 1513 -63 
Q 869 -63 569 371 
Q 269 806 269 1675 
Q 269 3444 1513 3444 
Q 1897 3444 2147 3308 
Q 2397 3172 2566 2856 
L 2572 2856 
Q 2572 2950 2584 3179 
Q 2597 3409 2609 3425 
L 3150 3425 
Q 3128 3241 3128 2503 
L 3128 -1328 
L 2566 -1328 
L 2566 44 
L 2578 556 
L 2572 556 
Q 2403 222 2156 79 
Q 1909 -63 1513 -63 
z
M 2566 1731 
Q 2566 2391 2350 2709 
Q 2134 3028 1663 3028 
Q 1234 3028 1046 2709 
Q 859 2391 859 1694 
Q 859 984 1048 678 
Q 1238 372 1656 372 
Q 2134 372 2350 712 
Q 2566 1053 2566 1731 
z
" transform="scale(0.015625)"/>
       <path id="LiberationSans-6e" d="M 2578 0 
L 2578 2144 
Q 2578 2478 2512 2662 
Q 2447 2847 2303 2928 
Q 2159 3009 1881 3009 
Q 1475 3009 1240 2731 
Q 1006 2453 1006 1959 
L 1006 0 
L 444 0 
L 444 2659 
Q 444 3250 425 3381 
L 956 3381 
Q 959 3366 962 3297 
Q 966 3228 970 3139 
Q 975 3050 981 2803 
L 991 2803 
Q 1184 3153 1439 3298 
Q 1694 3444 2072 3444 
Q 2628 3444 2886 3167 
Q 3144 2891 3144 2253 
L 3144 0 
L 2578 0 
z
" transform="scale(0.015625)"/>
       <path id="LiberationSans-63" d="M 859 1706 
Q 859 1031 1071 706 
Q 1284 381 1713 381 
Q 2013 381 2214 543 
Q 2416 706 2463 1044 
L 3031 1006 
Q 2966 519 2616 228 
Q 2266 -63 1728 -63 
Q 1019 -63 645 385 
Q 272 834 272 1694 
Q 272 2547 647 2995 
Q 1022 3444 1722 3444 
Q 2241 3444 2583 3175 
Q 2925 2906 3013 2434 
L 2434 2391 
Q 2391 2672 2212 2837 
Q 2034 3003 1706 3003 
Q 1259 3003 1059 2706 
Q 859 2409 859 1706 
z
" transform="scale(0.015625)"/>
       <path id="LiberationSans-79" d="M 597 -1328 
Q 366 -1328 209 -1294 
L 209 -872 
Q 328 -891 472 -891 
Q 997 -891 1303 -119 
L 1356 16 
L 16 3381 
L 616 3381 
L 1328 1513 
Q 1344 1469 1366 1408 
Q 1388 1347 1506 1000 
Q 1625 653 1634 613 
L 1853 1228 
L 2594 3381 
L 3188 3381 
L 1888 0 
Q 1678 -541 1497 -805 
Q 1316 -1069 1095 -1198 
Q 875 -1328 597 -1328 
z
" transform="scale(0.015625)"/>
       <path id="LiberationSans-48" d="M 3503 0 
L 3503 2041 
L 1122 2041 
L 1122 0 
L 525 0 
L 525 4403 
L 1122 4403 
L 1122 2541 
L 3503 2541 
L 3503 4403 
L 4100 4403 
L 4100 0 
L 3503 0 
z
" transform="scale(0.015625)"/>
       <path id="LiberationSans-7a" d="M 259 0 
L 259 428 
L 2150 2947 
L 366 2947 
L 366 3381 
L 2816 3381 
L 2816 2953 
L 922 434 
L 2881 434 
L 2881 0 
L 259 0 
z
" transform="scale(0.015625)"/>
      </defs>
      <use xlink:href="#LiberationSans-4f"/>
      <use xlink:href="#LiberationSans-75" x="77.783203"/>
      <use xlink:href="#LiberationSans-74" x="133.398438"/>
      <use xlink:href="#LiberationSans-70" x="161.181641"/>
      <use xlink:href="#LiberationSans-75" x="216.796875"/>
      <use xlink:href="#LiberationSans-74" x="272.412109"/>
      <use xlink:href="#LiberationSans-20" x="300.195312"/>
      <use xlink:href="#LiberationSans-46" x="327.978516"/>
      <use xlink:href="#LiberationSans-72" x="389.0625"/>
      <use xlink:href="#LiberationSans-65" x="422.363281"/>
      <use xlink:href="#LiberationSans-71" x="477.978516"/>
      <use xlink:href="#LiberationSans-75" x="533.59375"/>
      <use xlink:href="#LiberationSans-65" x="589.208984"/>
      <use xlink:href="#LiberationSans-6e" x="644.824219"/>
      <use xlink:href="#LiberationSans-63" x="700.439453"/>
      <use xlink:href="#LiberationSans-79" x="750.439453"/>
      <use xlink:href="#LiberationSans-20" x="800.439453"/>
      <use xlink:href="#LiberationSans-28" x="828.222656"/>
      <use xlink:href="#LiberationSans-48" x="861.523438"/>
      <use xlink:href="#LiberationSans-7a" x="933.740234"/>
      <use xlink:href="#LiberationSans-29" x="983.740234"/>
     </g>
    </g>
   </g>
   <g id="line2d_17">
    <path d="M 138.436364 326.58 
L 140.06834 362.98 
L 141.700317 353.88 
L 143.332293 404.28 
L 144.96427 430.88 
L 146.596247 408.48 
L 148.228223 443.48 
L 149.8602 411.98 
L 151.492176 436.48 
L 153.124153 448.38 
L 154.75613 418.98 
L 156.388106 451.18 
L 158.020083 430.88 
L 159.652059 450.48 
L 161.284036 448.38 
L 162.916013 437.88 
L 164.547989 456.78 
L 166.179966 433.68 
L 167.811942 449.78 
L 169.443919 453.28 
L 171.075896 434.38 
L 172.707872 454.68 
L 174.339849 431.58 
L 175.971825 452.58 
L 177.603802 453.98 
L 179.235779 435.08 
L 180.867755 456.78 
L 182.499732 435.78 
L 184.131709 456.08 
L 185.763685 453.98 
L 187.395662 435.78 
L 189.027638 453.28 
L 190.659615 437.88 
L 192.291592 452.58 
L 193.923568 454.68 
L 195.555545 435.08 
L 197.187521 451.88 
L 198.819498 433.68 
L 200.451475 453.98 
L 202.083451 451.88 
L 203.715428 429.48 
L 205.347404 451.88 
L 206.979381 429.48 
L 208.611358 449.78 
L 210.243334 452.58 
L 211.875311 430.88 
L 213.507287 451.18 
L 215.139264 435.08 
L 216.771241 449.78 
L 218.403217 453.28 
L 220.035194 429.48 
L 221.66717 450.48 
L 223.299147 433.68 
L 224.931124 449.78 
L 226.5631 452.58 
L 228.195077 432.98 
L 229.827053 450.48 
L 231.45903 431.58 
L 233.091007 449.08 
L 234.722983 448.38 
L 236.35496 430.88 
L 237.986936 451.88 
L 239.618913 431.58 
L 241.25089 450.48 
L 242.882866 452.58 
L 244.514843 430.18 
L 246.146819 451.18 
L 247.778796 432.98 
L 249.410773 449.08 
L 251.042749 453.28 
L 252.674726 430.18 
L 254.306702 450.48 
L 255.938679 446.28 
L 257.570656 431.58 
L 259.202632 451.18 
L 260.834609 431.58 
L 262.466585 447.68 
L 264.098562 451.18 
L 265.730539 430.88 
L 267.362515 453.28 
L 268.994492 436.48 
L 270.626468 451.18 
L 272.258445 451.18 
L 273.890422 436.48 
L 275.522398 453.28 
L 277.154375 432.28 
L 278.786351 451.88 
L 280.418328 445.58 
L 282.050305 436.48 
L 283.682281 454.68 
L 285.314258 437.18 
L 286.946234 450.48 
L 288.578211 453.28 
L 290.210188 430.18 
L 291.842164 449.78 
L 293.474141 431.58 
L 295.106117 450.48 
L 296.738094 448.38 
L 298.370071 429.48 
L 300.002047 447.68 
L 301.634024 430.18 
L 303.266 449.08 
L 304.897977 451.18 
L 306.529954 432.28 
L 308.16193 456.08 
L 309.793907 435.08 
L 311.425883 453.98 
L 313.05786 453.98 
L 314.689837 437.18 
L 316.321813 454.68 
L 317.95379 435.08 
L 319.585767 452.58 
L 321.217743 454.68 
L 322.84972 434.38 
L 324.481696 456.08 
L 326.113673 439.28 
L 327.74565 453.28 
L 329.377626 456.78 
L 331.009603 439.98 
L 332.641579 451.88 
L 334.273556 438.58 
L 335.905533 455.38 
L 337.537509 452.58 
L 339.169486 432.28 
L 340.801462 451.88 
L 342.433439 433.68 
L 344.065416 447.68 
L 345.697392 450.48 
L 347.329369 430.88 
L 348.961345 451.88 
L 350.593322 433.68 
L 352.225299 449.08 
L 353.857275 451.88 
L 355.489252 432.28 
L 357.121228 452.58 
L 358.753205 435.08 
L 360.385182 450.48 
L 362.017158 451.88 
L 363.649135 434.38 
L 365.281111 449.78 
L 366.913088 431.58 
L 368.545065 446.98 
L 370.177041 449.08 
L 371.809018 431.58 
L 373.440994 451.18 
L 375.072971 438.58 
L 378.336924 446.98 
L 379.968901 429.48 
L 381.600877 453.98 
L 383.232854 451.88 
L 384.864831 434.38 
L 386.496807 453.28 
L 388.128784 435.78 
L 389.76076 456.08 
L 391.392737 456.78 
L 393.024714 436.48 
L 394.65669 452.58 
L 396.288667 439.98 
L 397.920643 453.98 
L 399.55262 455.38 
L 401.184597 440.68 
L 402.816573 456.08 
L 404.44855 438.58 
L 406.080526 450.48 
L 407.712503 455.38 
L 409.34448 436.48 
L 410.976456 454.68 
L 412.608433 430.18 
L 414.240409 452.58 
L 415.872386 456.78 
L 417.504363 430.88 
L 419.136339 452.58 
L 420.768316 433.68 
L 422.400292 453.28 
L 424.032269 451.18 
L 425.664246 434.38 
L 427.296222 452.58 
L 428.928199 430.88 
L 430.560175 453.28 
L 432.192152 451.18 
L 433.824129 429.48 
L 435.456105 453.28 
L 437.088082 435.78 
L 438.720058 451.18 
L 440.352035 452.58 
L 441.984012 430.88 
L 443.615988 449.78 
L 445.247965 432.98 
L 446.879942 451.88 
L 448.511918 452.58 
L 450.143895 431.58 
L 451.775871 451.88 
L 453.407848 429.48 
L 455.039825 449.08 
L 456.671801 451.88 
L 458.303778 432.28 
L 459.935754 452.58 
L 461.567731 435.08 
L 463.199708 451.88 
L 464.831684 451.88 
L 466.463661 433.68 
L 468.095637 450.48 
L 469.727614 431.58 
L 471.359591 446.98 
L 472.991567 453.28 
L 474.623544 426.68 
L 476.25552 451.18 
L 477.887497 430.88 
L 479.519474 449.78 
L 481.15145 456.08 
L 482.783427 439.98 
L 484.415403 451.18 
L 486.04738 430.18 
L 487.679357 449.08 
L 489.311333 455.38 
L 490.94331 440.68 
L 492.575286 455.38 
L 494.207263 436.48 
L 495.83924 451.18 
L 497.471216 457.48 
L 499.103193 437.18 
L 500.735169 453.28 
L 502.367146 453.98 
L 503.999123 438.58 
L 505.631099 456.08 
L 507.263076 440.68 
L 508.895052 455.38 
L 510.527029 454.68 
L 512.159006 437.88 
L 513.790982 456.78 
L 515.422959 437.88 
L 517.054935 454.68 
L 518.686912 454.68 
L 520.318889 435.78 
L 521.950865 452.58 
L 523.582842 434.38 
L 525.214818 453.98 
L 526.846795 453.98 
L 528.478772 437.18 
L 530.110748 456.08 
L 531.742725 432.98 
L 533.374701 453.98 
L 535.006678 452.58 
L 536.638655 437.88 
L 538.270631 453.28 
L 539.902608 432.28 
L 541.534584 453.28 
L 543.166561 450.48 
L 544.798538 430.18 
L 546.430514 451.88 
L 548.062491 432.98 
L 549.694467 451.18 
L 551.326444 449.78 
L 552.958421 431.58 
L 554.590397 451.88 
L 556.222374 430.18 
L 557.85435 452.58 
L 559.486327 452.58 
L 561.118304 432.98 
L 562.75028 452.58 
L 564.382257 432.28 
L 566.014233 452.58 
L 567.64621 452.58 
L 569.278187 431.58 
L 570.910163 450.48 
L 572.54214 432.98 
L 574.174117 451.88 
L 575.806093 451.18 
L 577.43807 432.98 
L 579.070046 451.88 
L 580.702023 431.58 
L 582.334 450.48 
L 583.965976 449.78 
L 585.597953 425.98 
L 587.229929 449.08 
L 588.861906 430.88 
L 590.493883 449.08 
L 592.125859 449.08 
L 593.757836 433.68 
L 595.389812 452.58 
L 597.021789 437.88 
L 598.653766 452.58 
L 600.285742 456.08 
L 601.917719 441.38 
L 603.549695 455.38 
L 605.181672 437.18 
L 606.813649 455.38 
L 608.445625 456.08 
L 610.077602 437.18 
L 611.709578 452.58 
L 613.341555 439.98 
L 614.973532 449.08 
L 616.605508 455.38 
L 618.237485 442.08 
L 619.869461 456.78 
L 621.501438 447.68 
L 623.133415 447.68 
L 624.765391 457.48 
L 626.397368 439.98 
L 628.029344 455.38 
L 629.661321 453.98 
L 631.293298 435.78 
L 632.925274 453.98 
L 634.557251 439.28 
L 636.189227 456.08 
L 637.821204 453.98 
L 639.453181 435.78 
L 641.085157 451.88 
L 642.717134 440.68 
L 644.34911 451.88 
L 645.981087 456.78 
L 647.613064 439.98 
L 649.24504 456.08 
L 650.877017 430.18 
L 652.508993 455.38 
L 654.14097 454.68 
L 655.772947 437.88 
L 657.404923 456.08 
L 659.0369 439.98 
L 660.668876 451.88 
L 662.300853 454.68 
L 663.93283 437.88 
L 665.564806 451.88 
L 667.196783 435.78 
L 668.828759 449.78 
L 670.460736 451.88 
L 672.092713 430.88 
L 673.724689 451.88 
L 675.356666 430.88 
L 676.988642 450.48 
L 678.620619 451.88 
L 680.252596 435.08 
L 681.884572 451.18 
L 683.516549 431.58 
L 685.148525 451.18 
L 686.780502 451.18 
L 688.412479 433.68 
L 690.044455 451.18 
L 691.676432 434.38 
L 693.308408 450.48 
L 694.940385 452.58 
L 696.572362 430.18 
L 698.204338 453.28 
L 699.836315 430.18 
L 701.468291 450.48 
L 703.100268 453.28 
L 704.732245 430.88 
L 706.364221 451.18 
L 707.996198 433.68 
L 709.628175 447.68 
L 711.260151 446.98 
L 712.892128 433.68 
L 714.524104 450.48 
L 716.156081 432.98 
L 717.788058 451.18 
L 719.420034 453.28 
L 721.052011 435.78 
L 722.683987 450.48 
L 724.315964 440.68 
L 725.947941 450.48 
L 727.579917 457.48 
L 729.211894 435.78 
L 730.84387 453.28 
L 732.475847 431.58 
L 734.107824 453.28 
L 735.7398 456.08 
L 737.371777 436.48 
L 739.003753 451.18 
L 740.63573 434.38 
L 742.267707 449.78 
L 743.899683 452.58 
L 745.53166 440.68 
L 747.163636 454.68 
L 747.163636 454.68 
" clip-path="url(#pf41e770cf6)" style="fill: none; stroke: #5f9ea0; stroke-width: 1.5; stroke-linecap: round"/>
   </g>
   <g id="line2d_18">
    <path d="M 138.436364 89.28 
L 140.06834 128.48 
L 141.700317 117.28 
L 143.332293 134.08 
L 144.96427 184.48 
L 146.596247 178.88 
L 148.228223 223.68 
L 149.8602 223.68 
L 151.492176 212.48 
L 153.124153 257.28 
L 154.75613 218.08 
L 156.388106 240.48 
L 158.020083 229.28 
L 159.652059 246.08 
L 161.284036 268.48 
L 162.916013 240.48 
L 164.547989 257.28 
L 166.179966 257.28 
L 167.811942 251.68 
L 169.443919 274.08 
L 171.075896 234.88 
L 172.707872 257.28 
L 174.339849 246.08 
L 175.971825 251.68 
L 177.603802 274.08 
L 179.235779 218.08 
L 180.867755 262.88 
L 182.499732 223.68 
L 184.131709 257.28 
L 185.763685 262.88 
L 187.395662 240.48 
L 189.027638 251.68 
L 190.659615 234.88 
L 192.291592 240.48 
L 193.923568 279.68 
L 195.555545 223.68 
L 197.187521 234.88 
L 198.819498 240.48 
L 200.451475 251.68 
L 202.083451 274.08 
L 203.715428 234.88 
L 205.347404 257.28 
L 206.979381 229.28 
L 208.611358 246.08 
L 210.243334 285.28 
L 211.875311 229.28 
L 213.507287 246.08 
L 215.139264 229.28 
L 216.771241 246.08 
L 218.403217 274.08 
L 220.035194 240.48 
L 221.66717 246.08 
L 223.299147 229.28 
L 224.931124 246.08 
L 226.5631 268.48 
L 228.195077 229.28 
L 229.827053 246.08 
L 231.45903 240.48 
L 233.091007 246.08 
L 234.722983 268.48 
L 236.35496 234.88 
L 237.986936 246.08 
L 239.618913 229.28 
L 241.25089 246.08 
L 242.882866 274.08 
L 244.514843 229.28 
L 246.146819 257.28 
L 247.778796 246.08 
L 249.410773 246.08 
L 251.042749 257.28 
L 252.674726 234.88 
L 255.938679 279.68 
L 257.570656 218.08 
L 259.202632 251.68 
L 260.834609 251.68 
L 264.098562 274.08 
L 265.730539 223.68 
L 267.362515 251.68 
L 268.994492 234.88 
L 270.626468 268.48 
L 272.258445 268.48 
L 273.890422 234.88 
L 275.522398 262.88 
L 277.154375 240.48 
L 278.786351 262.88 
L 280.418328 257.28 
L 282.050305 229.28 
L 283.682281 246.08 
L 285.314258 240.48 
L 286.946234 251.68 
L 288.578211 285.28 
L 290.210188 246.08 
L 291.842164 246.08 
L 293.474141 234.88 
L 295.106117 251.68 
L 296.738094 274.08 
L 298.370071 251.68 
L 300.002047 251.68 
L 301.634024 229.28 
L 303.266 246.08 
L 304.897977 285.28 
L 306.529954 234.88 
L 308.16193 246.08 
L 309.793907 229.28 
L 311.425883 262.88 
L 313.05786 285.28 
L 314.689837 234.88 
L 316.321813 268.48 
L 317.95379 246.08 
L 319.585767 251.68 
L 321.217743 268.48 
L 322.84972 223.68 
L 324.481696 262.88 
L 326.113673 229.28 
L 327.74565 229.28 
L 329.377626 274.08 
L 331.009603 240.48 
L 332.641579 246.08 
L 334.273556 229.28 
L 335.905533 240.48 
L 337.537509 274.08 
L 339.169486 240.48 
L 342.433439 240.48 
L 344.065416 246.08 
L 345.697392 274.08 
L 347.329369 223.68 
L 348.961345 240.48 
L 350.593322 229.28 
L 352.225299 246.08 
L 353.857275 279.68 
L 355.489252 229.28 
L 357.121228 240.48 
L 358.753205 246.08 
L 360.385182 240.48 
L 362.017158 268.48 
L 363.649135 223.68 
L 365.281111 246.08 
L 366.913088 234.88 
L 368.545065 234.88 
L 370.177041 268.48 
L 371.809018 229.28 
L 373.440994 262.88 
L 375.072971 285.28 
L 376.704948 229.28 
L 378.336924 262.88 
L 379.968901 223.68 
L 381.600877 251.68 
L 383.232854 285.28 
L 384.864831 229.28 
L 386.496807 268.48 
L 388.128784 223.68 
L 389.76076 251.68 
L 391.392737 290.88 
L 393.024714 234.88 
L 394.65669 251.68 
L 396.288667 234.88 
L 397.920643 240.48 
L 399.55262 257.28 
L 401.184597 240.48 
L 402.816573 251.68 
L 404.44855 246.08 
L 406.080526 246.08 
L 407.712503 268.48 
L 409.34448 234.88 
L 410.976456 257.28 
L 412.608433 234.88 
L 414.240409 246.08 
L 415.872386 279.68 
L 417.504363 246.08 
L 419.136339 257.28 
L 420.768316 223.68 
L 422.400292 251.68 
L 424.032269 274.08 
L 425.664246 223.68 
L 427.296222 257.28 
L 428.928199 234.88 
L 430.560175 240.48 
L 432.192152 268.48 
L 433.824129 223.68 
L 435.456105 251.68 
L 437.088082 229.28 
L 438.720058 240.48 
L 440.352035 268.48 
L 441.984012 240.48 
L 443.615988 240.48 
L 445.247965 229.28 
L 446.879942 246.08 
L 448.511918 274.08 
L 450.143895 234.88 
L 451.775871 262.88 
L 453.407848 234.88 
L 455.039825 240.48 
L 456.671801 262.88 
L 458.303778 229.28 
L 459.935754 251.68 
L 461.567731 234.88 
L 463.199708 240.48 
L 464.831684 268.48 
L 466.463661 240.48 
L 468.095637 246.08 
L 469.727614 234.88 
L 471.359591 262.88 
L 472.991567 279.68 
L 474.623544 234.88 
L 476.25552 257.28 
L 477.887497 240.48 
L 479.519474 240.48 
L 481.15145 279.68 
L 482.783427 246.08 
L 484.415403 262.88 
L 486.04738 251.68 
L 487.679357 234.88 
L 489.311333 274.08 
L 490.94331 246.08 
L 492.575286 268.48 
L 494.207263 262.88 
L 495.83924 223.68 
L 497.471216 257.28 
L 499.103193 246.08 
L 500.735169 246.08 
L 502.367146 262.88 
L 503.999123 223.68 
L 505.631099 262.88 
L 507.263076 223.68 
L 508.895052 257.28 
L 510.527029 268.48 
L 512.159006 223.68 
L 513.790982 251.68 
L 515.422959 229.28 
L 518.686912 274.08 
L 520.318889 251.68 
L 523.582842 240.48 
L 525.214818 246.08 
L 526.846795 262.88 
L 528.478772 234.88 
L 530.110748 240.48 
L 533.374701 240.48 
L 535.006678 274.08 
L 536.638655 240.48 
L 538.270631 257.28 
L 539.902608 234.88 
L 541.534584 251.68 
L 543.166561 285.28 
L 544.798538 223.68 
L 546.430514 251.68 
L 548.062491 234.88 
L 549.694467 240.48 
L 551.326444 274.08 
L 552.958421 223.68 
L 554.590397 257.28 
L 556.222374 234.88 
L 557.85435 240.48 
L 559.486327 268.48 
L 561.118304 229.28 
L 562.75028 251.68 
L 564.382257 229.28 
L 566.014233 246.08 
L 567.64621 268.48 
L 569.278187 246.08 
L 572.54214 234.88 
L 574.174117 246.08 
L 575.806093 262.88 
L 577.43807 240.48 
L 579.070046 240.48 
L 580.702023 234.88 
L 582.334 251.68 
L 583.965976 296.48 
L 585.597953 240.48 
L 587.229929 246.08 
L 588.861906 246.08 
L 592.125859 257.28 
L 593.757836 240.48 
L 595.389812 257.28 
L 597.021789 234.88 
L 598.653766 246.08 
L 600.285742 285.28 
L 601.917719 240.48 
L 603.549695 257.28 
L 605.181672 223.68 
L 606.813649 240.48 
L 608.445625 279.68 
L 610.077602 229.28 
L 611.709578 257.28 
L 613.341555 240.48 
L 614.973532 240.48 
L 616.605508 257.28 
L 618.237485 223.68 
L 619.869461 251.68 
L 621.501438 257.28 
L 623.133415 234.88 
L 624.765391 251.68 
L 626.397368 234.88 
L 628.029344 257.28 
L 629.661321 285.28 
L 631.293298 212.48 
L 632.925274 268.48 
L 634.557251 229.28 
L 636.189227 262.88 
L 637.821204 257.28 
L 639.453181 212.48 
L 641.085157 246.08 
L 642.717134 240.48 
L 644.34911 240.48 
L 645.981087 257.28 
L 647.613064 223.68 
L 649.24504 268.48 
L 650.877017 240.48 
L 652.508993 246.08 
L 654.14097 274.08 
L 655.772947 223.68 
L 657.404923 257.28 
L 659.0369 229.28 
L 660.668876 240.48 
L 662.300853 268.48 
L 663.93283 234.88 
L 665.564806 240.48 
L 667.196783 229.28 
L 668.828759 246.08 
L 670.460736 268.48 
L 672.092713 229.28 
L 673.724689 246.08 
L 675.356666 240.48 
L 676.988642 240.48 
L 678.620619 268.48 
L 680.252596 229.28 
L 681.884572 246.08 
L 683.516549 234.88 
L 685.148525 240.48 
L 686.780502 279.68 
L 688.412479 229.28 
L 690.044455 251.68 
L 691.676432 223.68 
L 693.308408 251.68 
L 694.940385 268.48 
L 696.572362 229.28 
L 698.204338 246.08 
L 699.836315 240.48 
L 701.468291 246.08 
L 703.100268 274.08 
L 704.732245 223.68 
L 706.364221 251.68 
L 707.996198 246.08 
L 709.628175 268.48 
L 711.260151 262.88 
L 712.892128 229.28 
L 714.524104 262.88 
L 716.156081 229.28 
L 719.420034 274.08 
L 721.052011 246.08 
L 724.315964 246.08 
L 727.579917 268.48 
L 729.211894 246.08 
L 730.84387 257.28 
L 732.475847 246.08 
L 734.107824 229.28 
L 735.7398 268.48 
L 737.371777 218.08 
L 740.63573 240.48 
L 742.267707 201.28 
L 743.899683 246.08 
L 745.53166 246.08 
L 747.163636 240.48 
L 747.163636 240.48 
" clip-path="url(#pf41e770cf6)" style="fill: none; stroke: #f08080; stroke-width: 1.5; stroke-linecap: round"/>
   </g>
   <g id="line2d_19">
    <path d="M 138.436364 492.48 
L 140.06834 492.48 
L 141.700317 486.88 
L 143.332293 475.68 
L 144.96427 475.68 
L 146.596247 458.88 
L 148.228223 464.48 
L 149.8602 453.28 
L 151.492176 475.68 
L 153.124153 475.68 
L 154.75613 458.88 
L 156.388106 470.08 
L 158.020083 458.88 
L 164.547989 458.88 
L 166.179966 453.28 
L 167.811942 470.08 
L 169.443919 470.08 
L 171.075896 458.88 
L 172.707872 470.08 
L 174.339849 458.88 
L 175.971825 475.68 
L 177.603802 470.08 
L 179.235779 458.88 
L 180.867755 470.08 
L 182.499732 458.88 
L 184.131709 470.08 
L 185.763685 470.08 
L 187.395662 464.48 
L 189.027638 470.08 
L 190.659615 470.08 
L 192.291592 464.48 
L 193.923568 475.68 
L 198.819498 458.88 
L 200.451475 464.48 
L 202.083451 475.68 
L 203.715428 458.88 
L 205.347404 475.68 
L 206.979381 464.48 
L 210.243334 464.48 
L 211.875311 458.88 
L 213.507287 470.08 
L 215.139264 458.88 
L 216.771241 470.08 
L 218.403217 470.08 
L 220.035194 458.88 
L 221.66717 470.08 
L 223.299147 464.48 
L 224.931124 470.08 
L 226.5631 470.08 
L 228.195077 458.88 
L 229.827053 470.08 
L 231.45903 458.88 
L 233.091007 470.08 
L 234.722983 470.08 
L 236.35496 458.88 
L 237.986936 470.08 
L 239.618913 470.08 
L 241.25089 458.88 
L 242.882866 470.08 
L 244.514843 458.88 
L 246.146819 470.08 
L 247.778796 470.08 
L 249.410773 458.88 
L 251.042749 475.68 
L 252.674726 447.68 
L 254.306702 475.68 
L 255.938679 464.48 
L 259.202632 464.48 
L 260.834609 458.88 
L 262.466585 464.48 
L 264.098562 464.48 
L 265.730539 458.88 
L 267.362515 464.48 
L 268.994492 458.88 
L 270.626468 475.68 
L 272.258445 458.88 
L 273.890422 458.88 
L 275.522398 470.08 
L 277.154375 464.48 
L 278.786351 481.28 
L 282.050305 458.88 
L 283.682281 464.48 
L 285.314258 458.88 
L 286.946234 470.08 
L 288.578211 470.08 
L 290.210188 458.88 
L 291.842164 470.08 
L 293.474141 453.28 
L 295.106117 475.68 
L 296.738094 464.48 
L 298.370071 470.08 
L 300.002047 458.88 
L 306.529954 458.88 
L 308.16193 464.48 
L 309.793907 453.28 
L 311.425883 464.48 
L 313.05786 464.48 
L 314.689837 458.88 
L 316.321813 464.48 
L 317.95379 458.88 
L 319.585767 475.68 
L 321.217743 475.68 
L 322.84972 458.88 
L 324.481696 464.48 
L 326.113673 464.48 
L 327.74565 458.88 
L 329.377626 470.08 
L 331.009603 475.68 
L 334.273556 464.48 
L 335.905533 470.08 
L 337.537509 470.08 
L 339.169486 464.48 
L 340.801462 470.08 
L 342.433439 464.48 
L 344.065416 464.48 
L 345.697392 470.08 
L 347.329369 464.48 
L 348.961345 470.08 
L 350.593322 470.08 
L 352.225299 458.88 
L 353.857275 470.08 
L 355.489252 458.88 
L 357.121228 470.08 
L 358.753205 470.08 
L 360.385182 458.88 
L 362.017158 470.08 
L 363.649135 470.08 
L 365.281111 475.68 
L 366.913088 475.68 
L 368.545065 458.88 
L 370.177041 464.48 
L 371.809018 442.08 
L 373.440994 464.48 
L 375.072971 475.68 
L 376.704948 475.68 
L 379.968901 453.28 
L 381.600877 464.48 
L 383.232854 464.48 
L 384.864831 453.28 
L 386.496807 464.48 
L 388.128784 458.88 
L 389.76076 464.48 
L 391.392737 481.28 
L 397.920643 458.88 
L 399.55262 464.48 
L 401.184597 458.88 
L 404.44855 470.08 
L 406.080526 470.08 
L 409.34448 458.88 
L 410.976456 481.28 
L 412.608433 464.48 
L 415.872386 464.48 
L 417.504363 458.88 
L 419.136339 475.68 
L 420.768316 458.88 
L 422.400292 470.08 
L 424.032269 470.08 
L 425.664246 458.88 
L 427.296222 470.08 
L 428.928199 458.88 
L 430.560175 475.68 
L 432.192152 481.28 
L 433.824129 458.88 
L 435.456105 470.08 
L 437.088082 458.88 
L 438.720058 470.08 
L 440.352035 470.08 
L 441.984012 458.88 
L 443.615988 470.08 
L 445.247965 458.88 
L 446.879942 470.08 
L 448.511918 470.08 
L 450.143895 458.88 
L 451.775871 470.08 
L 453.407848 458.88 
L 455.039825 470.08 
L 456.671801 470.08 
L 458.303778 458.88 
L 459.935754 470.08 
L 461.567731 464.48 
L 463.199708 464.48 
L 464.831684 470.08 
L 466.463661 458.88 
L 468.095637 464.48 
L 469.727614 458.88 
L 471.359591 464.48 
L 472.991567 475.68 
L 474.623544 464.48 
L 476.25552 464.48 
L 477.887497 453.28 
L 479.519474 464.48 
L 481.15145 464.48 
L 482.783427 453.28 
L 484.415403 470.08 
L 486.04738 475.68 
L 487.679357 458.88 
L 490.94331 458.88 
L 494.207263 470.08 
L 495.83924 458.88 
L 497.471216 464.48 
L 499.103193 475.68 
L 503.999123 458.88 
L 505.631099 464.48 
L 507.263076 458.88 
L 508.895052 475.68 
L 510.527029 475.68 
L 512.159006 464.48 
L 513.790982 464.48 
L 515.422959 458.88 
L 517.054935 464.48 
L 518.686912 464.48 
L 520.318889 470.08 
L 521.950865 464.48 
L 523.582842 475.68 
L 525.214818 464.48 
L 526.846795 464.48 
L 528.478772 458.88 
L 530.110748 470.08 
L 531.742725 464.48 
L 533.374701 470.08 
L 535.006678 458.88 
L 536.638655 453.28 
L 538.270631 475.68 
L 539.902608 464.48 
L 541.534584 481.28 
L 544.798538 458.88 
L 546.430514 470.08 
L 548.062491 458.88 
L 549.694467 470.08 
L 551.326444 470.08 
L 552.958421 458.88 
L 554.590397 470.08 
L 556.222374 458.88 
L 557.85435 470.08 
L 559.486327 470.08 
L 561.118304 458.88 
L 562.75028 470.08 
L 564.382257 458.88 
L 566.014233 470.08 
L 567.64621 470.08 
L 569.278187 458.88 
L 570.910163 470.08 
L 572.54214 458.88 
L 574.174117 470.08 
L 575.806093 470.08 
L 577.43807 458.88 
L 579.070046 470.08 
L 580.702023 458.88 
L 582.334 453.28 
L 585.597953 464.48 
L 587.229929 475.68 
L 588.861906 475.68 
L 590.493883 470.08 
L 592.125859 458.88 
L 593.757836 458.88 
L 595.389812 464.48 
L 597.021789 453.28 
L 600.285742 464.48 
L 601.917719 464.48 
L 603.549695 475.68 
L 605.181672 464.48 
L 610.077602 464.48 
L 611.709578 475.68 
L 613.341555 475.68 
L 618.237485 458.88 
L 619.869461 475.68 
L 621.501438 470.08 
L 623.133415 458.88 
L 624.765391 464.48 
L 626.397368 453.28 
L 628.029344 475.68 
L 632.925274 458.88 
L 634.557251 464.48 
L 636.189227 481.28 
L 637.821204 475.68 
L 639.453181 475.68 
L 641.085157 470.08 
L 642.717134 453.28 
L 644.34911 464.48 
L 645.981087 470.08 
L 647.613064 453.28 
L 649.24504 475.68 
L 650.877017 464.48 
L 652.508993 470.08 
L 654.14097 470.08 
L 655.772947 458.88 
L 659.0369 470.08 
L 660.668876 470.08 
L 662.300853 464.48 
L 663.93283 464.48 
L 665.564806 470.08 
L 670.460736 470.08 
L 672.092713 458.88 
L 673.724689 470.08 
L 675.356666 458.88 
L 676.988642 470.08 
L 678.620619 470.08 
L 680.252596 458.88 
L 681.884572 470.08 
L 683.516549 458.88 
L 685.148525 470.08 
L 686.780502 470.08 
L 688.412479 458.88 
L 690.044455 470.08 
L 694.940385 470.08 
L 696.572362 458.88 
L 698.204338 470.08 
L 699.836315 458.88 
L 701.468291 470.08 
L 703.100268 470.08 
L 704.732245 453.28 
L 706.364221 464.48 
L 707.996198 453.28 
L 709.628175 470.08 
L 711.260151 470.08 
L 712.892128 464.48 
L 714.524104 464.48 
L 716.156081 458.88 
L 717.788058 458.88 
L 719.420034 464.48 
L 721.052011 453.28 
L 722.683987 464.48 
L 724.315964 458.88 
L 725.947941 464.48 
L 727.579917 464.48 
L 729.211894 458.88 
L 730.84387 475.68 
L 735.7398 475.68 
L 737.371777 470.08 
L 739.003753 475.68 
L 742.267707 475.68 
L 743.899683 458.88 
L 745.53166 458.88 
L 747.163636 464.48 
L 747.163636 464.48 
" clip-path="url(#pf41e770cf6)" style="fill: none; stroke: #f4a460; stroke-width: 1.5; stroke-linecap: round"/>
   </g>
   <g id="patch_3">
    <path d="M 108 512.64 
L 108 69.12 
" style="fill: none; stroke: #262626; stroke-width: 1.25; stroke-linejoin: miter; stroke-linecap: square"/>
   </g>
   <g id="patch_4">
    <path d="M 108 512.64 
L 777.6 512.64 
" style="fill: none; stroke: #262626; stroke-width: 1.25; stroke-linejoin: miter; stroke-linecap: square"/>
   </g>
   <g id="text_19">
    <!-- Frequeny vs Time -->
    <g style="fill: #262626" transform="translate(395.11875 63.12) scale(0.12 -0.12)">
     <defs>
      <path id="LiberationSans-76" d="M 1916 0 
L 1250 0 
L 22 3381 
L 622 3381 
L 1366 1181 
Q 1406 1056 1581 441 
L 1691 806 
L 1813 1175 
L 2581 3381 
L 3178 3381 
L 1916 0 
z
" transform="scale(0.015625)"/>
     </defs>
     <use xlink:href="#LiberationSans-46"/>
     <use xlink:href="#LiberationSans-72" x="61.083984"/>
     <use xlink:href="#LiberationSans-65" x="94.384766"/>
     <use xlink:href="#LiberationSans-71" x="150"/>
     <use xlink:href="#LiberationSans-75" x="205.615234"/>
     <use xlink:href="#LiberationSans-65" x="261.230469"/>
     <use xlink:href="#LiberationSans-6e" x="316.845703"/>
     <use xlink:href="#LiberationSans-79" x="372.460938"/>
     <use xlink:href="#LiberationSans-20" x="422.460938"/>
     <use xlink:href="#LiberationSans-76" x="450.244141"/>
     <use xlink:href="#LiberationSans-73" x="500.244141"/>
     <use xlink:href="#LiberationSans-20" x="550.244141"/>
     <use xlink:href="#LiberationSans-54" x="576.277344"/>
     <use xlink:href="#LiberationSans-69" x="633.611328"/>
     <use xlink:href="#LiberationSans-6d" x="655.828125"/>
     <use xlink:href="#LiberationSans-65" x="739.128906"/>
    </g>
   </g>
   <g id="legend_1">
    <g id="line2d_20">
     <path d="M 676.678125 81.866875 
L 686.678125 81.866875 
L 696.678125 81.866875 
" style="fill: none; stroke: #5f9ea0; stroke-width: 1.5; stroke-linecap: round"/>
    </g>
    <g id="text_20">
     <!--  PC_neurons -->
     <g style="fill: #262626" transform="translate(704.678125 85.366875) scale(0.1 -0.1)">
      <defs>
       <path id="LiberationSans-50" d="M 3931 3078 
Q 3931 2453 3523 2084 
Q 3116 1716 2416 1716 
L 1122 1716 
L 1122 0 
L 525 0 
L 525 4403 
L 2378 4403 
Q 3119 4403 3525 4056 
Q 3931 3709 3931 3078 
z
M 3331 3072 
Q 3331 3925 2306 3925 
L 1122 3925 
L 1122 2188 
L 2331 2188 
Q 3331 2188 3331 3072 
z
" transform="scale(0.015625)"/>
       <path id="LiberationSans-43" d="M 2475 3981 
Q 1744 3981 1337 3511 
Q 931 3041 931 2222 
Q 931 1413 1354 920 
Q 1778 428 2500 428 
Q 3425 428 3891 1344 
L 4378 1100 
Q 4106 531 3614 234 
Q 3122 -63 2472 -63 
Q 1806 -63 1320 214 
Q 834 491 579 1005 
Q 325 1519 325 2222 
Q 325 3275 894 3872 
Q 1463 4469 2469 4469 
Q 3172 4469 3644 4194 
Q 4116 3919 4338 3378 
L 3772 3191 
Q 3619 3575 3280 3778 
Q 2941 3981 2475 3981 
z
" transform="scale(0.015625)"/>
       <path id="LiberationSans-5f" d="M -97 -1272 
L -97 -866 
L 3631 -866 
L 3631 -1272 
L -97 -1272 
z
" transform="scale(0.015625)"/>
       <path id="LiberationSans-6f" d="M 3291 1694 
Q 3291 806 2900 371 
Q 2509 -63 1766 -63 
Q 1025 -63 647 389 
Q 269 841 269 1694 
Q 269 3444 1784 3444 
Q 2559 3444 2925 3017 
Q 3291 2591 3291 1694 
z
M 2700 1694 
Q 2700 2394 2492 2711 
Q 2284 3028 1794 3028 
Q 1300 3028 1079 2704 
Q 859 2381 859 1694 
Q 859 1025 1076 689 
Q 1294 353 1759 353 
Q 2266 353 2483 678 
Q 2700 1003 2700 1694 
z
" transform="scale(0.015625)"/>
      </defs>
      <use xlink:href="#LiberationSans-20"/>
      <use xlink:href="#LiberationSans-50" x="27.783203"/>
      <use xlink:href="#LiberationSans-43" x="94.482422"/>
      <use xlink:href="#LiberationSans-5f" x="166.699219"/>
      <use xlink:href="#LiberationSans-6e" x="222.314453"/>
      <use xlink:href="#LiberationSans-65" x="277.929688"/>
      <use xlink:href="#LiberationSans-75" x="333.544922"/>
      <use xlink:href="#LiberationSans-72" x="389.160156"/>
      <use xlink:href="#LiberationSans-6f" x="422.460938"/>
      <use xlink:href="#LiberationSans-6e" x="478.076172"/>
      <use xlink:href="#LiberationSans-73" x="533.691406"/>
     </g>
    </g>
    <g id="line2d_21">
     <path d="M 676.678125 96.18875 
L 686.678125 96.18875 
L 696.678125 96.18875 
" style="fill: none; stroke: #f08080; stroke-width: 1.5; stroke-linecap: round"/>
    </g>
    <g id="text_21">
     <!--  PV_neurons -->
     <g style="fill: #262626" transform="translate(704.678125 99.68875) scale(0.1 -0.1)">
      <defs>
       <path id="LiberationSans-56" d="M 2444 0 
L 1825 0 
L 28 4403 
L 656 4403 
L 1875 1303 
L 2138 525 
L 2400 1303 
L 3613 4403 
L 4241 4403 
L 2444 0 
z
" transform="scale(0.015625)"/>
      </defs>
      <use xlink:href="#LiberationSans-20"/>
      <use xlink:href="#LiberationSans-50" x="27.783203"/>
      <use xlink:href="#LiberationSans-56" x="94.482422"/>
      <use xlink:href="#LiberationSans-5f" x="161.181641"/>
      <use xlink:href="#LiberationSans-6e" x="216.796875"/>
      <use xlink:href="#LiberationSans-65" x="272.412109"/>
      <use xlink:href="#LiberationSans-75" x="328.027344"/>
      <use xlink:href="#LiberationSans-72" x="383.642578"/>
      <use xlink:href="#LiberationSans-6f" x="416.943359"/>
      <use xlink:href="#LiberationSans-6e" x="472.558594"/>
      <use xlink:href="#LiberationSans-73" x="528.173828"/>
     </g>
    </g>
    <g id="line2d_22">
     <path d="M 676.678125 110.510625 
L 686.678125 110.510625 
L 696.678125 110.510625 
" style="fill: none; stroke: #f4a460; stroke-width: 1.5; stroke-linecap: round"/>
    </g>
    <g id="text_22">
     <!--  SST_neurons -->
     <g style="fill: #262626" transform="translate(704.678125 114.010625) scale(0.1 -0.1)">
      <defs>
       <path id="LiberationSans-53" d="M 3975 1216 
Q 3975 606 3498 271 
Q 3022 -63 2156 -63 
Q 547 -63 291 1056 
L 869 1172 
Q 969 775 1294 589 
Q 1619 403 2178 403 
Q 2756 403 3070 601 
Q 3384 800 3384 1184 
Q 3384 1400 3286 1534 
Q 3188 1669 3009 1756 
Q 2831 1844 2584 1903 
Q 2338 1963 2038 2031 
Q 1516 2147 1245 2262 
Q 975 2378 819 2520 
Q 663 2663 580 2853 
Q 497 3044 497 3291 
Q 497 3856 930 4162 
Q 1363 4469 2169 4469 
Q 2919 4469 3316 4239 
Q 3713 4009 3872 3456 
L 3284 3353 
Q 3188 3703 2916 3861 
Q 2644 4019 2163 4019 
Q 1634 4019 1356 3844 
Q 1078 3669 1078 3322 
Q 1078 3119 1186 2986 
Q 1294 2853 1497 2761 
Q 1700 2669 2306 2534 
Q 2509 2488 2711 2439 
Q 2913 2391 3097 2323 
Q 3281 2256 3442 2165 
Q 3603 2075 3722 1944 
Q 3841 1813 3908 1634 
Q 3975 1456 3975 1216 
z
" transform="scale(0.015625)"/>
      </defs>
      <use xlink:href="#LiberationSans-20"/>
      <use xlink:href="#LiberationSans-53" x="27.783203"/>
      <use xlink:href="#LiberationSans-53" x="94.482422"/>
      <use xlink:href="#LiberationSans-54" x="161.181641"/>
      <use xlink:href="#LiberationSans-5f" x="222.265625"/>
      <use xlink:href="#LiberationSans-6e" x="277.880859"/>
      <use xlink:href="#LiberationSans-65" x="333.496094"/>
      <use xlink:href="#LiberationSans-75" x="389.111328"/>
      <use xlink:href="#LiberationSans-72" x="444.726562"/>
      <use xlink:href="#LiberationSans-6f" x="478.027344"/>
      <use xlink:href="#LiberationSans-6e" x="533.642578"/>
      <use xlink:href="#LiberationSans-73" x="589.257812"/>
     </g>
    </g>
   </g>
  </g>
  <g id="text_23">
   <g id="patch_5">
    <path d="M 604.8 494.1675 
L 674.329219 494.1675 
Q 677.029219 494.1675 677.029219 491.4675 
L 677.029219 483.077813 
Q 677.029219 480.377813 674.329219 480.377813 
L 604.8 480.377813 
Q 602.1 480.377813 602.1 483.077813 
L 602.1 491.4675 
Q 602.1 494.1675 604.8 494.1675 
z
" style="fill: #ffffff; stroke: #000000; stroke-linejoin: miter"/>
   </g>
   <!-- Input Freq: 60 Hz -->
   <g style="fill: #262626" transform="translate(604.8 489.6) scale(0.09 -0.09)">
    <defs>
     <path id="LiberationSans-49" d="M 591 0 
L 591 4403 
L 1188 4403 
L 1188 0 
L 591 0 
z
" transform="scale(0.015625)"/>
     <path id="LiberationSans-3a" d="M 584 2734 
L 584 3381 
L 1194 3381 
L 1194 2734 
L 584 2734 
z
M 584 0 
L 584 647 
L 1194 647 
L 1194 0 
L 584 0 
z
" transform="scale(0.015625)"/>
    </defs>
    <use xlink:href="#LiberationSans-49"/>
    <use xlink:href="#LiberationSans-6e" x="27.783203"/>
    <use xlink:href="#LiberationSans-70" x="83.398438"/>
    <use xlink:href="#LiberationSans-75" x="139.013672"/>
    <use xlink:href="#LiberationSans-74" x="194.628906"/>
    <use xlink:href="#LiberationSans-20" x="222.412109"/>
    <use xlink:href="#LiberationSans-46" x="250.195312"/>
    <use xlink:href="#LiberationSans-72" x="311.279297"/>
    <use xlink:href="#LiberationSans-65" x="344.580078"/>
    <use xlink:href="#LiberationSans-71" x="400.195312"/>
    <use xlink:href="#LiberationSans-3a" x="455.810547"/>
    <use xlink:href="#LiberationSans-20" x="483.59375"/>
    <use xlink:href="#LiberationSans-36" x="511.376953"/>
    <use xlink:href="#LiberationSans-30" x="566.992188"/>
    <use xlink:href="#LiberationSans-20" x="622.607422"/>
    <use xlink:href="#LiberationSans-48" x="650.390625"/>
    <use xlink:href="#LiberationSans-7a" x="722.607422"/>
   </g>
  </g>
 </g>
 <defs>
  <clipPath id="pf41e770cf6">
   <rect x="108" y="69.12" width="669.6" height="443.52"/>
  </clipPath>
 </defs>
</svg>
