<?xml version="1.0" encoding="utf-8" standalone="no"?>
<!DOCTYPE svg PUBLIC "-//W3C//DTD SVG 1.1//EN"
  "http://www.w3.org/Graphics/SVG/1.1/DTD/svg11.dtd">
<svg xmlns:xlink="http://www.w3.org/1999/xlink" width="864pt" height="576pt" viewBox="0 0 864 576" xmlns="http://www.w3.org/2000/svg" version="1.1">
 <metadata>
  <rdf:RDF xmlns:dc="http://purl.org/dc/elements/1.1/" xmlns:cc="http://creativecommons.org/ns#" xmlns:rdf="http://www.w3.org/1999/02/22-rdf-syntax-ns#">
   <cc:Work>
    <dc:type rdf:resource="http://purl.org/dc/dcmitype/StillImage"/>
    <dc:date>2023-08-07T14:00:14.891106</dc:date>
    <dc:format>image/svg+xml</dc:format>
    <dc:creator>
     <cc:Agent>
      <dc:title>Matplotlib v3.7.1, https://matplotlib.org/</dc:title>
     </cc:Agent>
    </dc:creator>
   </cc:Work>
  </rdf:RDF>
 </metadata>
 <defs>
  <style type="text/css">*{stroke-linejoin: round; stroke-linecap: butt}</style>
 </defs>
 <g id="figure_1">
  <g id="patch_1">
   <path d="M 0 576 
L 864 576 
L 864 0 
L 0 0 
z
" style="fill: #ffffff"/>
  </g>
  <g id="axes_1">
   <g id="patch_2">
    <path d="M 108 512.64 
L 777.6 512.64 
L 777.6 69.12 
L 108 69.12 
z
" style="fill: #ffffff"/>
   </g>
   <g id="matplotlib.axis_1">
    <g id="xtick_1">
     <g id="line2d_1"/>
     <g id="text_1">
      <!-- 0 -->
      <g style="fill: #262626" transform="translate(135.655895 523.386875) scale(0.1 -0.1)">
       <defs>
        <path id="LiberationSans-30" d="M 3309 2203 
Q 3309 1100 2920 518 
Q 2531 -63 1772 -63 
Q 1013 -63 631 515 
Q 250 1094 250 2203 
Q 250 3338 620 3903 
Q 991 4469 1791 4469 
Q 2569 4469 2939 3897 
Q 3309 3325 3309 2203 
z
M 2738 2203 
Q 2738 3156 2517 3584 
Q 2297 4013 1791 4013 
Q 1272 4013 1045 3591 
Q 819 3169 819 2203 
Q 819 1266 1048 831 
Q 1278 397 1778 397 
Q 2275 397 2506 840 
Q 2738 1284 2738 2203 
z
" transform="scale(0.015625)"/>
       </defs>
       <use xlink:href="#LiberationSans-30"/>
      </g>
     </g>
    </g>
    <g id="xtick_2">
     <g id="line2d_2"/>
     <g id="text_2">
      <!-- 2 -->
      <g style="fill: #262626" transform="translate(217.254725 523.386875) scale(0.1 -0.1)">
       <defs>
        <path id="LiberationSans-32" d="M 322 0 
L 322 397 
Q 481 763 711 1042 
Q 941 1322 1194 1548 
Q 1447 1775 1695 1969 
Q 1944 2163 2144 2356 
Q 2344 2550 2467 2762 
Q 2591 2975 2591 3244 
Q 2591 3606 2378 3806 
Q 2166 4006 1788 4006 
Q 1428 4006 1195 3811 
Q 963 3616 922 3263 
L 347 3316 
Q 409 3844 795 4156 
Q 1181 4469 1788 4469 
Q 2453 4469 2811 4155 
Q 3169 3841 3169 3263 
Q 3169 3006 3051 2753 
Q 2934 2500 2703 2247 
Q 2472 1994 1819 1463 
Q 1459 1169 1246 933 
Q 1034 697 941 478 
L 3238 478 
L 3238 0 
L 322 0 
z
" transform="scale(0.015625)"/>
       </defs>
       <use xlink:href="#LiberationSans-32"/>
      </g>
     </g>
    </g>
    <g id="xtick_3">
     <g id="line2d_3"/>
     <g id="text_3">
      <!-- 4 -->
      <g style="fill: #262626" transform="translate(298.853555 523.386875) scale(0.1 -0.1)">
       <defs>
        <path id="LiberationSans-34" d="M 2753 997 
L 2753 0 
L 2222 0 
L 2222 997 
L 147 997 
L 147 1434 
L 2163 4403 
L 2753 4403 
L 2753 1441 
L 3372 1441 
L 3372 997 
L 2753 997 
z
M 2222 3769 
Q 2216 3750 2134 3603 
Q 2053 3456 2013 3397 
L 884 1734 
L 716 1503 
L 666 1441 
L 2222 1441 
L 2222 3769 
z
" transform="scale(0.015625)"/>
       </defs>
       <use xlink:href="#LiberationSans-34"/>
      </g>
     </g>
    </g>
    <g id="xtick_4">
     <g id="line2d_4"/>
     <g id="text_4">
      <!-- 6 -->
      <g style="fill: #262626" transform="translate(380.452385 523.386875) scale(0.1 -0.1)">
       <defs>
        <path id="LiberationSans-36" d="M 3278 1441 
Q 3278 744 2900 340 
Q 2522 -63 1856 -63 
Q 1113 -63 719 490 
Q 325 1044 325 2100 
Q 325 3244 734 3856 
Q 1144 4469 1900 4469 
Q 2897 4469 3156 3572 
L 2619 3475 
Q 2453 4013 1894 4013 
Q 1413 4013 1148 3564 
Q 884 3116 884 2266 
Q 1038 2550 1316 2698 
Q 1594 2847 1953 2847 
Q 2563 2847 2920 2465 
Q 3278 2084 3278 1441 
z
M 2706 1416 
Q 2706 1894 2472 2153 
Q 2238 2413 1819 2413 
Q 1425 2413 1183 2183 
Q 941 1953 941 1550 
Q 941 1041 1192 716 
Q 1444 391 1838 391 
Q 2244 391 2475 664 
Q 2706 938 2706 1416 
z
" transform="scale(0.015625)"/>
       </defs>
       <use xlink:href="#LiberationSans-36"/>
      </g>
     </g>
    </g>
    <g id="xtick_5">
     <g id="line2d_5"/>
     <g id="text_5">
      <!-- 8 -->
      <g style="fill: #262626" transform="translate(462.051215 523.386875) scale(0.1 -0.1)">
       <defs>
        <path id="LiberationSans-38" d="M 3281 1228 
Q 3281 619 2893 278 
Q 2506 -63 1781 -63 
Q 1075 -63 676 271 
Q 278 606 278 1222 
Q 278 1653 525 1947 
Q 772 2241 1156 2303 
L 1156 2316 
Q 797 2400 589 2681 
Q 381 2963 381 3341 
Q 381 3844 757 4156 
Q 1134 4469 1769 4469 
Q 2419 4469 2795 4162 
Q 3172 3856 3172 3334 
Q 3172 2956 2962 2675 
Q 2753 2394 2391 2322 
L 2391 2309 
Q 2813 2241 3047 1952 
Q 3281 1663 3281 1228 
z
M 2588 3303 
Q 2588 4050 1769 4050 
Q 1372 4050 1164 3862 
Q 956 3675 956 3303 
Q 956 2925 1170 2726 
Q 1384 2528 1775 2528 
Q 2172 2528 2380 2711 
Q 2588 2894 2588 3303 
z
M 2697 1281 
Q 2697 1691 2453 1898 
Q 2209 2106 1769 2106 
Q 1341 2106 1100 1882 
Q 859 1659 859 1269 
Q 859 359 1788 359 
Q 2247 359 2472 579 
Q 2697 800 2697 1281 
z
" transform="scale(0.015625)"/>
       </defs>
       <use xlink:href="#LiberationSans-38"/>
      </g>
     </g>
    </g>
    <g id="xtick_6">
     <g id="line2d_6"/>
     <g id="text_6">
      <!-- 10 -->
      <g style="fill: #262626" transform="translate(540.869577 523.386875) scale(0.1 -0.1)">
       <defs>
        <path id="LiberationSans-31" d="M 488 0 
L 488 478 
L 1609 478 
L 1609 3866 
L 616 3156 
L 616 3688 
L 1656 4403 
L 2175 4403 
L 2175 478 
L 3247 478 
L 3247 0 
L 488 0 
z
" transform="scale(0.015625)"/>
       </defs>
       <use xlink:href="#LiberationSans-31"/>
       <use xlink:href="#LiberationSans-30" x="55.615234"/>
      </g>
     </g>
    </g>
    <g id="xtick_7">
     <g id="line2d_7"/>
     <g id="text_7">
      <!-- 12 -->
      <g style="fill: #262626" transform="translate(622.468407 523.386875) scale(0.1 -0.1)">
       <use xlink:href="#LiberationSans-31"/>
       <use xlink:href="#LiberationSans-32" x="55.615234"/>
      </g>
     </g>
    </g>
    <g id="xtick_8">
     <g id="line2d_8"/>
     <g id="text_8">
      <!-- 14 -->
      <g style="fill: #262626" transform="translate(704.067237 523.386875) scale(0.1 -0.1)">
       <use xlink:href="#LiberationSans-31"/>
       <use xlink:href="#LiberationSans-34" x="55.615234"/>
      </g>
     </g>
    </g>
    <g id="text_9">
     <!-- Time (s) -->
     <g style="fill: #262626" transform="translate(424.658594 536.70875) scale(0.1 -0.1)">
      <defs>
       <path id="LiberationSans-54" d="M 2250 3916 
L 2250 0 
L 1656 0 
L 1656 3916 
L 144 3916 
L 144 4403 
L 3763 4403 
L 3763 3916 
L 2250 3916 
z
" transform="scale(0.015625)"/>
       <path id="LiberationSans-69" d="M 428 4100 
L 428 4638 
L 991 4638 
L 991 4100 
L 428 4100 
z
M 428 0 
L 428 3381 
L 991 3381 
L 991 0 
L 428 0 
z
" transform="scale(0.015625)"/>
       <path id="LiberationSans-6d" d="M 2400 0 
L 2400 2144 
Q 2400 2634 2265 2821 
Q 2131 3009 1781 3009 
Q 1422 3009 1212 2734 
Q 1003 2459 1003 1959 
L 1003 0 
L 444 0 
L 444 2659 
Q 444 3250 425 3381 
L 956 3381 
Q 959 3366 962 3297 
Q 966 3228 970 3139 
Q 975 3050 981 2803 
L 991 2803 
Q 1172 3163 1406 3303 
Q 1641 3444 1978 3444 
Q 2363 3444 2586 3291 
Q 2809 3138 2897 2803 
L 2906 2803 
Q 3081 3144 3329 3294 
Q 3578 3444 3931 3444 
Q 4444 3444 4676 3166 
Q 4909 2888 4909 2253 
L 4909 0 
L 4353 0 
L 4353 2144 
Q 4353 2634 4218 2821 
Q 4084 3009 3734 3009 
Q 3366 3009 3161 2736 
Q 2956 2463 2956 1959 
L 2956 0 
L 2400 0 
z
" transform="scale(0.015625)"/>
       <path id="LiberationSans-65" d="M 863 1572 
Q 863 991 1103 675 
Q 1344 359 1806 359 
Q 2172 359 2392 506 
Q 2613 653 2691 878 
L 3184 738 
Q 2881 -63 1806 -63 
Q 1056 -63 664 384 
Q 272 831 272 1713 
Q 272 2550 664 2997 
Q 1056 3444 1784 3444 
Q 3275 3444 3275 1647 
L 3275 1572 
L 863 1572 
z
M 2694 2003 
Q 2647 2538 2422 2783 
Q 2197 3028 1775 3028 
Q 1366 3028 1127 2754 
Q 888 2481 869 2003 
L 2694 2003 
z
" transform="scale(0.015625)"/>
       <path id="LiberationSans-20" transform="scale(0.015625)"/>
       <path id="LiberationSans-28" d="M 397 1663 
Q 397 2566 680 3284 
Q 963 4003 1550 4638 
L 2094 4638 
Q 1509 3988 1236 3256 
Q 963 2525 963 1656 
Q 963 791 1233 62 
Q 1503 -666 2094 -1325 
L 1550 -1325 
Q 959 -688 678 32 
Q 397 753 397 1650 
L 397 1663 
z
" transform="scale(0.015625)"/>
       <path id="LiberationSans-73" d="M 2969 934 
Q 2969 456 2608 196 
Q 2247 -63 1597 -63 
Q 966 -63 623 145 
Q 281 353 178 794 
L 675 891 
Q 747 619 972 492 
Q 1197 366 1597 366 
Q 2025 366 2223 497 
Q 2422 628 2422 891 
Q 2422 1091 2284 1216 
Q 2147 1341 1841 1422 
L 1438 1528 
Q 953 1653 748 1773 
Q 544 1894 428 2066 
Q 313 2238 313 2488 
Q 313 2950 642 3192 
Q 972 3434 1603 3434 
Q 2163 3434 2492 3237 
Q 2822 3041 2909 2606 
L 2403 2544 
Q 2356 2769 2151 2889 
Q 1947 3009 1603 3009 
Q 1222 3009 1040 2893 
Q 859 2778 859 2544 
Q 859 2400 934 2306 
Q 1009 2213 1156 2147 
Q 1303 2081 1775 1966 
Q 2222 1853 2419 1758 
Q 2616 1663 2730 1547 
Q 2844 1431 2906 1279 
Q 2969 1128 2969 934 
z
" transform="scale(0.015625)"/>
       <path id="LiberationSans-29" d="M 1734 1650 
Q 1734 747 1451 28 
Q 1169 -691 581 -1325 
L 38 -1325 
Q 625 -669 897 57 
Q 1169 784 1169 1656 
Q 1169 2528 895 3256 
Q 622 3984 38 4638 
L 581 4638 
Q 1172 4000 1453 3279 
Q 1734 2559 1734 1663 
L 1734 1650 
z
" transform="scale(0.015625)"/>
      </defs>
      <use xlink:href="#LiberationSans-54"/>
      <use xlink:href="#LiberationSans-69" x="57.333984"/>
      <use xlink:href="#LiberationSans-6d" x="79.550781"/>
      <use xlink:href="#LiberationSans-65" x="162.851562"/>
      <use xlink:href="#LiberationSans-20" x="218.466797"/>
      <use xlink:href="#LiberationSans-28" x="246.25"/>
      <use xlink:href="#LiberationSans-73" x="279.550781"/>
      <use xlink:href="#LiberationSans-29" x="329.550781"/>
     </g>
    </g>
   </g>
   <g id="matplotlib.axis_2">
    <g id="ytick_1">
     <g id="line2d_9"/>
     <g id="text_10">
      <!-- 0 -->
      <g style="fill: #262626" transform="translate(98.939063 496.103437) scale(0.1 -0.1)">
       <use xlink:href="#LiberationSans-30"/>
      </g>
     </g>
    </g>
    <g id="ytick_2">
     <g id="line2d_10"/>
     <g id="text_11">
      <!-- 25 -->
      <g style="fill: #262626" transform="translate(93.378125 439.314705) scale(0.1 -0.1)">
       <defs>
        <path id="LiberationSans-35" d="M 3291 1434 
Q 3291 738 2877 337 
Q 2463 -63 1728 -63 
Q 1113 -63 734 206 
Q 356 475 256 984 
L 825 1050 
Q 1003 397 1741 397 
Q 2194 397 2450 670 
Q 2706 944 2706 1422 
Q 2706 1838 2448 2094 
Q 2191 2350 1753 2350 
Q 1525 2350 1328 2278 
Q 1131 2206 934 2034 
L 384 2034 
L 531 4403 
L 3034 4403 
L 3034 3925 
L 1044 3925 
L 959 2528 
Q 1325 2809 1869 2809 
Q 2519 2809 2905 2428 
Q 3291 2047 3291 1434 
z
" transform="scale(0.015625)"/>
       </defs>
       <use xlink:href="#LiberationSans-32"/>
       <use xlink:href="#LiberationSans-35" x="55.615234"/>
      </g>
     </g>
    </g>
    <g id="ytick_3">
     <g id="line2d_11"/>
     <g id="text_12">
      <!-- 50 -->
      <g style="fill: #262626" transform="translate(93.378125 382.525973) scale(0.1 -0.1)">
       <use xlink:href="#LiberationSans-35"/>
       <use xlink:href="#LiberationSans-30" x="55.615234"/>
      </g>
     </g>
    </g>
    <g id="ytick_4">
     <g id="line2d_12"/>
     <g id="text_13">
      <!-- 75 -->
      <g style="fill: #262626" transform="translate(93.378125 325.73724) scale(0.1 -0.1)">
       <defs>
        <path id="LiberationSans-37" d="M 3238 3947 
Q 2563 2916 2284 2331 
Q 2006 1747 1867 1178 
Q 1728 609 1728 0 
L 1141 0 
Q 1141 844 1498 1776 
Q 1856 2709 2694 3925 
L 328 3925 
L 328 4403 
L 3238 4403 
L 3238 3947 
z
" transform="scale(0.015625)"/>
       </defs>
       <use xlink:href="#LiberationSans-37"/>
       <use xlink:href="#LiberationSans-35" x="55.615234"/>
      </g>
     </g>
    </g>
    <g id="ytick_5">
     <g id="line2d_13"/>
     <g id="text_14">
      <!-- 100 -->
      <g style="fill: #262626" transform="translate(87.817188 268.948508) scale(0.1 -0.1)">
       <use xlink:href="#LiberationSans-31"/>
       <use xlink:href="#LiberationSans-30" x="55.615234"/>
       <use xlink:href="#LiberationSans-30" x="111.230469"/>
      </g>
     </g>
    </g>
    <g id="ytick_6">
     <g id="line2d_14"/>
     <g id="text_15">
      <!-- 125 -->
      <g style="fill: #262626" transform="translate(87.817188 212.159776) scale(0.1 -0.1)">
       <use xlink:href="#LiberationSans-31"/>
       <use xlink:href="#LiberationSans-32" x="55.615234"/>
       <use xlink:href="#LiberationSans-35" x="111.230469"/>
      </g>
     </g>
    </g>
    <g id="ytick_7">
     <g id="line2d_15"/>
     <g id="text_16">
      <!-- 150 -->
      <g style="fill: #262626" transform="translate(87.817188 155.371043) scale(0.1 -0.1)">
       <use xlink:href="#LiberationSans-31"/>
       <use xlink:href="#LiberationSans-35" x="55.615234"/>
       <use xlink:href="#LiberationSans-30" x="111.230469"/>
      </g>
     </g>
    </g>
    <g id="ytick_8">
     <g id="line2d_16"/>
     <g id="text_17">
      <!-- 175 -->
      <g style="fill: #262626" transform="translate(87.817188 98.582311) scale(0.1 -0.1)">
       <use xlink:href="#LiberationSans-31"/>
       <use xlink:href="#LiberationSans-37" x="55.615234"/>
       <use xlink:href="#LiberationSans-35" x="111.230469"/>
      </g>
     </g>
    </g>
    <g id="text_18">
     <!-- Output Frequency (Hz) -->
     <g style="fill: #262626" transform="translate(81.742188 341.728437) rotate(-90) scale(0.1 -0.1)">
      <defs>
       <path id="LiberationSans-4f" d="M 4672 2222 
Q 4672 1531 4408 1012 
Q 4144 494 3650 215 
Q 3156 -63 2484 -63 
Q 1806 -63 1314 212 
Q 822 488 562 1008 
Q 303 1528 303 2222 
Q 303 3278 881 3873 
Q 1459 4469 2491 4469 
Q 3163 4469 3656 4201 
Q 4150 3934 4411 3425 
Q 4672 2916 4672 2222 
z
M 4063 2222 
Q 4063 3044 3652 3512 
Q 3241 3981 2491 3981 
Q 1734 3981 1321 3518 
Q 909 3056 909 2222 
Q 909 1394 1326 908 
Q 1744 422 2484 422 
Q 3247 422 3655 892 
Q 4063 1363 4063 2222 
z
" transform="scale(0.015625)"/>
       <path id="LiberationSans-75" d="M 981 3381 
L 981 1238 
Q 981 903 1047 718 
Q 1113 534 1256 453 
Q 1400 372 1678 372 
Q 2084 372 2318 650 
Q 2553 928 2553 1422 
L 2553 3381 
L 3116 3381 
L 3116 722 
Q 3116 131 3134 0 
L 2603 0 
Q 2600 16 2597 84 
Q 2594 153 2589 242 
Q 2584 331 2578 578 
L 2569 578 
Q 2375 228 2120 82 
Q 1866 -63 1488 -63 
Q 931 -63 673 214 
Q 416 491 416 1128 
L 416 3381 
L 981 3381 
z
" transform="scale(0.015625)"/>
       <path id="LiberationSans-74" d="M 1731 25 
Q 1453 -50 1163 -50 
Q 488 -50 488 716 
L 488 2972 
L 97 2972 
L 97 3381 
L 509 3381 
L 675 4138 
L 1050 4138 
L 1050 3381 
L 1675 3381 
L 1675 2972 
L 1050 2972 
L 1050 838 
Q 1050 594 1129 495 
Q 1209 397 1406 397 
Q 1519 397 1731 441 
L 1731 25 
z
" transform="scale(0.015625)"/>
       <path id="LiberationSans-70" d="M 3291 1706 
Q 3291 -63 2047 -63 
Q 1266 -63 997 525 
L 981 525 
Q 994 500 994 -6 
L 994 -1328 
L 431 -1328 
L 431 2691 
Q 431 3213 413 3381 
L 956 3381 
Q 959 3369 965 3292 
Q 972 3216 980 3056 
Q 988 2897 988 2838 
L 1000 2838 
Q 1150 3150 1397 3295 
Q 1644 3441 2047 3441 
Q 2672 3441 2981 3022 
Q 3291 2603 3291 1706 
z
M 2700 1694 
Q 2700 2400 2509 2703 
Q 2319 3006 1903 3006 
Q 1569 3006 1380 2865 
Q 1191 2725 1092 2426 
Q 994 2128 994 1650 
Q 994 984 1206 668 
Q 1419 353 1897 353 
Q 2316 353 2508 661 
Q 2700 969 2700 1694 
z
" transform="scale(0.015625)"/>
       <path id="LiberationSans-46" d="M 1122 3916 
L 1122 2278 
L 3578 2278 
L 3578 1784 
L 1122 1784 
L 1122 0 
L 525 0 
L 525 4403 
L 3653 4403 
L 3653 3916 
L 1122 3916 
z
" transform="scale(0.015625)"/>
       <path id="LiberationSans-72" d="M 444 0 
L 444 2594 
Q 444 2950 425 3381 
L 956 3381 
Q 981 2806 981 2691 
L 994 2691 
Q 1128 3125 1303 3284 
Q 1478 3444 1797 3444 
Q 1909 3444 2025 3413 
L 2025 2897 
Q 1913 2928 1725 2928 
Q 1375 2928 1190 2626 
Q 1006 2325 1006 1763 
L 1006 0 
L 444 0 
z
" transform="scale(0.015625)"/>
       <path id="LiberationSans-71" d="M 1513 -63 
Q 869 -63 569 371 
Q 269 806 269 1675 
Q 269 3444 1513 3444 
Q 1897 3444 2147 3308 
Q 2397 3172 2566 2856 
L 2572 2856 
Q 2572 2950 2584 3179 
Q 2597 3409 2609 3425 
L 3150 3425 
Q 3128 3241 3128 2503 
L 3128 -1328 
L 2566 -1328 
L 2566 44 
L 2578 556 
L 2572 556 
Q 2403 222 2156 79 
Q 1909 -63 1513 -63 
z
M 2566 1731 
Q 2566 2391 2350 2709 
Q 2134 3028 1663 3028 
Q 1234 3028 1046 2709 
Q 859 2391 859 1694 
Q 859 984 1048 678 
Q 1238 372 1656 372 
Q 2134 372 2350 712 
Q 2566 1053 2566 1731 
z
" transform="scale(0.015625)"/>
       <path id="LiberationSans-6e" d="M 2578 0 
L 2578 2144 
Q 2578 2478 2512 2662 
Q 2447 2847 2303 2928 
Q 2159 3009 1881 3009 
Q 1475 3009 1240 2731 
Q 1006 2453 1006 1959 
L 1006 0 
L 444 0 
L 444 2659 
Q 444 3250 425 3381 
L 956 3381 
Q 959 3366 962 3297 
Q 966 3228 970 3139 
Q 975 3050 981 2803 
L 991 2803 
Q 1184 3153 1439 3298 
Q 1694 3444 2072 3444 
Q 2628 3444 2886 3167 
Q 3144 2891 3144 2253 
L 3144 0 
L 2578 0 
z
" transform="scale(0.015625)"/>
       <path id="LiberationSans-63" d="M 859 1706 
Q 859 1031 1071 706 
Q 1284 381 1713 381 
Q 2013 381 2214 543 
Q 2416 706 2463 1044 
L 3031 1006 
Q 2966 519 2616 228 
Q 2266 -63 1728 -63 
Q 1019 -63 645 385 
Q 272 834 272 1694 
Q 272 2547 647 2995 
Q 1022 3444 1722 3444 
Q 2241 3444 2583 3175 
Q 2925 2906 3013 2434 
L 2434 2391 
Q 2391 2672 2212 2837 
Q 2034 3003 1706 3003 
Q 1259 3003 1059 2706 
Q 859 2409 859 1706 
z
" transform="scale(0.015625)"/>
       <path id="LiberationSans-79" d="M 597 -1328 
Q 366 -1328 209 -1294 
L 209 -872 
Q 328 -891 472 -891 
Q 997 -891 1303 -119 
L 1356 16 
L 16 3381 
L 616 3381 
L 1328 1513 
Q 1344 1469 1366 1408 
Q 1388 1347 1506 1000 
Q 1625 653 1634 613 
L 1853 1228 
L 2594 3381 
L 3188 3381 
L 1888 0 
Q 1678 -541 1497 -805 
Q 1316 -1069 1095 -1198 
Q 875 -1328 597 -1328 
z
" transform="scale(0.015625)"/>
       <path id="LiberationSans-48" d="M 3503 0 
L 3503 2041 
L 1122 2041 
L 1122 0 
L 525 0 
L 525 4403 
L 1122 4403 
L 1122 2541 
L 3503 2541 
L 3503 4403 
L 4100 4403 
L 4100 0 
L 3503 0 
z
" transform="scale(0.015625)"/>
       <path id="LiberationSans-7a" d="M 259 0 
L 259 428 
L 2150 2947 
L 366 2947 
L 366 3381 
L 2816 3381 
L 2816 2953 
L 922 434 
L 2881 434 
L 2881 0 
L 259 0 
z
" transform="scale(0.015625)"/>
      </defs>
      <use xlink:href="#LiberationSans-4f"/>
      <use xlink:href="#LiberationSans-75" x="77.783203"/>
      <use xlink:href="#LiberationSans-74" x="133.398438"/>
      <use xlink:href="#LiberationSans-70" x="161.181641"/>
      <use xlink:href="#LiberationSans-75" x="216.796875"/>
      <use xlink:href="#LiberationSans-74" x="272.412109"/>
      <use xlink:href="#LiberationSans-20" x="300.195312"/>
      <use xlink:href="#LiberationSans-46" x="327.978516"/>
      <use xlink:href="#LiberationSans-72" x="389.0625"/>
      <use xlink:href="#LiberationSans-65" x="422.363281"/>
      <use xlink:href="#LiberationSans-71" x="477.978516"/>
      <use xlink:href="#LiberationSans-75" x="533.59375"/>
      <use xlink:href="#LiberationSans-65" x="589.208984"/>
      <use xlink:href="#LiberationSans-6e" x="644.824219"/>
      <use xlink:href="#LiberationSans-63" x="700.439453"/>
      <use xlink:href="#LiberationSans-79" x="750.439453"/>
      <use xlink:href="#LiberationSans-20" x="800.439453"/>
      <use xlink:href="#LiberationSans-28" x="828.222656"/>
      <use xlink:href="#LiberationSans-48" x="861.523438"/>
      <use xlink:href="#LiberationSans-7a" x="933.740234"/>
      <use xlink:href="#LiberationSans-29" x="983.740234"/>
     </g>
    </g>
   </g>
   <g id="line2d_17">
    <path d="M 138.436364 324.24338 
L 140.06834 361.156056 
L 141.700317 351.218028 
L 143.332293 399.488451 
L 144.96427 432.851831 
L 146.596247 402.327887 
L 148.228223 439.240563 
L 149.8602 414.395493 
L 151.492176 437.110986 
L 153.124153 435.691268 
L 154.75613 411.556056 
L 156.388106 437.820845 
L 158.020083 412.265915 
L 159.652059 436.401127 
L 161.284036 442.08 
L 162.916013 410.136338 
L 164.547989 444.919437 
L 166.179966 412.265915 
L 167.811942 437.820845 
L 169.443919 438.530704 
L 171.075896 410.846197 
L 172.707872 439.950423 
L 174.339849 415.105352 
L 175.971825 437.110986 
L 177.603802 434.981408 
L 179.235779 412.265915 
L 180.867755 434.981408 
L 182.499732 412.265915 
L 184.131709 436.401127 
L 185.763685 439.240563 
L 187.395662 415.105352 
L 189.027638 436.401127 
L 190.659615 415.815211 
L 192.291592 437.820845 
L 193.923568 435.691268 
L 195.555545 416.52507 
L 197.187521 438.530704 
L 198.819498 413.685634 
L 200.451475 434.981408 
L 202.083451 437.820845 
L 203.715428 416.52507 
L 205.347404 436.401127 
L 206.979381 415.105352 
L 208.611358 435.691268 
L 210.243334 437.110986 
L 211.875311 413.685634 
L 213.507287 438.530704 
L 215.139264 415.105352 
L 216.771241 437.820845 
L 218.403217 437.110986 
L 220.035194 413.685634 
L 221.66717 437.820845 
L 223.299147 414.395493 
L 224.931124 436.401127 
L 226.5631 434.981408 
L 228.195077 411.556056 
L 229.827053 436.401127 
L 231.45903 412.975775 
L 233.091007 437.820845 
L 234.722983 437.110986 
L 236.35496 413.685634 
L 237.986936 438.530704 
L 239.618913 411.556056 
L 241.25089 434.981408 
L 242.882866 440.660282 
L 244.514843 407.296901 
L 246.146819 439.950423 
L 247.778796 412.975775 
L 249.410773 435.691268 
L 251.042749 438.530704 
L 252.674726 411.556056 
L 254.306702 437.820845 
L 255.938679 424.333521 
L 257.570656 428.592676 
L 259.202632 437.110986 
L 260.834609 410.136338 
L 262.466585 436.401127 
L 264.098562 437.820845 
L 265.730539 415.815211 
L 267.362515 435.691268 
L 268.994492 413.685634 
L 270.626468 434.981408 
L 272.258445 435.691268 
L 273.890422 412.265915 
L 275.522398 437.820845 
L 277.154375 410.846197 
L 278.786351 434.981408 
L 280.418328 437.820845 
L 282.050305 412.265915 
L 283.682281 437.110986 
L 285.314258 409.426479 
L 286.946234 434.981408 
L 288.578211 435.691268 
L 290.210188 411.556056 
L 291.842164 436.401127 
L 293.474141 411.556056 
L 295.106117 440.660282 
L 296.738094 439.240563 
L 298.370071 411.556056 
L 300.002047 437.820845 
L 301.634024 408.71662 
L 303.266 436.401127 
L 304.897977 436.401127 
L 306.529954 412.265915 
L 308.16193 434.981408 
L 309.793907 413.685634 
L 311.425883 438.530704 
L 313.05786 436.401127 
L 314.689837 412.975775 
L 316.321813 439.950423 
L 317.95379 411.556056 
L 319.585767 436.401127 
L 321.217743 436.401127 
L 322.84972 411.556056 
L 324.481696 437.820845 
L 326.113673 418.654648 
L 327.74565 438.530704 
L 329.377626 434.981408 
L 331.009603 412.265915 
L 332.641579 437.110986 
L 334.273556 406.587042 
L 335.905533 434.981408 
L 337.537509 434.271549 
L 339.169486 409.426479 
L 340.801462 438.530704 
L 342.433439 415.105352 
L 344.065416 436.401127 
L 345.697392 439.950423 
L 347.329369 415.105352 
L 348.961345 439.950423 
L 350.593322 415.105352 
L 352.225299 435.691268 
L 353.857275 434.981408 
L 355.489252 407.296901 
L 357.121228 438.530704 
L 358.753205 411.556056 
L 360.385182 434.271549 
L 362.017158 435.691268 
L 363.649135 414.395493 
L 365.281111 437.110986 
L 366.913088 412.265915 
L 368.545065 437.110986 
L 370.177041 437.820845 
L 371.809018 410.136338 
L 373.440994 437.110986 
L 375.072971 414.395493 
L 376.704948 436.401127 
L 378.336924 442.08 
L 379.968901 413.685634 
L 381.600877 435.691268 
L 383.232854 437.820845 
L 384.864831 408.71662 
L 386.496807 436.401127 
L 388.128784 411.556056 
L 389.76076 436.401127 
L 391.392737 436.401127 
L 393.024714 408.71662 
L 394.65669 434.271549 
L 396.288667 412.265915 
L 397.920643 439.950423 
L 399.55262 436.401127 
L 401.184597 411.556056 
L 402.816573 438.530704 
L 404.44855 410.846197 
L 406.080526 436.401127 
L 407.712503 436.401127 
L 409.34448 410.846197 
L 410.976456 437.110986 
L 412.608433 416.52507 
L 414.240409 439.240563 
L 415.872386 435.691268 
L 417.504363 407.296901 
L 419.136339 435.691268 
L 420.768316 413.685634 
L 422.400292 433.56169 
L 424.032269 439.240563 
L 425.664246 410.136338 
L 427.296222 436.401127 
L 428.928199 413.685634 
L 430.560175 435.691268 
L 432.192152 433.56169 
L 433.824129 408.71662 
L 435.456105 439.240563 
L 437.088082 415.815211 
L 438.720058 432.851831 
L 440.352035 438.530704 
L 441.984012 404.457465 
L 443.615988 439.950423 
L 445.247965 413.685634 
L 446.879942 434.271549 
L 448.511918 438.530704 
L 450.143895 411.556056 
L 451.775871 432.141972 
L 453.407848 414.395493 
L 455.039825 437.110986 
L 456.671801 439.950423 
L 458.303778 407.296901 
L 459.935754 437.110986 
L 461.567731 412.975775 
L 463.199708 434.981408 
L 464.831684 439.950423 
L 466.463661 413.685634 
L 468.095637 437.820845 
L 469.727614 410.846197 
L 471.359591 433.56169 
L 472.991567 437.110986 
L 474.623544 412.265915 
L 476.25552 439.240563 
L 477.887497 417.23493 
L 479.519474 434.271549 
L 481.15145 436.401127 
L 482.783427 410.136338 
L 484.415403 436.401127 
L 486.04738 410.846197 
L 487.679357 441.370141 
L 489.311333 433.56169 
L 490.94331 415.815211 
L 492.575286 437.110986 
L 494.207263 417.23493 
L 495.83924 437.110986 
L 497.471216 436.401127 
L 499.103193 415.815211 
L 500.735169 438.530704 
L 502.367146 440.660282 
L 503.999123 415.105352 
L 505.631099 437.820845 
L 507.263076 413.685634 
L 508.895052 435.691268 
L 510.527029 437.820845 
L 512.159006 409.426479 
L 513.790982 438.530704 
L 515.422959 415.105352 
L 517.054935 439.950423 
L 518.686912 438.530704 
L 520.318889 410.136338 
L 521.950865 434.981408 
L 523.582842 413.685634 
L 525.214818 433.56169 
L 526.846795 436.401127 
L 528.478772 412.265915 
L 530.110748 440.660282 
L 531.742725 410.846197 
L 533.374701 435.691268 
L 535.006678 436.401127 
L 536.638655 412.265915 
L 538.270631 437.110986 
L 539.902608 416.52507 
L 541.534584 434.981408 
L 543.166561 434.981408 
L 544.798538 415.815211 
L 546.430514 436.401127 
L 548.062491 414.395493 
L 549.694467 434.271549 
L 551.326444 438.530704 
L 552.958421 413.685634 
L 554.590397 437.820845 
L 556.222374 412.975775 
L 557.85435 437.110986 
L 559.486327 439.240563 
L 561.118304 413.685634 
L 562.75028 439.950423 
L 564.382257 411.556056 
L 566.014233 438.530704 
L 567.64621 437.820845 
L 569.278187 409.426479 
L 570.910163 440.660282 
L 572.54214 412.975775 
L 574.174117 436.401127 
L 575.806093 439.240563 
L 577.43807 408.71662 
L 579.070046 437.110986 
L 580.702023 410.136338 
L 582.334 434.981408 
L 583.965976 437.110986 
L 585.597953 411.556056 
L 587.229929 436.401127 
L 588.861906 410.136338 
L 590.493883 439.240563 
L 592.125859 438.530704 
L 593.757836 410.136338 
L 595.389812 433.56169 
L 597.021789 412.265915 
L 598.653766 439.240563 
L 600.285742 436.401127 
L 601.917719 407.296901 
L 603.549695 430.722254 
L 605.181672 413.685634 
L 606.813649 436.401127 
L 608.445625 434.981408 
L 610.077602 411.556056 
L 611.709578 435.691268 
L 613.341555 414.395493 
L 614.973532 434.271549 
L 616.605508 438.530704 
L 618.237485 412.975775 
L 619.869461 435.691268 
L 621.501438 422.913803 
L 623.133415 431.432113 
L 624.765391 434.981408 
L 626.397368 410.136338 
L 628.029344 440.660282 
L 629.661321 438.530704 
L 631.293298 414.395493 
L 632.925274 434.981408 
L 634.557251 412.265915 
L 636.189227 438.530704 
L 637.821204 437.110986 
L 639.453181 410.136338 
L 641.085157 439.240563 
L 642.717134 408.71662 
L 644.34911 439.950423 
L 645.981087 442.08 
L 647.613064 412.975775 
L 649.24504 439.240563 
L 650.877017 408.006761 
L 652.508993 438.530704 
L 654.14097 439.950423 
L 655.772947 408.006761 
L 657.404923 437.110986 
L 659.0369 411.556056 
L 660.668876 437.110986 
L 662.300853 435.691268 
L 663.93283 412.265915 
L 665.564806 439.240563 
L 667.196783 410.136338 
L 668.828759 437.110986 
L 670.460736 437.820845 
L 672.092713 410.136338 
L 673.724689 438.530704 
L 675.356666 415.815211 
L 676.988642 436.401127 
L 678.620619 437.820845 
L 680.252596 409.426479 
L 681.884572 435.691268 
L 683.516549 412.975775 
L 685.148525 438.530704 
L 686.780502 439.950423 
L 688.412479 408.006761 
L 690.044455 437.110986 
L 691.676432 411.556056 
L 693.308408 434.981408 
L 694.940385 434.981408 
L 696.572362 408.71662 
L 698.204338 442.789859 
L 699.836315 411.556056 
L 701.468291 439.240563 
L 703.100268 436.401127 
L 704.732245 416.52507 
L 706.364221 436.401127 
L 707.996198 413.685634 
L 709.628175 434.271549 
L 711.260151 436.401127 
L 712.892128 422.913803 
L 714.524104 437.110986 
L 716.156081 414.395493 
L 717.788058 433.56169 
L 719.420034 434.981408 
L 721.052011 412.265915 
L 722.683987 438.530704 
L 724.315964 412.975775 
L 725.947941 434.981408 
L 727.579917 438.530704 
L 729.211894 410.846197 
L 730.84387 437.820845 
L 732.475847 409.426479 
L 734.107824 437.110986 
L 735.7398 437.110986 
L 737.371777 413.685634 
L 739.003753 435.691268 
L 740.63573 408.71662 
L 742.267707 434.271549 
L 743.899683 436.401127 
L 745.53166 412.975775 
L 747.163636 437.820845 
L 747.163636 437.820845 
" clip-path="url(#p9052df0a72)" style="fill: none; stroke: #5f9ea0; stroke-width: 1.5; stroke-linecap: round"/>
   </g>
   <g id="line2d_18">
    <path d="M 138.436364 89.28 
L 140.06834 117.674366 
L 141.700317 111.995493 
L 143.332293 134.710986 
L 144.96427 163.105352 
L 146.596247 163.105352 
L 148.228223 174.463099 
L 149.8602 168.784225 
L 151.492176 180.141972 
L 153.124153 197.178592 
L 154.75613 168.784225 
L 156.388106 191.499718 
L 158.020083 163.105352 
L 159.652059 168.784225 
L 161.284036 208.536338 
L 162.916013 168.784225 
L 166.179966 180.141972 
L 167.811942 168.784225 
L 169.443919 202.857465 
L 171.075896 174.463099 
L 172.707872 174.463099 
L 174.339849 168.784225 
L 177.603802 191.499718 
L 179.235779 163.105352 
L 180.867755 180.141972 
L 182.499732 163.105352 
L 184.131709 174.463099 
L 185.763685 208.536338 
L 187.395662 168.784225 
L 189.027638 174.463099 
L 190.659615 174.463099 
L 192.291592 168.784225 
L 193.923568 208.536338 
L 195.555545 163.105352 
L 197.187521 185.820845 
L 198.819498 168.784225 
L 200.451475 180.141972 
L 202.083451 202.857465 
L 203.715428 174.463099 
L 206.979381 163.105352 
L 208.611358 180.141972 
L 210.243334 214.215211 
L 211.875311 168.784225 
L 213.507287 168.784225 
L 215.139264 174.463099 
L 216.771241 168.784225 
L 218.403217 208.536338 
L 220.035194 168.784225 
L 221.66717 185.820845 
L 224.931124 174.463099 
L 226.5631 185.820845 
L 228.195077 174.463099 
L 229.827053 168.784225 
L 231.45903 174.463099 
L 233.091007 174.463099 
L 234.722983 197.178592 
L 236.35496 168.784225 
L 237.986936 185.820845 
L 239.618913 180.141972 
L 241.25089 168.784225 
L 242.882866 197.178592 
L 244.514843 168.784225 
L 246.146819 180.141972 
L 247.778796 163.105352 
L 249.410773 174.463099 
L 251.042749 202.857465 
L 252.674726 163.105352 
L 254.306702 185.820845 
L 255.938679 197.178592 
L 257.570656 151.747606 
L 259.202632 202.857465 
L 260.834609 163.105352 
L 262.466585 185.820845 
L 264.098562 197.178592 
L 265.730539 163.105352 
L 267.362515 180.141972 
L 268.994492 168.784225 
L 270.626468 185.820845 
L 272.258445 197.178592 
L 273.890422 174.463099 
L 275.522398 168.784225 
L 277.154375 174.463099 
L 278.786351 174.463099 
L 280.418328 208.536338 
L 282.050305 168.784225 
L 283.682281 168.784225 
L 286.946234 180.141972 
L 288.578211 208.536338 
L 290.210188 163.105352 
L 291.842164 174.463099 
L 293.474141 180.141972 
L 295.106117 163.105352 
L 296.738094 202.857465 
L 298.370071 180.141972 
L 300.002047 174.463099 
L 301.634024 174.463099 
L 303.266 157.426479 
L 304.897977 208.536338 
L 306.529954 174.463099 
L 308.16193 168.784225 
L 309.793907 168.784225 
L 311.425883 185.820845 
L 313.05786 191.499718 
L 314.689837 168.784225 
L 316.321813 180.141972 
L 317.95379 163.105352 
L 319.585767 174.463099 
L 321.217743 197.178592 
L 322.84972 185.820845 
L 324.481696 168.784225 
L 326.113673 163.105352 
L 329.377626 197.178592 
L 331.009603 174.463099 
L 334.273556 163.105352 
L 335.905533 174.463099 
L 337.537509 197.178592 
L 339.169486 168.784225 
L 340.801462 180.141972 
L 342.433439 163.105352 
L 344.065416 174.463099 
L 345.697392 197.178592 
L 347.329369 174.463099 
L 348.961345 180.141972 
L 350.593322 168.784225 
L 352.225299 163.105352 
L 353.857275 202.857465 
L 355.489252 174.463099 
L 357.121228 174.463099 
L 358.753205 180.141972 
L 360.385182 180.141972 
L 362.017158 197.178592 
L 363.649135 168.784225 
L 365.281111 191.499718 
L 366.913088 168.784225 
L 368.545065 180.141972 
L 370.177041 202.857465 
L 371.809018 163.105352 
L 373.440994 180.141972 
L 375.072971 180.141972 
L 376.704948 163.105352 
L 378.336924 191.499718 
L 381.600877 180.141972 
L 383.232854 197.178592 
L 384.864831 151.747606 
L 386.496807 185.820845 
L 388.128784 168.784225 
L 389.76076 180.141972 
L 391.392737 197.178592 
L 393.024714 168.784225 
L 394.65669 168.784225 
L 396.288667 163.105352 
L 397.920643 185.820845 
L 399.55262 191.499718 
L 401.184597 174.463099 
L 402.816573 163.105352 
L 404.44855 174.463099 
L 406.080526 180.141972 
L 407.712503 202.857465 
L 409.34448 180.141972 
L 410.976456 163.105352 
L 414.240409 174.463099 
L 415.872386 185.820845 
L 420.768316 168.784225 
L 422.400292 174.463099 
L 424.032269 197.178592 
L 425.664246 174.463099 
L 427.296222 168.784225 
L 428.928199 174.463099 
L 430.560175 168.784225 
L 432.192152 208.536338 
L 433.824129 174.463099 
L 435.456105 168.784225 
L 438.720058 168.784225 
L 440.352035 202.857465 
L 441.984012 180.141972 
L 443.615988 163.105352 
L 445.247965 174.463099 
L 446.879942 168.784225 
L 448.511918 202.857465 
L 450.143895 185.820845 
L 451.775871 174.463099 
L 453.407848 168.784225 
L 455.039825 180.141972 
L 456.671801 202.857465 
L 458.303778 174.463099 
L 459.935754 168.784225 
L 461.567731 168.784225 
L 464.831684 191.499718 
L 466.463661 174.463099 
L 468.095637 174.463099 
L 469.727614 163.105352 
L 471.359591 174.463099 
L 472.991567 214.215211 
L 474.623544 157.426479 
L 476.25552 174.463099 
L 477.887497 180.141972 
L 479.519474 168.784225 
L 481.15145 202.857465 
L 482.783427 174.463099 
L 484.415403 185.820845 
L 486.04738 163.105352 
L 487.679357 185.820845 
L 489.311333 191.499718 
L 490.94331 163.105352 
L 492.575286 168.784225 
L 494.207263 191.499718 
L 495.83924 174.463099 
L 497.471216 191.499718 
L 499.103193 180.141972 
L 500.735169 174.463099 
L 502.367146 202.857465 
L 503.999123 157.426479 
L 505.631099 197.178592 
L 507.263076 168.784225 
L 508.895052 174.463099 
L 510.527029 208.536338 
L 512.159006 146.068732 
L 513.790982 185.820845 
L 517.054935 174.463099 
L 518.686912 208.536338 
L 520.318889 168.784225 
L 521.950865 163.105352 
L 523.582842 168.784225 
L 525.214818 168.784225 
L 526.846795 208.536338 
L 528.478772 174.463099 
L 530.110748 174.463099 
L 531.742725 168.784225 
L 533.374701 174.463099 
L 535.006678 219.894085 
L 536.638655 163.105352 
L 538.270631 180.141972 
L 539.902608 168.784225 
L 541.534584 168.784225 
L 543.166561 197.178592 
L 544.798538 180.141972 
L 546.430514 180.141972 
L 548.062491 163.105352 
L 549.694467 174.463099 
L 551.326444 214.215211 
L 552.958421 157.426479 
L 554.590397 185.820845 
L 556.222374 157.426479 
L 557.85435 174.463099 
L 559.486327 202.857465 
L 561.118304 174.463099 
L 562.75028 180.141972 
L 566.014233 168.784225 
L 567.64621 214.215211 
L 569.278187 174.463099 
L 570.910163 174.463099 
L 572.54214 185.820845 
L 574.174117 163.105352 
L 575.806093 219.894085 
L 577.43807 163.105352 
L 579.070046 180.141972 
L 580.702023 168.784225 
L 582.334 168.784225 
L 583.965976 208.536338 
L 585.597953 163.105352 
L 587.229929 185.820845 
L 588.861906 174.463099 
L 590.493883 168.784225 
L 592.125859 197.178592 
L 593.757836 174.463099 
L 595.389812 174.463099 
L 597.021789 168.784225 
L 600.285742 191.499718 
L 601.917719 163.105352 
L 603.549695 174.463099 
L 605.181672 157.426479 
L 608.445625 191.499718 
L 610.077602 180.141972 
L 611.709578 185.820845 
L 613.341555 163.105352 
L 616.605508 197.178592 
L 618.237485 174.463099 
L 619.869461 168.784225 
L 621.501438 191.499718 
L 623.133415 163.105352 
L 624.765391 197.178592 
L 626.397368 180.141972 
L 628.029344 174.463099 
L 629.661321 185.820845 
L 631.293298 180.141972 
L 632.925274 185.820845 
L 634.557251 168.784225 
L 637.821204 191.499718 
L 639.453181 174.463099 
L 642.717134 174.463099 
L 644.34911 168.784225 
L 645.981087 202.857465 
L 647.613064 163.105352 
L 649.24504 185.820845 
L 650.877017 168.784225 
L 652.508993 180.141972 
L 654.14097 202.857465 
L 655.772947 163.105352 
L 657.404923 185.820845 
L 659.0369 168.784225 
L 660.668876 174.463099 
L 662.300853 202.857465 
L 663.93283 174.463099 
L 665.564806 168.784225 
L 667.196783 168.784225 
L 670.460736 202.857465 
L 672.092713 168.784225 
L 673.724689 168.784225 
L 675.356666 174.463099 
L 676.988642 174.463099 
L 678.620619 202.857465 
L 680.252596 180.141972 
L 681.884572 168.784225 
L 683.516549 168.784225 
L 685.148525 174.463099 
L 686.780502 208.536338 
L 688.412479 163.105352 
L 690.044455 185.820845 
L 691.676432 168.784225 
L 693.308408 174.463099 
L 694.940385 202.857465 
L 696.572362 157.426479 
L 698.204338 180.141972 
L 699.836315 174.463099 
L 701.468291 163.105352 
L 703.100268 191.499718 
L 709.628175 168.784225 
L 712.892128 191.499718 
L 714.524104 180.141972 
L 716.156081 157.426479 
L 717.788058 180.141972 
L 719.420034 191.499718 
L 721.052011 168.784225 
L 722.683987 185.820845 
L 725.947941 163.105352 
L 727.579917 197.178592 
L 729.211894 168.784225 
L 730.84387 180.141972 
L 732.475847 180.141972 
L 734.107824 174.463099 
L 735.7398 202.857465 
L 737.371777 168.784225 
L 739.003753 168.784225 
L 740.63573 185.820845 
L 742.267707 163.105352 
L 743.899683 197.178592 
L 745.53166 163.105352 
L 747.163636 185.820845 
L 747.163636 185.820845 
" clip-path="url(#p9052df0a72)" style="fill: none; stroke: #f08080; stroke-width: 1.5; stroke-linecap: round"/>
   </g>
   <g id="line2d_19">
    <path d="M 138.436364 492.48 
L 140.06834 492.48 
L 141.700317 486.801127 
L 143.332293 475.44338 
L 149.8602 475.44338 
L 151.492176 481.122254 
L 153.124153 481.122254 
L 154.75613 475.44338 
L 156.388106 481.122254 
L 161.284036 481.122254 
L 162.916013 475.44338 
L 164.547989 481.122254 
L 166.179966 492.48 
L 167.811942 475.44338 
L 169.443919 481.122254 
L 171.075896 475.44338 
L 175.971825 492.48 
L 177.603802 486.801127 
L 179.235779 475.44338 
L 180.867755 481.122254 
L 182.499732 475.44338 
L 184.131709 481.122254 
L 185.763685 481.122254 
L 187.395662 475.44338 
L 189.027638 486.801127 
L 190.659615 481.122254 
L 193.923568 481.122254 
L 195.555545 475.44338 
L 198.819498 486.801127 
L 200.451475 475.44338 
L 203.715428 486.801127 
L 206.979381 475.44338 
L 208.611358 481.122254 
L 211.875311 481.122254 
L 213.507287 486.801127 
L 216.771241 475.44338 
L 218.403217 481.122254 
L 220.035194 475.44338 
L 221.66717 475.44338 
L 223.299147 481.122254 
L 224.931124 481.122254 
L 226.5631 492.48 
L 229.827053 481.122254 
L 231.45903 481.122254 
L 233.091007 475.44338 
L 234.722983 481.122254 
L 236.35496 475.44338 
L 237.986936 475.44338 
L 239.618913 481.122254 
L 241.25089 481.122254 
L 242.882866 486.801127 
L 244.514843 486.801127 
L 246.146819 481.122254 
L 247.778796 481.122254 
L 249.410773 475.44338 
L 251.042749 481.122254 
L 252.674726 475.44338 
L 254.306702 481.122254 
L 255.938679 481.122254 
L 257.570656 475.44338 
L 259.202632 486.801127 
L 260.834609 475.44338 
L 262.466585 481.122254 
L 267.362515 481.122254 
L 268.994492 475.44338 
L 270.626468 481.122254 
L 272.258445 481.122254 
L 273.890422 475.44338 
L 277.154375 486.801127 
L 278.786351 475.44338 
L 280.418328 481.122254 
L 282.050305 481.122254 
L 283.682281 486.801127 
L 285.314258 475.44338 
L 286.946234 481.122254 
L 288.578211 481.122254 
L 290.210188 475.44338 
L 291.842164 481.122254 
L 293.474141 475.44338 
L 295.106117 481.122254 
L 296.738094 481.122254 
L 298.370071 475.44338 
L 300.002047 486.801127 
L 301.634024 481.122254 
L 304.897977 481.122254 
L 306.529954 475.44338 
L 308.16193 481.122254 
L 309.793907 475.44338 
L 313.05786 486.801127 
L 314.689837 475.44338 
L 316.321813 486.801127 
L 317.95379 486.801127 
L 319.585767 475.44338 
L 321.217743 481.122254 
L 322.84972 475.44338 
L 324.481696 481.122254 
L 326.113673 475.44338 
L 327.74565 481.122254 
L 329.377626 481.122254 
L 331.009603 492.48 
L 335.905533 475.44338 
L 337.537509 481.122254 
L 339.169486 475.44338 
L 340.801462 481.122254 
L 342.433439 475.44338 
L 344.065416 481.122254 
L 345.697392 481.122254 
L 347.329369 475.44338 
L 348.961345 481.122254 
L 350.593322 492.48 
L 355.489252 475.44338 
L 357.121228 481.122254 
L 358.753205 475.44338 
L 360.385182 475.44338 
L 362.017158 481.122254 
L 363.649135 475.44338 
L 365.281111 481.122254 
L 366.913088 475.44338 
L 368.545065 481.122254 
L 375.072971 481.122254 
L 376.704948 475.44338 
L 378.336924 481.122254 
L 379.968901 475.44338 
L 381.600877 486.801127 
L 383.232854 486.801127 
L 384.864831 481.122254 
L 386.496807 481.122254 
L 388.128784 475.44338 
L 389.76076 486.801127 
L 391.392737 486.801127 
L 393.024714 475.44338 
L 394.65669 481.122254 
L 396.288667 475.44338 
L 397.920643 481.122254 
L 399.55262 481.122254 
L 401.184597 486.801127 
L 404.44855 475.44338 
L 406.080526 481.122254 
L 407.712503 481.122254 
L 409.34448 475.44338 
L 410.976456 481.122254 
L 412.608433 475.44338 
L 414.240409 492.48 
L 415.872386 492.48 
L 417.504363 475.44338 
L 419.136339 481.122254 
L 420.768316 475.44338 
L 422.400292 481.122254 
L 424.032269 481.122254 
L 425.664246 475.44338 
L 427.296222 481.122254 
L 432.192152 481.122254 
L 433.824129 475.44338 
L 435.456105 492.48 
L 437.088082 481.122254 
L 440.352035 481.122254 
L 441.984012 475.44338 
L 443.615988 481.122254 
L 448.511918 481.122254 
L 450.143895 475.44338 
L 451.775871 481.122254 
L 453.407848 481.122254 
L 455.039825 475.44338 
L 458.303778 486.801127 
L 461.567731 475.44338 
L 463.199708 481.122254 
L 468.095637 481.122254 
L 469.727614 486.801127 
L 471.359591 475.44338 
L 472.991567 481.122254 
L 474.623544 475.44338 
L 476.25552 481.122254 
L 486.04738 481.122254 
L 487.679357 475.44338 
L 489.311333 481.122254 
L 490.94331 475.44338 
L 492.575286 486.801127 
L 494.207263 481.122254 
L 497.471216 481.122254 
L 499.103193 475.44338 
L 500.735169 481.122254 
L 502.367146 481.122254 
L 503.999123 475.44338 
L 505.631099 481.122254 
L 507.263076 492.48 
L 508.895052 481.122254 
L 510.527029 481.122254 
L 512.159006 475.44338 
L 513.790982 475.44338 
L 515.422959 481.122254 
L 518.686912 481.122254 
L 520.318889 492.48 
L 521.950865 486.801127 
L 523.582842 475.44338 
L 525.214818 481.122254 
L 526.846795 481.122254 
L 528.478772 475.44338 
L 530.110748 486.801127 
L 531.742725 475.44338 
L 533.374701 481.122254 
L 535.006678 481.122254 
L 536.638655 475.44338 
L 538.270631 486.801127 
L 539.902608 486.801127 
L 541.534584 481.122254 
L 543.166561 481.122254 
L 544.798538 475.44338 
L 546.430514 481.122254 
L 548.062491 481.122254 
L 549.694467 475.44338 
L 551.326444 486.801127 
L 552.958421 475.44338 
L 554.590397 481.122254 
L 556.222374 475.44338 
L 557.85435 481.122254 
L 559.486327 481.122254 
L 561.118304 475.44338 
L 562.75028 486.801127 
L 566.014233 475.44338 
L 567.64621 481.122254 
L 569.278187 475.44338 
L 570.910163 481.122254 
L 572.54214 481.122254 
L 574.174117 475.44338 
L 575.806093 492.48 
L 577.43807 481.122254 
L 579.070046 481.122254 
L 580.702023 475.44338 
L 582.334 481.122254 
L 587.229929 481.122254 
L 588.861906 475.44338 
L 590.493883 481.122254 
L 592.125859 481.122254 
L 593.757836 475.44338 
L 595.389812 481.122254 
L 597.021789 475.44338 
L 598.653766 486.801127 
L 600.285742 492.48 
L 601.917719 492.48 
L 603.549695 481.122254 
L 605.181672 481.122254 
L 606.813649 475.44338 
L 608.445625 481.122254 
L 610.077602 475.44338 
L 611.709578 481.122254 
L 613.341555 481.122254 
L 614.973532 475.44338 
L 616.605508 481.122254 
L 618.237485 475.44338 
L 619.869461 486.801127 
L 623.133415 475.44338 
L 624.765391 481.122254 
L 626.397368 475.44338 
L 628.029344 481.122254 
L 629.661321 481.122254 
L 631.293298 475.44338 
L 632.925274 486.801127 
L 634.557251 486.801127 
L 636.189227 481.122254 
L 637.821204 481.122254 
L 639.453181 475.44338 
L 641.085157 481.122254 
L 642.717134 475.44338 
L 644.34911 481.122254 
L 649.24504 481.122254 
L 650.877017 475.44338 
L 654.14097 486.801127 
L 655.772947 481.122254 
L 657.404923 481.122254 
L 659.0369 475.44338 
L 660.668876 481.122254 
L 662.300853 481.122254 
L 663.93283 475.44338 
L 667.196783 486.801127 
L 668.828759 481.122254 
L 670.460736 481.122254 
L 672.092713 475.44338 
L 673.724689 481.122254 
L 675.356666 475.44338 
L 676.988642 486.801127 
L 678.620619 492.48 
L 680.252596 475.44338 
L 681.884572 481.122254 
L 683.516549 475.44338 
L 685.148525 481.122254 
L 690.044455 481.122254 
L 691.676432 486.801127 
L 693.308408 481.122254 
L 694.940385 481.122254 
L 696.572362 475.44338 
L 698.204338 481.122254 
L 699.836315 475.44338 
L 701.468291 481.122254 
L 703.100268 481.122254 
L 704.732245 475.44338 
L 706.364221 481.122254 
L 707.996198 475.44338 
L 709.628175 481.122254 
L 711.260151 481.122254 
L 712.892128 475.44338 
L 714.524104 486.801127 
L 716.156081 486.801127 
L 717.788058 475.44338 
L 719.420034 481.122254 
L 721.052011 475.44338 
L 722.683987 481.122254 
L 725.947941 481.122254 
L 727.579917 486.801127 
L 729.211894 475.44338 
L 730.84387 481.122254 
L 732.475847 481.122254 
L 734.107824 475.44338 
L 737.371777 486.801127 
L 739.003753 486.801127 
L 742.267707 475.44338 
L 743.899683 481.122254 
L 745.53166 475.44338 
L 747.163636 481.122254 
L 747.163636 481.122254 
" clip-path="url(#p9052df0a72)" style="fill: none; stroke: #f4a460; stroke-width: 1.5; stroke-linecap: round"/>
   </g>
   <g id="patch_3">
    <path d="M 108 512.64 
L 108 69.12 
" style="fill: none; stroke: #262626; stroke-width: 1.25; stroke-linejoin: miter; stroke-linecap: square"/>
   </g>
   <g id="patch_4">
    <path d="M 108 512.64 
L 777.6 512.64 
" style="fill: none; stroke: #262626; stroke-width: 1.25; stroke-linejoin: miter; stroke-linecap: square"/>
   </g>
   <g id="text_19">
    <!-- Frequeny vs Time -->
    <g style="fill: #262626" transform="translate(395.11875 63.12) scale(0.12 -0.12)">
     <defs>
      <path id="LiberationSans-76" d="M 1916 0 
L 1250 0 
L 22 3381 
L 622 3381 
L 1366 1181 
Q 1406 1056 1581 441 
L 1691 806 
L 1813 1175 
L 2581 3381 
L 3178 3381 
L 1916 0 
z
" transform="scale(0.015625)"/>
     </defs>
     <use xlink:href="#LiberationSans-46"/>
     <use xlink:href="#LiberationSans-72" x="61.083984"/>
     <use xlink:href="#LiberationSans-65" x="94.384766"/>
     <use xlink:href="#LiberationSans-71" x="150"/>
     <use xlink:href="#LiberationSans-75" x="205.615234"/>
     <use xlink:href="#LiberationSans-65" x="261.230469"/>
     <use xlink:href="#LiberationSans-6e" x="316.845703"/>
     <use xlink:href="#LiberationSans-79" x="372.460938"/>
     <use xlink:href="#LiberationSans-20" x="422.460938"/>
     <use xlink:href="#LiberationSans-76" x="450.244141"/>
     <use xlink:href="#LiberationSans-73" x="500.244141"/>
     <use xlink:href="#LiberationSans-20" x="550.244141"/>
     <use xlink:href="#LiberationSans-54" x="576.277344"/>
     <use xlink:href="#LiberationSans-69" x="633.611328"/>
     <use xlink:href="#LiberationSans-6d" x="655.828125"/>
     <use xlink:href="#LiberationSans-65" x="739.128906"/>
    </g>
   </g>
   <g id="legend_1">
    <g id="line2d_20">
     <path d="M 676.678125 81.866875 
L 686.678125 81.866875 
L 696.678125 81.866875 
" style="fill: none; stroke: #5f9ea0; stroke-width: 1.5; stroke-linecap: round"/>
    </g>
    <g id="text_20">
     <!--  PC_neurons -->
     <g style="fill: #262626" transform="translate(704.678125 85.366875) scale(0.1 -0.1)">
      <defs>
       <path id="LiberationSans-50" d="M 3931 3078 
Q 3931 2453 3523 2084 
Q 3116 1716 2416 1716 
L 1122 1716 
L 1122 0 
L 525 0 
L 525 4403 
L 2378 4403 
Q 3119 4403 3525 4056 
Q 3931 3709 3931 3078 
z
M 3331 3072 
Q 3331 3925 2306 3925 
L 1122 3925 
L 1122 2188 
L 2331 2188 
Q 3331 2188 3331 3072 
z
" transform="scale(0.015625)"/>
       <path id="LiberationSans-43" d="M 2475 3981 
Q 1744 3981 1337 3511 
Q 931 3041 931 2222 
Q 931 1413 1354 920 
Q 1778 428 2500 428 
Q 3425 428 3891 1344 
L 4378 1100 
Q 4106 531 3614 234 
Q 3122 -63 2472 -63 
Q 1806 -63 1320 214 
Q 834 491 579 1005 
Q 325 1519 325 2222 
Q 325 3275 894 3872 
Q 1463 4469 2469 4469 
Q 3172 4469 3644 4194 
Q 4116 3919 4338 3378 
L 3772 3191 
Q 3619 3575 3280 3778 
Q 2941 3981 2475 3981 
z
" transform="scale(0.015625)"/>
       <path id="LiberationSans-5f" d="M -97 -1272 
L -97 -866 
L 3631 -866 
L 3631 -1272 
L -97 -1272 
z
" transform="scale(0.015625)"/>
       <path id="LiberationSans-6f" d="M 3291 1694 
Q 3291 806 2900 371 
Q 2509 -63 1766 -63 
Q 1025 -63 647 389 
Q 269 841 269 1694 
Q 269 3444 1784 3444 
Q 2559 3444 2925 3017 
Q 3291 2591 3291 1694 
z
M 2700 1694 
Q 2700 2394 2492 2711 
Q 2284 3028 1794 3028 
Q 1300 3028 1079 2704 
Q 859 2381 859 1694 
Q 859 1025 1076 689 
Q 1294 353 1759 353 
Q 2266 353 2483 678 
Q 2700 1003 2700 1694 
z
" transform="scale(0.015625)"/>
      </defs>
      <use xlink:href="#LiberationSans-20"/>
      <use xlink:href="#LiberationSans-50" x="27.783203"/>
      <use xlink:href="#LiberationSans-43" x="94.482422"/>
      <use xlink:href="#LiberationSans-5f" x="166.699219"/>
      <use xlink:href="#LiberationSans-6e" x="222.314453"/>
      <use xlink:href="#LiberationSans-65" x="277.929688"/>
      <use xlink:href="#LiberationSans-75" x="333.544922"/>
      <use xlink:href="#LiberationSans-72" x="389.160156"/>
      <use xlink:href="#LiberationSans-6f" x="422.460938"/>
      <use xlink:href="#LiberationSans-6e" x="478.076172"/>
      <use xlink:href="#LiberationSans-73" x="533.691406"/>
     </g>
    </g>
    <g id="line2d_21">
     <path d="M 676.678125 96.18875 
L 686.678125 96.18875 
L 696.678125 96.18875 
" style="fill: none; stroke: #f08080; stroke-width: 1.5; stroke-linecap: round"/>
    </g>
    <g id="text_21">
     <!--  PV_neurons -->
     <g style="fill: #262626" transform="translate(704.678125 99.68875) scale(0.1 -0.1)">
      <defs>
       <path id="LiberationSans-56" d="M 2444 0 
L 1825 0 
L 28 4403 
L 656 4403 
L 1875 1303 
L 2138 525 
L 2400 1303 
L 3613 4403 
L 4241 4403 
L 2444 0 
z
" transform="scale(0.015625)"/>
      </defs>
      <use xlink:href="#LiberationSans-20"/>
      <use xlink:href="#LiberationSans-50" x="27.783203"/>
      <use xlink:href="#LiberationSans-56" x="94.482422"/>
      <use xlink:href="#LiberationSans-5f" x="161.181641"/>
      <use xlink:href="#LiberationSans-6e" x="216.796875"/>
      <use xlink:href="#LiberationSans-65" x="272.412109"/>
      <use xlink:href="#LiberationSans-75" x="328.027344"/>
      <use xlink:href="#LiberationSans-72" x="383.642578"/>
      <use xlink:href="#LiberationSans-6f" x="416.943359"/>
      <use xlink:href="#LiberationSans-6e" x="472.558594"/>
      <use xlink:href="#LiberationSans-73" x="528.173828"/>
     </g>
    </g>
    <g id="line2d_22">
     <path d="M 676.678125 110.510625 
L 686.678125 110.510625 
L 696.678125 110.510625 
" style="fill: none; stroke: #f4a460; stroke-width: 1.5; stroke-linecap: round"/>
    </g>
    <g id="text_22">
     <!--  SST_neurons -->
     <g style="fill: #262626" transform="translate(704.678125 114.010625) scale(0.1 -0.1)">
      <defs>
       <path id="LiberationSans-53" d="M 3975 1216 
Q 3975 606 3498 271 
Q 3022 -63 2156 -63 
Q 547 -63 291 1056 
L 869 1172 
Q 969 775 1294 589 
Q 1619 403 2178 403 
Q 2756 403 3070 601 
Q 3384 800 3384 1184 
Q 3384 1400 3286 1534 
Q 3188 1669 3009 1756 
Q 2831 1844 2584 1903 
Q 2338 1963 2038 2031 
Q 1516 2147 1245 2262 
Q 975 2378 819 2520 
Q 663 2663 580 2853 
Q 497 3044 497 3291 
Q 497 3856 930 4162 
Q 1363 4469 2169 4469 
Q 2919 4469 3316 4239 
Q 3713 4009 3872 3456 
L 3284 3353 
Q 3188 3703 2916 3861 
Q 2644 4019 2163 4019 
Q 1634 4019 1356 3844 
Q 1078 3669 1078 3322 
Q 1078 3119 1186 2986 
Q 1294 2853 1497 2761 
Q 1700 2669 2306 2534 
Q 2509 2488 2711 2439 
Q 2913 2391 3097 2323 
Q 3281 2256 3442 2165 
Q 3603 2075 3722 1944 
Q 3841 1813 3908 1634 
Q 3975 1456 3975 1216 
z
" transform="scale(0.015625)"/>
      </defs>
      <use xlink:href="#LiberationSans-20"/>
      <use xlink:href="#LiberationSans-53" x="27.783203"/>
      <use xlink:href="#LiberationSans-53" x="94.482422"/>
      <use xlink:href="#LiberationSans-54" x="161.181641"/>
      <use xlink:href="#LiberationSans-5f" x="222.265625"/>
      <use xlink:href="#LiberationSans-6e" x="277.880859"/>
      <use xlink:href="#LiberationSans-65" x="333.496094"/>
      <use xlink:href="#LiberationSans-75" x="389.111328"/>
      <use xlink:href="#LiberationSans-72" x="444.726562"/>
      <use xlink:href="#LiberationSans-6f" x="478.027344"/>
      <use xlink:href="#LiberationSans-6e" x="533.642578"/>
      <use xlink:href="#LiberationSans-73" x="589.257812"/>
     </g>
    </g>
   </g>
  </g>
  <g id="text_23">
   <g id="patch_5">
    <path d="M 604.8 494.1675 
L 674.329219 494.1675 
Q 677.029219 494.1675 677.029219 491.4675 
L 677.029219 483.077813 
Q 677.029219 480.377813 674.329219 480.377813 
L 604.8 480.377813 
Q 602.1 480.377813 602.1 483.077813 
L 602.1 491.4675 
Q 602.1 494.1675 604.8 494.1675 
z
" style="fill: #ffffff; stroke: #000000; stroke-linejoin: miter"/>
   </g>
   <!-- Input Freq: 60 Hz -->
   <g style="fill: #262626" transform="translate(604.8 489.6) scale(0.09 -0.09)">
    <defs>
     <path id="LiberationSans-49" d="M 591 0 
L 591 4403 
L 1188 4403 
L 1188 0 
L 591 0 
z
" transform="scale(0.015625)"/>
     <path id="LiberationSans-3a" d="M 584 2734 
L 584 3381 
L 1194 3381 
L 1194 2734 
L 584 2734 
z
M 584 0 
L 584 647 
L 1194 647 
L 1194 0 
L 584 0 
z
" transform="scale(0.015625)"/>
    </defs>
    <use xlink:href="#LiberationSans-49"/>
    <use xlink:href="#LiberationSans-6e" x="27.783203"/>
    <use xlink:href="#LiberationSans-70" x="83.398438"/>
    <use xlink:href="#LiberationSans-75" x="139.013672"/>
    <use xlink:href="#LiberationSans-74" x="194.628906"/>
    <use xlink:href="#LiberationSans-20" x="222.412109"/>
    <use xlink:href="#LiberationSans-46" x="250.195312"/>
    <use xlink:href="#LiberationSans-72" x="311.279297"/>
    <use xlink:href="#LiberationSans-65" x="344.580078"/>
    <use xlink:href="#LiberationSans-71" x="400.195312"/>
    <use xlink:href="#LiberationSans-3a" x="455.810547"/>
    <use xlink:href="#LiberationSans-20" x="483.59375"/>
    <use xlink:href="#LiberationSans-36" x="511.376953"/>
    <use xlink:href="#LiberationSans-30" x="566.992188"/>
    <use xlink:href="#LiberationSans-20" x="622.607422"/>
    <use xlink:href="#LiberationSans-48" x="650.390625"/>
    <use xlink:href="#LiberationSans-7a" x="722.607422"/>
   </g>
  </g>
 </g>
 <defs>
  <clipPath id="p9052df0a72">
   <rect x="108" y="69.12" width="669.6" height="443.52"/>
  </clipPath>
 </defs>
</svg>
